<svg id="Icons" xmlns="http://www.w3.org/2000/svg" viewBox="0 0 1920 1080"><defs><style>.cls-1,.cls-13{fill:#2c2a74;}.cls-2{fill:#020058;}.cls-3{fill:#fff;}.cls-4{fill:#9593ba;}.cls-5{fill:#aaa8c8;}.cls-6{fill:#6b699e;}.cls-7{fill:#413f82;}.cls-8{fill:#565490;}.cls-21,.cls-9{fill:#bfbdd6;}.cls-10{fill:#807eac;}.cls-11{fill:#e9e7f2;}.cls-12,.cls-14,.cls-17,.cls-18,.cls-19,.cls-20,.cls-22,.cls-23{fill:none;}.cls-12,.cls-23{stroke:#020058;}.cls-12,.cls-13,.cls-17,.cls-18,.cls-19,.cls-20,.cls-21,.cls-22,.cls-23{stroke-miterlimit:10;}.cls-12{stroke-width:0.94px;}.cls-13{stroke:#2c2a74;stroke-width:1.08px;}.cls-15{fill:#d4d2e4;}.cls-16{fill:#171566;}.cls-17,.cls-18,.cls-19{stroke:#413f82;}.cls-17,.cls-18,.cls-19,.cls-20,.cls-22{stroke-linecap:round;stroke-width:4px;}.cls-18{stroke-dasharray:0.99 11.89;}.cls-19,.cls-20,.cls-22{stroke-dasharray:1 12;}.cls-20{stroke:#fff;}.cls-21{stroke:#d4d2e4;stroke-width:0.67px;}.cls-22{stroke:#807eac;}.cls-23{stroke-width:1.07px;}</style></defs><title>Artboard 6 copy</title><path class="cls-1" d="M1273.36,601.77h-25V721.31h25a6.85,6.85,0,0,0,6.86-6.84V608.62A6.86,6.86,0,0,0,1273.36,601.77Z"/><path class="cls-2" d="M1223,601.77a6.85,6.85,0,0,0-6.84,6.85V714.47a6.84,6.84,0,0,0,6.84,6.84h25.35V601.77Z"/><path class="cls-3" d="M1248.4,717.53a5.28,5.28,0,1,1,5.28-5.29A5.29,5.29,0,0,1,1248.4,717.53Z"/><rect class="cls-4" x="1223.34" y="610.38" width="49.73" height="93.86"/><path class="cls-3" d="M1257.69,660.11a6.7,6.7,0,0,0-5.49,2.87l-11.11-5.55a6.65,6.65,0,0,0,.35-2.1A6.87,6.87,0,0,0,1241,653l11.31-6.12a6.69,6.69,0,1,0-1.33-4,6.63,6.63,0,0,0,.42,2.32l-11.31,6.12a6.69,6.69,0,1,0,.13,7.81l11.1,5.56a6.69,6.69,0,1,0,6.35-4.59Z"/><path class="cls-1" d="M762.22,323.48h-47V478.56h47c4.89,0,8.85-4.28,8.85-9.61V333.07C771.07,327.77,767.11,323.48,762.22,323.48Z"/><path class="cls-2" d="M669.15,323.48c-4.9,0-8.83,4.29-8.85,9.59V469c0,5.33,4,9.61,8.85,9.61h46V323.48Z"/><rect class="cls-5" x="669.59" y="335" width="92.18" height="124.95"/><path class="cls-3" d="M715.17,474.66a5.14,5.14,0,1,1,5.14-5.14A5.1,5.1,0,0,1,715.17,474.66Z"/><polygon class="cls-6" points="669.59 405.4 676.25 400.58 688.66 385.52 705.49 394.38 719.67 374.88 732.96 397.04 748.91 385.52 761.77 378.43 762.21 459.95 669.16 459.95 669.59 405.4"/><path class="cls-3" d="M761.77,377.36l-10.76,6a3.09,3.09,0,0,0-4.75,2.62c0,.12,0,.24,0,.36l-11.57,8.36a3,3,0,0,0-1.31-.3,3.11,3.11,0,0,0-.92.15l-10.2-17a3.1,3.1,0,1,0-5.28-2.21,3,3,0,0,0,.3,1.31l-11,15.13a2.2,2.2,0,0,0-.36,0,3.1,3.1,0,0,0-2.07.8l-11.71-6.16a2.58,2.58,0,0,0,0-.4,3.1,3.1,0,0,0-6.2,0,3,3,0,0,0,.22,1.12l-9,10.9a3.19,3.19,0,0,0-.55-.06,3.1,3.1,0,0,0-3.1,3.1,1,1,0,0,0,0,.17l-4,2.51v2l0,.06,4.6-2.87a3.09,3.09,0,1,0,4.63-4.08l8.48-10.3a3.07,3.07,0,0,0,4.09-.53L703,394a2.89,2.89,0,0,0-.12.78,3.11,3.11,0,0,0,6.21,0,3.07,3.07,0,0,0-1.08-2.33L718.52,378a3.1,3.1,0,0,0,1.59.46,3.18,3.18,0,0,0,.62-.07L731,395.52a3.1,3.1,0,1,0,5,.37L747,388a3.09,3.09,0,0,0,5.17-3.27l9.58-5.32Z"/><path class="cls-1" d="M1160.72,708.38H1075.2V866.75h29.4a2,2,0,0,0,2-2v-.72a1.88,1.88,0,0,0-.81-1.52c-1.6-2.29-7-6.76-7-9.35v-7c0-.14,0-.27,0-.41h62a11.15,11.15,0,0,0,11.31-11V719.36A11.13,11.13,0,0,0,1160.72,708.38Z"/><path class="cls-2" d="M989.06,708.38a11.12,11.12,0,0,0-11.28,11V834.85a11.14,11.14,0,0,0,11.28,11h60.64a2.85,2.85,0,0,0,0,.41v7c0,2.59-5.45,7.07-7.05,9.36a1.87,1.87,0,0,0-.8,1.51v.72a2,2,0,0,0,2,2h31.35V708.38Z"/><rect class="cls-3" x="987.28" y="726.23" width="175.24" height="101.49"/><rect class="cls-7" x="1005.5" y="787.53" width="36.8" height="4.46"/><rect class="cls-7" x="1056.8" y="787.53" width="36.8" height="4.46"/><rect class="cls-7" x="1107.59" y="787.53" width="36.66" height="4.46"/><path class="cls-8" d="M1040.63,764.11a1.59,1.59,0,0,0-.72.17l-2.24-2.24a1.59,1.59,0,0,0,.17-.72,1.68,1.68,0,0,0-3.35,0,1.63,1.63,0,0,0,.26.88l-2.5,3.12a1.91,1.91,0,0,0-.54-.09h-.07l-3.65-9.11a1.67,1.67,0,1,0-1.42,0l-4,15.83-3.09-6.16a1.67,1.67,0,1,0-2.53-.16l-2.72,4.07a1.84,1.84,0,0,0-.41,0,1.73,1.73,0,0,0-.72.16l-1.12-1.12a1.59,1.59,0,0,0,.17-.72,1.68,1.68,0,0,0-3.35,0,1.63,1.63,0,0,0,.3,1l-2.3,3.16a1.74,1.74,0,0,0-.79-.2,1.67,1.67,0,1,0,1.68,1.67,1.6,1.6,0,0,0-.13-.62l2.44-3.36a1.51,1.51,0,0,0,.48.08,1.72,1.72,0,0,0,.71-.17l1.13,1.12a1.59,1.59,0,0,0-.17.72,1.67,1.67,0,0,0,3.34,0,1.64,1.64,0,0,0-.33-1l2.71-4.07a1.92,1.92,0,0,0,.41.05l.21,0,3.46,6.92a1.67,1.67,0,1,0,1.47-.06l3.91-15.62,3.23,8.09a1.69,1.69,0,0,0-.57,1.25,1.68,1.68,0,1,0,3.09-.88l2.5-3.12a1.63,1.63,0,0,0,.55.1,1.69,1.69,0,0,0,.71-.17l2.24,2.24a1.67,1.67,0,1,0,1.51-1Z"/><rect class="cls-5" x="1059.59" y="766.34" width="7.81" height="21.19"/><rect class="cls-6" x="1067.39" y="759.65" width="7.81" height="27.88"/><rect class="cls-9" x="1075.2" y="768.57" width="7.81" height="18.96"/><rect class="cls-4" x="1083.01" y="755.19" width="7.81" height="32.34"/><circle class="cls-10" cx="1110.89" cy="775.82" r="1.67"/><circle class="cls-10" cx="1117.02" cy="770.8" r="3.35"/><circle class="cls-10" cx="1128.18" cy="767.46" r="3.35"/><circle class="cls-10" cx="1135.98" cy="763" r="4.46"/><circle class="cls-10" cx="1112.01" cy="781.4" r="1.67"/><circle class="cls-10" cx="1133.75" cy="769.69" r="1.12"/><circle class="cls-10" cx="1121.49" cy="765.23" r="2.23"/><circle class="cls-10" cx="1141" cy="755.75" r="2.79"/><circle class="cls-10" cx="1129.29" cy="774.15" r="2.23"/><circle class="cls-10" cx="1128.73" cy="760.21" r="1.67"/><circle class="cls-10" cx="1138.21" cy="770.8" r="2.23"/><circle class="cls-10" cx="1124.27" cy="772.48" r="1.67"/><circle class="cls-10" cx="1121.49" cy="777.49" r="2.23"/><circle class="cls-10" cx="1115.91" cy="777.49" r="2.23"/><circle class="cls-10" cx="1142.68" cy="760.77" r="1.12"/><rect class="cls-5" x="1005.39" y="734.24" width="138.87" height="6.67"/><rect class="cls-2" x="1005.39" y="800.9" width="36.66" height="1.11"/><rect class="cls-2" x="1005.39" y="804.23" width="36.66" height="1.11"/><rect class="cls-2" x="1005.39" y="807.56" width="36.66" height="1.11"/><rect class="cls-2" x="1005.39" y="810.9" width="36.66" height="1.11"/><rect class="cls-2" x="1005.39" y="814.23" width="36.66" height="1.11"/><rect class="cls-2" x="1005.39" y="817.56" width="23.33" height="1.11"/><rect class="cls-2" x="1056.87" y="800.9" width="36.66" height="1.11"/><rect class="cls-2" x="1056.87" y="804.23" width="36.66" height="1.11"/><rect class="cls-2" x="1056.87" y="807.56" width="25.55" height="1.11"/><rect class="cls-2" x="1056.87" y="814.23" width="36.66" height="1.11"/><rect class="cls-2" x="1056.87" y="817.56" width="36.66" height="1.11"/><rect class="cls-2" x="1056.87" y="820.89" width="36.66" height="1.11"/><rect class="cls-2" x="1107.59" y="800.9" width="36.66" height="1.11"/><rect class="cls-2" x="1107.59" y="804.23" width="36.66" height="1.11"/><rect class="cls-2" x="1107.59" y="807.56" width="36.66" height="1.11"/><rect class="cls-2" x="1107.59" y="810.9" width="36.66" height="1.11"/><rect class="cls-2" x="1107.59" y="814.23" width="30" height="1.11"/><path class="cls-3" d="M1074.9,716.38a2,2,0,1,1-2,2A2,2,0,0,1,1074.9,716.38Z"/><rect class="cls-1" x="1299.01" y="396.53" width="192.64" height="137.6" rx="6.43" ry="6.43"/><path class="cls-3" d="M1302.31,406.44h186a0,0,0,0,1,0,0V528.22a2.6,2.6,0,0,1-2.6,2.6H1304.91a2.6,2.6,0,0,1-2.6-2.6V406.44A0,0,0,0,1,1302.31,406.44Z"/><circle class="cls-3" cx="1483.94" cy="401.48" r="2.2"/><circle class="cls-3" cx="1477.34" cy="401.48" r="2.2"/><circle class="cls-3" cx="1470.73" cy="401.48" r="2.2"/><rect class="cls-11" x="1326.96" y="414.69" width="13.24" height="4.41"/><rect class="cls-11" x="1341.97" y="414.69" width="13.24" height="4.41"/><rect class="cls-11" x="1357.86" y="414.69" width="13.24" height="4.41"/><rect class="cls-11" x="1373.75" y="414.69" width="13.24" height="4.41"/><rect class="cls-11" x="1389.64" y="414.69" width="13.24" height="4.41"/><rect class="cls-11" x="1405.52" y="414.69" width="58.26" height="4.41"/><rect class="cls-6" x="1326.96" y="427.04" width="67.08" height="30.01"/><rect class="cls-5" x="1326.96" y="465.87" width="41.49" height="30.01"/><rect class="cls-5" x="1422.64" y="465.87" width="41.14" height="30.01"/><rect class="cls-5" x="1374.85" y="465.87" width="41.26" height="30.01"/><rect class="cls-2" x="1422.64" y="507.79" width="41.49" height="1.18"/><rect class="cls-2" x="1422.64" y="511.33" width="41.49" height="1.18"/><rect class="cls-2" x="1422.64" y="514.86" width="41.49" height="1.18"/><rect class="cls-2" x="1422.64" y="518.4" width="41.49" height="1.18"/><rect class="cls-2" x="1422.64" y="521.94" width="35.31" height="1.18"/><rect class="cls-2" x="1326.96" y="507.79" width="41.49" height="1.18"/><rect class="cls-2" x="1326.96" y="511.33" width="41.49" height="1.18"/><rect class="cls-2" x="1326.96" y="514.86" width="16.77" height="1.18"/><rect class="cls-2" x="1326.96" y="518.4" width="41.49" height="1.18"/><rect class="cls-2" x="1326.96" y="521.94" width="31.78" height="1.18"/><rect class="cls-2" x="1374.85" y="507.79" width="41.14" height="1.18"/><rect class="cls-2" x="1374.85" y="511.33" width="41.14" height="1.18"/><rect class="cls-2" x="1374.85" y="514.86" width="41.14" height="1.18"/><rect class="cls-2" x="1374.85" y="518.4" width="12.01" height="1.18"/><rect class="cls-2" x="1397.58" y="436.07" width="66.2" height="1.41"/><rect class="cls-2" x="1397.58" y="440.3" width="66.2" height="1.41"/><rect class="cls-2" x="1397.58" y="444.52" width="59.14" height="1.26"/><rect class="cls-2" x="1397.58" y="448.56" width="66.2" height="1.41"/><rect class="cls-2" x="1397.58" y="452.79" width="43.25" height="1.41"/><rect class="cls-7" x="1326.96" y="501.61" width="32.66" height="2.65"/><rect class="cls-7" x="1374.85" y="501.61" width="39.72" height="2.65"/><rect class="cls-7" x="1397.58" y="427.92" width="49.43" height="3.53"/><rect class="cls-7" x="1422.64" y="501.61" width="22.95" height="2.65"/><path class="cls-1" d="M1616.35,471.18,1600.4,429.7c-1.74-5.92-5-8.93-9.67-8.93h-39.8c-4.67,0-7.92,3-9.66,8.89l-14.49,41.52a13.76,13.76,0,0,0-1.29,5.8,14,14,0,0,0,13.93,13.93h64.29a13.9,13.9,0,0,0,12.64-19.73Z"/><path class="cls-9" d="M1550.93,427c-.91,0-2.42,0-3.74,4.48l0,.08-11,31.94a14.16,14.16,0,0,1,3.28-.4h32.14V427Z"/><path class="cls-5" d="M1607,463.46l-12.52-32c-1.33-4.53-2.84-4.53-3.74-4.53h-19.17v36.1h32.15A14.23,14.23,0,0,1,1607,463.46Z"/><path class="cls-5" d="M1539.42,469.25a7.74,7.74,0,1,0,0,15.47h32.14V469.25Z"/><path class="cls-4" d="M1611.44,477a7.74,7.74,0,0,0-7.73-7.73h-32.15v15.47h32.15A7.74,7.74,0,0,0,1611.44,477Z"/><circle class="cls-3" cx="1603.88" cy="475.09" r="3.09"/><path class="cls-1" d="M1117.28,237.73h-53.09v159h53.09a5.23,5.23,0,0,0,5.23-5.22V243A5.23,5.23,0,0,0,1117.28,237.73Z"/><path class="cls-2" d="M1010.16,237.73a5.23,5.23,0,0,0-5.23,5.23V391.47a5.23,5.23,0,0,0,5.23,5.22h54v-159Z"/><rect class="cls-3" x="1015.75" y="247.13" width="95.94" height="140.15"/><polygon class="cls-4" points="1090.06 255.6 1037.38 255.6 1033.62 233.97 1093.82 233.97 1090.06 255.6"/><rect class="cls-10" x="1025.62" y="269.71" width="75.25" height="4.7"/><rect class="cls-10" x="1025.62" y="278.18" width="31.98" height="4.7"/><rect class="cls-12" x="1025.62" y="290.4" width="3.76" height="3.76"/><rect class="cls-2" x="1034.09" y="290.87" width="54.56" height="2.82"/><rect class="cls-12" x="1025.62" y="296.99" width="3.76" height="3.76"/><rect class="cls-2" x="1034.09" y="297.46" width="66.78" height="2.82"/><rect class="cls-12" x="1025.62" y="303.57" width="3.76" height="3.76"/><rect class="cls-2" x="1034.09" y="304.04" width="48.91" height="2.82"/><rect class="cls-12" x="1025.62" y="310.16" width="3.76" height="3.76"/><rect class="cls-2" x="1034.09" y="310.63" width="60.2" height="2.82"/><rect class="cls-10" x="1025.62" y="324.27" width="75.25" height="4.7"/><rect class="cls-10" x="1025.62" y="332.73" width="50.79" height="4.7"/><rect class="cls-12" x="1025.62" y="344.96" width="3.76" height="3.76"/><rect class="cls-2" x="1034.09" y="345.43" width="63.02" height="2.82"/><rect class="cls-12" x="1025.62" y="351.54" width="3.76" height="3.76"/><rect class="cls-2" x="1034.09" y="352.01" width="48.91" height="2.82"/><rect class="cls-12" x="1025.62" y="358.13" width="3.76" height="3.76"/><rect class="cls-2" x="1034.09" y="358.6" width="44.21" height="2.82"/><rect class="cls-12" x="1025.62" y="364.71" width="3.76" height="3.76"/><rect class="cls-2" x="1034.09" y="365.18" width="58.32" height="2.82"/><polygon class="cls-4" points="1030.39 301.18 1028.83 299.42 1030.59 297.86 1029.34 296.45 1027.58 298.01 1026.02 296.25 1024.62 297.5 1026.18 299.26 1024.42 300.82 1025.67 302.23 1027.43 300.67 1028.99 302.43 1030.39 301.18"/><polygon class="cls-4" points="1030.39 362.32 1028.83 360.56 1030.59 359 1029.34 357.59 1027.58 359.15 1026.02 357.39 1024.62 358.64 1026.18 360.4 1024.42 361.96 1025.67 363.37 1027.43 361.81 1028.99 363.57 1030.39 362.32"/><polygon class="cls-5" points="469.31 697.14 419.12 675.26 419.12 789.38 469.31 811.26 469.31 697.14"/><polygon class="cls-5" points="528.14 789.38 578.32 811.26 578.32 697.14 528.14 675.26 528.14 789.38"/><path class="cls-13" d="M414.8,790.8a2.15,2.15,0,0,0,1.3,2l54.51,23.77.16.05.15,0a2.09,2.09,0,0,0,.55.08,2,2,0,0,0,.54-.08l.15,0,.17-.05L526,793.16l53.64,23.39a2.18,2.18,0,0,0,.86.18,2.18,2.18,0,0,0,2.17-2.16V695.73a2.15,2.15,0,0,0-1.3-2L526.84,670l-.08,0-.26-.07a2.44,2.44,0,0,0-.26-.06h-.53l-.24,0-.28.08-.08,0-53.64,23.39L417.83,670a2.16,2.16,0,0,0-3,2Zm109-1.42-50.18,21.89V697.14l50.18-21.88ZM419.12,675.26l50.19,21.88V811.27l-50.19-21.89Zm159.2,136-50.18-21.89V675.26l50.18,21.88Z"/><polygon class="cls-10" points="473.63 697.14 473.63 811.26 523.82 789.38 523.82 675.26 473.63 697.14"/><path class="cls-1" d="M502.5,763.43c-1,2.41-3.44,3.31-4.44,1.61L488,747.61c-5.17-9.24,1.22-24.69,11.85-27.91l.54-.15.53-.13c10.61-2.41,16.86,8.63,11.67,20.38Z"/><path class="cls-3" d="M500.33,725.55c-4.82,1.33-8.73,7.06-8.74,12.8s3.86,9.16,8.66,7.64,8.7-7.25,8.74-12.8S505.15,724.22,500.33,725.55Z"/><path class="cls-6" d="M758.68,219.23a6.82,6.82,0,0,1-4.77,2,7,7,0,0,1-4.82-2l-5.61-5.72a6.65,6.65,0,0,1-2-4.77,6.85,6.85,0,0,1,2-4.81l36.06-36.07a27.31,27.31,0,0,0,15.25,15.25ZM757.3,202a3.39,3.39,0,1,0,3.39,3.39A3.41,3.41,0,0,0,757.3,202Z"/><path class="cls-8" d="M827.15,165.69a23.72,23.72,0,1,1-22.4-31.51c3.86,0,8.9,1.17,12.13,3.34a1.74,1.74,0,0,1,.84,1.48,1.9,1.9,0,0,1-.84,1.48l-15.52,9v11.86L811.58,167c1.75-1,14-8.74,15.09-8.74a1.69,1.69,0,0,1,1.7,1.86A19.14,19.14,0,0,1,827.15,165.69Z"/><rect class="cls-1" x="562.09" y="392.46" width="24.64" height="4.3" rx="2" ry="2" transform="translate(-110.79 521.75) rotate(-45)"/><rect class="cls-1" x="566.15" y="396.51" width="24.64" height="4.3" rx="2" ry="2" transform="translate(-112.47 525.8) rotate(-45)"/><rect class="cls-1" x="573.16" y="400.57" width="18.72" height="4.3" rx="2.05" ry="2.05" transform="translate(-114.15 529.86) rotate(-45)"/><path class="cls-5" d="M536.23,325.05a32.23,32.23,0,0,0-23.44,11.19,32.52,32.52,0,0,0,32.66,52.81,2.5,2.5,0,0,1,2.42.62l7.29,7.29a7.84,7.84,0,0,0,11.07,0l10.48-10.48a7.92,7.92,0,0,0,0-11.18L569.38,368a2.23,2.23,0,0,1-.57-2.17,32.52,32.52,0,0,0-32.58-40.75Z"/><polygon class="cls-3" points="542.18 366.38 546.19 362.37 570.13 387.49 567.3 390.32 542.18 366.38"/><path class="cls-3" d="M546.23,359.54l-1.35-1.43c-.14-.14-3.45-3.52-.7-6.27s4.14-1.44,5.58,0c.89.89,1.8,2.38-.7,4.87Z"/><path class="cls-3" d="M565,364.8a6.22,6.22,0,0,0,1.59,6l7.33,7.33a4,4,0,0,1,0,5.61l-2.4,2.4L547.58,361l2.87-2.87c3.64-3.64,2-6.37.7-7.67s-4.18-4.18-8.36,0c-3.31,3.31-1,7.37.67,9l1.38,1.46-4.1,4.09-1.43-1.35c-1.69-1.69-5.76-4-9.06-.69-4.18,4.18-1.36,7,0,8.36s4,2.94,7.66-.7l2.87-2.87,25.12,23.94-2.45,2.45a3.89,3.89,0,0,1-5.5,0l-7.29-7.29a6.5,6.5,0,0,0-6.19-1.65,28.58,28.58,0,0,1-28.71-46.4c.45-.52.92-1,1.4-1.5a28.26,28.26,0,0,1,19.2-8.34A28.58,28.58,0,0,1,565,364.8Z"/><path class="cls-3" d="M539.35,366.43l-2.83,2.83c-2.5,2.49-4,1.59-4.88.69-1.43-1.43-2.79-2.78,0-5.57s6.13.56,6.29.72Z"/><path class="cls-1" d="M1244.34,453.49a3.95,3.95,0,1,0,0-7.89h-68a3.95,3.95,0,1,0,0,7.89Z"/><path class="cls-1" d="M1244.34,544a3.95,3.95,0,1,1,0,7.89h-68a3.95,3.95,0,1,1,0-7.89Z"/><path class="cls-3" d="M1236.39,544c-1-21.27-9.57-38.61-21.4-43.17a2.39,2.39,0,0,1,0-4.12c11.84-4.56,20.44-21.9,21.41-43.17H1184.3c1,20.89,9.36,38.16,20.93,43a2.19,2.19,0,0,1,1.14,2v.38a2.19,2.19,0,0,1-1.14,2c-11.57,4.83-20,22.1-20.93,43Z"/><path class="cls-11" d="M1231.14,453.32c-.81,19.78-8,36.44-17.59,40.51a5.66,5.66,0,0,0,0,9.79c9.55,4.06,16.78,20.72,17.59,40.51l-41.59,0c.8-19.43,7.89-36,17.23-40.33a5.29,5.29,0,0,0,2.72-4.85v-.38a5.29,5.29,0,0,0-2.72-4.85c-9.34-4.32-16.43-20.9-17.23-40.33Z"/><path class="cls-4" d="M1231,542c-2.44-2.95-13.49-12.3-20-13.58a1,1,0,0,1-.33-.38,1.2,1.2,0,0,1-.12-.51l.11-28.73s0-.08,0-.12a5.21,5.21,0,0,1,2.82-4.89c.31-.14.62-.28.93-.44l.29-.17.62-.35.33-.22.57-.38.34-.25.55-.43.32-.27.55-.48.3-.29c.19-.18.38-.36.56-.55l.27-.28.58-.63.23-.27c.21-.24.41-.49.61-.74l.18-.23c.22-.28.44-.58.66-.88l.11-.15a43.37,43.37,0,0,0,4.83-9.2c-3.69,2.15-11.69,6.83-16.34,6.83-4.48,0-12.17-4.34-15.62-6.58,3.09,7.78,7.41,13.52,12.36,15.81a5.29,5.29,0,0,1,2.72,4.85v.38a6.07,6.07,0,0,1-.27,1.77l.19,27.19a1,1,0,0,1-.41.82c-3.37.2-16.12,9.55-19.33,13.07,0,.78-.1,1.55-.13,2.33l41.59,0C1231.11,543.43,1231.07,542.73,1231,542Z"/><path class="cls-9" d="M1245.19,780.8c-2.28-1.36-9.58-4.07-14.28,2.33,7-.06,9.28.85,11.55,3.58C1242.91,784.89,1243.74,782,1245.19,780.8Z"/><circle class="cls-14" cx="1239.72" cy="793.73" r="19.1" transform="translate(-167.16 360.6) rotate(-15.52)"/><path class="cls-10" d="M1258.16,775.64a25.84,25.84,0,1,0-2.94,38.76l3,3,5.16-5.16-3-3A25.86,25.86,0,0,0,1258.16,775.64Zm-32.07,31.47a19.1,19.1,0,1,1,27,.26A19.12,19.12,0,0,1,1226.09,807.11Z"/><rect class="cls-1" x="1266.65" y="808.86" width="16.85" height="40.45" rx="4.34" ry="4.34" transform="translate(-212.79 1144.45) rotate(-45)"/><path class="cls-8" d="M669.61,793.14l-.19-1.6a1.7,1.7,0,0,1,1.59-1.89c.93-.06,1.86-.08,2.79-.07a1.71,1.71,0,0,1,1.67,1.83l-.12,1.61a1.7,1.7,0,0,0,1.48,1.8q1.13.13,2.22.36a1.7,1.7,0,0,0,2-1.23l.41-1.56a1.7,1.7,0,0,1,2.16-1.2c.88.29,1.76.6,2.62.95a1.72,1.72,0,0,1,.9,2.31l-.69,1.46a1.69,1.69,0,0,0,.73,2.21c.66.36,1.3.73,1.93,1.13a1.69,1.69,0,0,0,2.29-.43l.94-1.31a1.71,1.71,0,0,1,2.45-.34c.72.58,1.43,1.19,2.1,1.83a1.7,1.7,0,0,1,0,2.47l-1.16,1.11a1.69,1.69,0,0,0-.11,2.33c.48.56.95,1.15,1.39,1.76a1.69,1.69,0,0,0,2.29.41l1.35-.88a1.71,1.71,0,0,1,2.41.57c.47.81.9,1.63,1.3,2.47a1.7,1.7,0,0,1-.88,2.31l-1.53.63a1.7,1.7,0,0,0-1,2.09c.24.74.48,1.54.67,2.2a1.69,1.69,0,0,0,2,1.19l1.63-.34a1.7,1.7,0,0,1,2,1.39c.14.92.25,1.84.33,2.77a1.7,1.7,0,0,1-1.65,1.83l-1.62.05a1.69,1.69,0,0,0-1.65,1.64c0,.75-.07,1.5-.15,2.24a1.69,1.69,0,0,0,1.42,1.85l1.59.26a1.7,1.7,0,0,1,1.4,2c-.2.91-.43,1.81-.7,2.7a1.7,1.7,0,0,1-2.2,1.11l-1.52-.54a1.7,1.7,0,0,0-2.14.94c-.29.69-.6,1.37-.94,2a1.7,1.7,0,0,0,.65,2.24l1.4.81a1.69,1.69,0,0,1,.56,2.4c-.5.78-1,1.54-1.61,2.27a1.71,1.71,0,0,1-2.46.25l-1.22-1.06a1.7,1.7,0,0,0-2.32.11q-.78.81-1.62,1.56a1.7,1.7,0,0,0-.2,2.32l1,1.26a1.71,1.71,0,0,1-.33,2.45c-.76.54-1.54,1.06-2.34,1.54a1.71,1.71,0,0,1-2.38-.66l-.76-1.43a1.7,1.7,0,0,0-2.21-.74q-1,.48-2.07.87a1.69,1.69,0,0,0-1,2.09l.49,1.55a1.7,1.7,0,0,1-1.18,2.15l-1.24.3c-.5.11-1,.21-1.51.3a1.7,1.7,0,0,1-2-1.47l-.2-1.61a1.69,1.69,0,0,0-1.79-1.48c-.75.05-1.5.08-2.25.07a1.68,1.68,0,0,0-1.7,1.58l-.1,1.62a1.71,1.71,0,0,1-1.9,1.59c-.92-.11-1.85-.26-2.76-.44a1.7,1.7,0,0,1-1.32-2.09l.4-1.56a1.7,1.7,0,0,0-1.14-2c-.72-.22-1.42-.47-2.12-.74a1.69,1.69,0,0,0-2.16.86l-.68,1.47a1.69,1.69,0,0,1-2.33.79c-.83-.43-1.63-.89-2.41-1.39a1.69,1.69,0,0,1-.48-2.42l.93-1.32a1.68,1.68,0,0,0-.34-2.3c-.58-.47-1.15-1-1.7-1.46a1.69,1.69,0,0,0-2.33,0L649.6,847a1.69,1.69,0,0,1-2.46-.1c-.62-.7-1.2-1.42-1.76-2.17a1.7,1.7,0,0,1,.43-2.43l1.35-.9a1.7,1.7,0,0,0,.52-2.27c-.38-.64-.74-1.3-1.07-2a1.7,1.7,0,0,0-2.18-.81L643,837a1.69,1.69,0,0,1-2.27-1c-.34-1-.68-2.17-.94-3.09a1.7,1.7,0,0,1,1.29-2.12l1.53-.32a1.69,1.69,0,0,0,1.33-1.91c-.11-.74-.2-1.49-.25-2.22a1.69,1.69,0,0,0-1.72-1.57l-1.62,0A1.71,1.71,0,0,1,638.6,823q0-1.4.21-2.79a1.7,1.7,0,0,1,2-1.49l1.6.27a1.69,1.69,0,0,0,1.93-1.3c.16-.73.36-1.45.57-2.16a1.68,1.68,0,0,0-1-2.09l-1.52-.56a1.71,1.71,0,0,1-1-2.27c.37-.85.77-1.69,1.2-2.51a1.7,1.7,0,0,1,2.37-.67l1.39.82a1.7,1.7,0,0,0,2.28-.52c.41-.62.85-1.22,1.31-1.81a1.7,1.7,0,0,0-.22-2.32l-1.21-1.06a1.7,1.7,0,0,1-.1-2.47c.64-.67,1.32-1.31,2-1.92a1.7,1.7,0,0,1,2.46.22l1,1.27a1.68,1.68,0,0,0,2.3.33c.61-.42,1.24-.83,1.88-1.21a1.7,1.7,0,0,0,.64-2.25l-.75-1.43a1.7,1.7,0,0,1,.8-2.33c.85-.39,1.71-.75,2.59-1.06a1.7,1.7,0,0,1,2.21,1.1l.47,1.54a1.68,1.68,0,0,0,2,1.15l.78-.19c.47-.1,1-.19,1.42-.27A1.71,1.71,0,0,0,669.61,793.14Zm-8.47,33.73a12.32,12.32,0,1,0,9.37-14.69A12.32,12.32,0,0,0,661.14,826.87Z"/><path class="cls-10" d="M708.79,751.41a19.92,19.92,0,0,1,2.8,1.22,1.09,1.09,0,0,0,1.45-.44l.69-1.15a1.1,1.1,0,0,1,1.58-.36,23.47,23.47,0,0,1,2.87,2.2,1.12,1.12,0,0,1,.07,1.62l-.94,1a1.1,1.1,0,0,0,0,1.52,21.78,21.78,0,0,1,1.9,2.38,1.09,1.09,0,0,0,1.49.3l1.14-.7a1.11,1.11,0,0,1,1.55.39,23.27,23.27,0,0,1,1.54,3.37,1.11,1.11,0,0,1-.72,1.43l-1.28.4a1.11,1.11,0,0,0-.75,1.33,21,21,0,0,1,.56,3,1.11,1.11,0,0,0,1.18,1l1.27-.08a1.12,1.12,0,0,1,1.19,1.14c0,1-.08,2.4-.19,3.54a1.12,1.12,0,0,1-1.31,1l-1.28-.24a1.12,1.12,0,0,0-1.29.82,20.51,20.51,0,0,1-.92,2.91,1.11,1.11,0,0,0,.59,1.4l1.21.56a1.12,1.12,0,0,1,.53,1.54,25.8,25.8,0,0,1-1.89,3.09,1.12,1.12,0,0,1-1.61.23l-1-.84a1.12,1.12,0,0,0-1.52.12,21.92,21.92,0,0,1-2.17,2.14,1.09,1.09,0,0,0-.14,1.51l.82,1.06a1.12,1.12,0,0,1-.23,1.59,23.21,23.21,0,0,1-3.19,1.88,1.1,1.1,0,0,1-1.49-.56l-.54-1.24a1.1,1.1,0,0,0-1.39-.6,22,22,0,0,1-2.93.86,1.13,1.13,0,0,0-.84,1.28l.22,1.32a1.12,1.12,0,0,1-1,1.29c-.74.09-1.48.14-2.23.16h-1.38a1.12,1.12,0,0,1-1.08-1.21l.1-1.32a1.12,1.12,0,0,0-.95-1.2,21.1,21.1,0,0,1-3-.6,1.1,1.1,0,0,0-1.33.73l-.43,1.26a1.13,1.13,0,0,1-1.48.69,23.93,23.93,0,0,1-3.27-1.57,1.12,1.12,0,0,1-.4-1.57l.72-1.13a1.1,1.1,0,0,0-.27-1.49,19.93,19.93,0,0,1-2.35-1.95,1.11,1.11,0,0,0-1.52,0l-1,.92a1.13,1.13,0,0,1-1.63-.09,24.16,24.16,0,0,1-2.15-2.9,1.13,1.13,0,0,1,.38-1.59l1.17-.66a1.09,1.09,0,0,0,.45-1.45,20.6,20.6,0,0,1-1.16-2.82,1.13,1.13,0,0,0-1.36-.7l-1.29.36a1.11,1.11,0,0,1-1.38-.8,25,25,0,0,1-.54-3.66,1.11,1.11,0,0,1,1.09-1.18l1.34,0a1.11,1.11,0,0,0,1.08-1.07c0-.52,0-1,.09-1.55a1.11,1.11,0,0,0-.94-1.2l-1.33-.19a1.12,1.12,0,0,1-.93-1.34,23.54,23.54,0,0,1,1-3.5,1.14,1.14,0,0,1,1.49-.67l1.24.52a1.1,1.1,0,0,0,1.42-.53,21.64,21.64,0,0,1,1.5-2.66,1.1,1.1,0,0,0-.28-1.49l-1.08-.8a1.13,1.13,0,0,1-.19-1.62,24.65,24.65,0,0,1,2.49-2.62,1.12,1.12,0,0,1,1.62.11l.86,1a1.1,1.1,0,0,0,1.5.2,21.59,21.59,0,0,1,2.57-1.65,1.09,1.09,0,0,0,.45-1.45l-.57-1.21a1.11,1.11,0,0,1,.54-1.5,24.37,24.37,0,0,1,3.53-1.18,1.11,1.11,0,0,1,1.34.87l.27,1.32a1.1,1.1,0,0,0,1.24.88,20.58,20.58,0,0,1,2.61-.24h.4a1.14,1.14,0,0,0,1.1-1.09l.05-1.31a1.13,1.13,0,0,1,1.23-1.07,23.89,23.89,0,0,1,3.58.6,1.12,1.12,0,0,1,.82,1.4l-.38,1.29A1.11,1.11,0,0,0,708.79,751.41Zm-14.5,20a7.58,7.58,0,1,0,7.38-7.78A7.58,7.58,0,0,0,694.29,771.43Z"/><path class="cls-5" d="M666.62,767.57l0,0a1.38,1.38,0,0,0,.77,1.65,8.63,8.63,0,0,1,1.78,1.1,1.36,1.36,0,0,0,1.81,0l.12-.11a1.36,1.36,0,0,1,2,.16,11.91,11.91,0,0,1,1.43,2.68,1.36,1.36,0,0,1-1,1.77l-.27.06a1.36,1.36,0,0,0-1,1.39,19.64,19.64,0,0,1,0,2.28,1.38,1.38,0,0,0,1,1.43l.2.06a1.36,1.36,0,0,1,.86,1.83,12.46,12.46,0,0,1-1.61,2.57,1.35,1.35,0,0,1-2,0l-.11-.12a1.39,1.39,0,0,0-1.82-.16,8.18,8.18,0,0,1-1.85,1,1.38,1.38,0,0,0-.88,1.59h0a1.36,1.36,0,0,1-1.29,1.66,22.52,22.52,0,0,1-2.7,0,1.36,1.36,0,0,1-1.17-1.76l0-.06a1.37,1.37,0,0,0-.75-1.65,8.86,8.86,0,0,1-1.77-1.13,1.37,1.37,0,0,0-1.81,0l-.12.11a1.36,1.36,0,0,1-2-.19,11.86,11.86,0,0,1-1.4-2.69,1.35,1.35,0,0,1,1-1.76l.15,0a1.38,1.38,0,0,0,1.06-1.48,8.66,8.66,0,0,1,.07-1.91,1.38,1.38,0,0,0-1-1.54l-.16,0a1.35,1.35,0,0,1-.87-1.82,11.17,11.17,0,0,1,1.58-2.58,1.34,1.34,0,0,1,2-.05l.11.12a1.39,1.39,0,0,0,1.81.14,8.67,8.67,0,0,1,1.85-1,1.37,1.37,0,0,0,.86-1.59h0a1.36,1.36,0,0,1,1.27-1.68,24.29,24.29,0,0,1,2.69,0A1.36,1.36,0,0,1,666.62,767.57Zm-7.76,10.61a5,5,0,1,0,3.81-6A5,5,0,0,0,658.86,778.18Z"/><circle class="cls-1" cx="701.75" cy="771.17" r="2.76"/><circle class="cls-1" cx="663.74" cy="777.1" r="1.58"/><circle class="cls-1" cx="673.2" cy="824.29" r="5.15"/><polygon class="cls-1" points="1174.03 327.01 1183.71 329.92 1183.71 324.1 1174.03 327.01"/><polygon class="cls-3" points="1201.91 318.63 1183.71 324.1 1183.71 329.92 1201.91 335.38 1201.91 318.63"/><rect class="cls-5" x="1272.92" y="256.06" width="8.53" height="150.55" transform="translate(945.85 1608.53) rotate(-90)"/><rect class="cls-9" x="1272.92" y="247.53" width="8.53" height="150.55" transform="translate(954.38 1599.99) rotate(-90)"/><path class="cls-1" d="M1352.47,335.61a8.54,8.54,0,0,0,0-17.07Z"/><rect class="cls-1" x="1334.26" y="318.54" width="3.98" height="17.07"/><path class="cls-1" d="M1383.85,717l-3.4-18.21a74.48,74.48,0,0,0-59.83,59.64l18.43,3.28A55.68,55.68,0,0,1,1383.85,717Z"/><path class="cls-1" d="M1448.31,761.72l18.43-3.28a74.47,74.47,0,0,0-59.59-59.59l-3.24,18.23A55.7,55.7,0,0,1,1448.31,761.72Z"/><path class="cls-1" d="M1339.07,781.69l-18.5,3.45A74.47,74.47,0,0,0,1380.45,845l3.49-18.69A55.66,55.66,0,0,1,1339.07,781.69Z"/><path class="cls-1" d="M1403.82,826.25l3.33,18.72a74.48,74.48,0,0,0,59.63-59.83l-18.49-3.45A55.67,55.67,0,0,1,1403.82,826.25Z"/><path class="cls-7" d="M1387,734.11l-3.19-17.1a55.68,55.68,0,0,0-44.8,44.71l17.12,3A38.25,38.25,0,0,1,1387,734.11Z"/><path class="cls-7" d="M1403.91,717.08l-3.05,17.12a38.23,38.23,0,0,1,30.32,30.56l17.13-3A55.7,55.7,0,0,0,1403.91,717.08Z"/><path class="cls-7" d="M1400.78,809.13l3,17.12a55.67,55.67,0,0,0,44.47-44.56l-17.09-3.19A38.25,38.25,0,0,1,1400.78,809.13Z"/><path class="cls-7" d="M1356.16,778.5l-17.09,3.19a55.66,55.66,0,0,0,44.87,44.63l3.19-17.09A38.24,38.24,0,0,1,1356.16,778.5Z"/><path class="cls-15" d="M1393.68,716.12a55.69,55.69,0,0,1,10.23,1l3.24-18.23a73.84,73.84,0,0,0-13.47-1.25,74.83,74.83,0,0,0-13.23,1.2l3.4,18.21A55.81,55.81,0,0,1,1393.68,716.12Z"/><path class="cls-3" d="M1393.68,733.52a38.59,38.59,0,0,1,7.18.68l3.05-17.12a54.86,54.86,0,0,0-20.06-.07l3.19,17.1A38.14,38.14,0,0,1,1393.68,733.52Z"/><polygon class="cls-3" points="1394.09 771.91 1394.13 771.72 1394.16 771.91 1394.21 771.6 1394.03 771.56 1394.09 771.91"/><path class="cls-15" d="M1393.68,827.19a55.74,55.74,0,0,1-9.74-.87L1380.45,845a73.07,73.07,0,0,0,26.7,0l-3.33-18.72A55.59,55.59,0,0,1,1393.68,827.19Z"/><path class="cls-3" d="M1393.68,809.8a38.17,38.17,0,0,1-6.55-.57l-3.19,17.09a55.06,55.06,0,0,0,19.88-.07l-3-17.12A38.66,38.66,0,0,1,1393.68,809.8Z"/><polygon class="cls-3" points="1394.09 771.91 1394.13 772.1 1394.16 771.91 1394.13 771.72 1394.09 771.91"/><path class="cls-15" d="M1338.14,771.66a56.1,56.1,0,0,1,.91-9.94l-18.43-3.28a73.84,73.84,0,0,0-1.25,13.47,74.91,74.91,0,0,0,1.2,13.23l18.5-3.45A55.36,55.36,0,0,1,1338.14,771.66Z"/><path class="cls-3" d="M1355.54,771.66a38.25,38.25,0,0,1,.63-6.9l-17.12-3a56.1,56.1,0,0,0-.91,9.94,55.36,55.36,0,0,0,.93,10l17.09-3.19A38.58,38.58,0,0,1,1355.54,771.66Z"/><path class="cls-15" d="M1466.74,758.44l-18.43,3.28a56.1,56.1,0,0,1,.9,9.94,55.36,55.36,0,0,1-.92,10l18.49,3.45a73.07,73.07,0,0,0,0-26.7Z"/><path class="cls-3" d="M1431.82,771.66a38.58,38.58,0,0,1-.62,6.84l17.09,3.19a55.36,55.36,0,0,0,.92-10,56.1,56.1,0,0,0-.9-9.94l-17.13,3A37.36,37.36,0,0,1,1431.82,771.66Z"/><polygon class="cls-3" points="1393.87 771.46 1393.68 771.5 1394.03 771.56 1393.99 771.37 1393.68 771.43 1393.87 771.46"/><polygon class="cls-3" points="1394.21 771.6 1394.26 771.33 1393.99 771.37 1394.03 771.56 1394.21 771.6"/><path class="cls-15" d="M794.85,267.58a61.73,61.73,0,0,0,61.73,61.73V205.85A61.73,61.73,0,0,0,794.85,267.58Z"/><path class="cls-9" d="M918.3,267.58a61.72,61.72,0,0,0-61.72-61.73V329.31A61.72,61.72,0,0,0,918.3,267.58Z"/><polygon class="cls-3" points="865.94 273.41 896.26 267.58 865.94 261.74 873.33 250.82 862.41 258.22 856.58 227.9 850.74 258.22 839.82 250.82 847.22 261.74 816.89 267.58 847.22 273.41 839.82 284.33 850.74 276.94 856.58 307.26 862.41 276.94 873.33 284.33 865.94 273.41"/><polygon class="cls-8" points="848.76 275.19 895.33 306.72 856.28 267.67 848.76 275.19"/><polygon class="cls-6" points="817.23 228.62 848.76 275.19 856.28 267.67 817.23 228.62"/><polygon class="cls-4" points="863.79 260.16 856.28 267.67 895.33 306.72 895.33 306.72 863.79 260.16"/><polygon class="cls-5" points="863.79 260.16 817.23 228.62 817.23 228.62 856.28 267.67 863.79 260.16"/><circle class="cls-2" cx="856.58" cy="267.58" r="4.41"/><circle class="cls-3" cx="856.58" cy="209.52" r="1.47"/><circle class="cls-3" cx="856.58" cy="325.63" r="1.47"/><circle class="cls-3" cx="846.5" cy="210.41" r="1.47"/><circle class="cls-3" cx="866.66" cy="324.75" r="1.47"/><circle class="cls-3" cx="836.72" cy="213.03" r="1.47"/><circle class="cls-3" cx="876.43" cy="322.13" r="1.47"/><circle class="cls-3" cx="827.55" cy="217.3" r="1.47"/><circle class="cls-3" cx="885.6" cy="317.85" r="1.47"/><circle class="cls-3" cx="819.26" cy="223.11" r="1.47"/><circle class="cls-3" cx="893.89" cy="312.05" r="1.47"/><circle class="cls-3" cx="812.11" cy="230.26" r="1.47"/><circle class="cls-3" cx="901.05" cy="304.89" r="1.47"/><circle class="cls-3" cx="806.3" cy="238.55" r="1.47"/><circle class="cls-3" cx="906.85" cy="296.6" r="1.47"/><circle class="cls-3" cx="802.02" cy="247.72" r="1.47"/><circle class="cls-3" cx="911.13" cy="287.43" r="1.47"/><circle class="cls-3" cx="799.41" cy="257.5" r="1.47"/><circle class="cls-3" cx="913.75" cy="277.66" r="1.47"/><circle class="cls-3" cx="798.52" cy="267.58" r="1.47"/><circle class="cls-3" cx="914.63" cy="267.58" r="1.47"/><circle class="cls-3" cx="799.41" cy="277.66" r="1.47"/><circle class="cls-3" cx="913.75" cy="257.5" r="1.47"/><circle class="cls-3" cx="802.02" cy="287.43" r="1.47"/><circle class="cls-3" cx="911.13" cy="247.72" r="1.47"/><circle class="cls-3" cx="806.3" cy="296.6" r="1.47"/><circle class="cls-3" cx="906.85" cy="238.55" r="1.47"/><circle class="cls-3" cx="812.11" cy="304.89" r="1.47"/><circle class="cls-3" cx="901.05" cy="230.26" r="1.47"/><circle class="cls-3" cx="819.26" cy="312.05" r="1.47"/><circle class="cls-3" cx="893.89" cy="223.11" r="1.47"/><circle class="cls-3" cx="827.55" cy="317.85" r="1.47"/><circle class="cls-3" cx="885.6" cy="217.3" r="1.47"/><circle class="cls-3" cx="836.72" cy="322.13" r="1.47"/><circle class="cls-3" cx="876.43" cy="213.03" r="1.47"/><circle class="cls-3" cx="846.5" cy="324.75" r="1.47"/><circle class="cls-3" cx="866.66" cy="210.41" r="1.47"/><circle class="cls-4" cx="856.58" cy="267.58" r="1.47"/><path class="cls-8" d="M794.85,267.58a61.73,61.73,0,0,1,61.73-61.73V192.62a75,75,0,1,0,0,149.91V329.31A61.73,61.73,0,0,1,794.85,267.58Z"/><path class="cls-1" d="M931.53,267.58a75,75,0,0,0-74.95-75v13.23a61.73,61.73,0,0,1,0,123.46v13.22A75,75,0,0,0,931.53,267.58Z"/><path class="cls-5" d="M659,627.6v-1.48a3,3,0,0,0-3-3H627.54a3,3,0,0,0-3,3l6.07,76.18H728a3,3,0,0,0,3-3l-6-65.75a3,3,0,0,0-3-3H662A3,3,0,0,1,659,627.6Z"/><path class="cls-10" d="M731.11,702.3H630.62l.59-3s0,0,0,0L642.85,644a3.06,3.06,0,0,1,3.06-3.06h94.28a3.06,3.06,0,0,1,3.06,3s0,0,0,0l-12.13,57.83Z"/><polygon class="cls-1" points="654.59 628.62 629.67 628.62 629.41 626.3 654.32 626.3 654.59 628.62"/><rect class="cls-1" x="390.59" y="533.7" width="84.55" height="16.91"/><polygon class="cls-3" points="458.23 635.16 390.59 635.16 390.59 550.61 475.14 550.61 475.14 618.25 458.23 635.16"/><polygon class="cls-15" points="475.14 635.16 475.14 618.25 458.23 635.16 475.14 635.16"/><path class="cls-8" d="M390.59,533.7v8.8h17.92a4.74,4.74,0,1,1,9.47,0h29.77a4.74,4.74,0,1,1,9.47,0h17.92v-8.8Z"/><path class="cls-15" d="M413.25,544.53a2,2,0,0,1-2-2h-2.71a4.74,4.74,0,0,0,9.47,0h-2.7A2,2,0,0,1,413.25,544.53Z"/><path class="cls-11" d="M413.25,537.76a4.74,4.74,0,0,0-4.74,4.74h2.71a2,2,0,0,1,4.06,0H418A4.74,4.74,0,0,0,413.25,537.76Z"/><path class="cls-15" d="M452.48,544.53a2,2,0,0,1-2-2h-2.7a4.74,4.74,0,0,0,9.47,0h-2.71A2,2,0,0,1,452.48,544.53Z"/><path class="cls-11" d="M452.48,537.76a4.74,4.74,0,0,0-4.73,4.74h2.7a2,2,0,0,1,4.06,0h2.71A4.74,4.74,0,0,0,452.48,537.76Z"/><path class="cls-6" d="M413.25,544.53a2,2,0,0,0,2-2h-4.06A2,2,0,0,0,413.25,544.53Z"/><path class="cls-10" d="M413.25,540.47a2,2,0,0,0-2,2h4.06A2,2,0,0,0,413.25,540.47Z"/><path class="cls-6" d="M452.48,544.53a2,2,0,0,0,2-2h-4.06A2,2,0,0,0,452.48,544.53Z"/><path class="cls-10" d="M452.48,540.47a2,2,0,0,0-2,2h4.06A2,2,0,0,0,452.48,540.47Z"/><rect class="cls-5" x="412.91" y="570.23" width="10.82" height="10.82" rx="1.45" ry="1.45"/><rect class="cls-5" x="427.79" y="570.23" width="10.82" height="10.82" rx="1.45" ry="1.45"/><rect class="cls-5" x="442.67" y="570.23" width="10.82" height="10.82" rx="1.45" ry="1.45"/><rect class="cls-5" x="457.55" y="570.23" width="10.82" height="10.82" rx="1.45" ry="1.45"/><rect class="cls-5" x="398.03" y="583.76" width="10.82" height="10.82" rx="1.45" ry="1.45"/><rect class="cls-5" x="412.91" y="583.76" width="10.82" height="10.82" rx="1.45" ry="1.45"/><rect class="cls-5" x="427.79" y="583.76" width="10.82" height="10.82" rx="1.45" ry="1.45"/><rect class="cls-5" x="442.67" y="583.76" width="10.82" height="10.82" rx="1.45" ry="1.45"/><rect class="cls-5" x="457.55" y="583.76" width="10.82" height="10.82" rx="1.45" ry="1.45"/><rect class="cls-5" x="398.03" y="597.28" width="10.82" height="10.82" rx="1.45" ry="1.45"/><rect class="cls-5" x="412.91" y="597.28" width="10.82" height="10.82" rx="1.45" ry="1.45"/><rect class="cls-5" x="427.79" y="597.28" width="10.82" height="10.82" rx="1.45" ry="1.45"/><rect class="cls-7" x="442.67" y="597.28" width="10.82" height="10.82" rx="1.45" ry="1.45"/><rect class="cls-5" x="457.55" y="597.28" width="10.82" height="10.82" rx="1.45" ry="1.45"/><rect class="cls-5" x="398.03" y="610.81" width="10.82" height="10.82" rx="1.45" ry="1.45"/><rect class="cls-5" x="412.91" y="610.81" width="10.82" height="10.82" rx="1.45" ry="1.45"/><rect class="cls-5" x="427.79" y="610.81" width="10.82" height="10.82" rx="1.45" ry="1.45"/><rect class="cls-1" x="398.03" y="558.59" width="43.97" height="6.76"/><polygon class="cls-11" points="458.23 618.25 458.23 635.16 475.14 618.25 458.23 618.25"/><path class="cls-5" d="M483.39,641.35H398.81l-8.25-6.19h84.58Z"/><polygon class="cls-9" points="475.14 550.66 475.14 635.16 483.39 641.35 483.39 556.85 475.14 550.66"/><polygon class="cls-2" points="475.14 533.7 475.14 550.64 483.39 556.83 483.39 539.89 475.14 533.7"/><path class="cls-10" d="M867.13,729.5,864,732.68a58.75,58.75,0,0,1-83.09,83.09L777.68,819c11,11,26.92,17,41.34,18.16v16.36l10.71-.16V837a63.19,63.19,0,0,0,37.39-107.5Z"/><path class="cls-9" d="M874.17,772.59a2,2,0,0,1-.12.24l-.82,4.13c-.47,2.32.11,2.68.64,3.29a53.29,53.29,0,0,0,.35-6C874.22,773.72,874.19,773.16,874.17,772.59Z"/><path class="cls-9" d="M873.53,782.73c0-.13.05-.26.07-.39S873.48,782.42,873.53,782.73Z"/><path class="cls-9" d="M828.53,753.42c2.79,2.06,2.17-.83,4.23-2.89s0,0-4.23-7c-1.17-1.94-2.79-5-2.93-2.48a2.34,2.34,0,0,1-1.13,2v6.72A31.37,31.37,0,0,0,828.53,753.42Z"/><path class="cls-9" d="M864.56,789.34c-2.07-6.6,2.47,1.24,3.71-3.3s0,0,.83-2.89,0,0-.83-7.43,0,0-4.54.41,0,0-3.3,5.37-3.72,4.54-3.72,4.54l-1.65-5.78c-1.65-5.78,2.89-2.48,0-11.56s0,0-5-4.13,0,0-5-2.91a10.51,10.51,0,0,1-2.48-1.9c0,2.21,0,0,.27,4.81s1.38,2.06,0,4.54-1.92,2.07-7.7.83,0,0-2.89-5.78c-1-1.9-1.32-2.33-1.45-2.37,0,.26-.12,0,0,0a23.37,23.37,0,0,0-.62-4.65c-.48-2.67-.7-1-1.25-.78a.76.76,0,0,0-.5.78l.11,1.12s-.33.41,0,1.4c.23.79.41.63.4,1.3,0,.4-.28.42-.46,1-.29.94.27,1.54,0,1.85s.14.55,0,.74a1,1,0,0,0,.23.89c.87.75-.16.79,0,1.29.2.92.21.41.46.72s-.24.13,0,.41-.87,1.2-.65,2.09c.13.5.58.53,1.49,1.29s.78,1,1.72,1.91c1.16,1.12,1.6.84,2.26,1.75,3.3,4.54-.83,2.89-5.37,4.54-3.76,1.37-1.88-.47-4.16,1.29v15c2-1,3.85-1.69,4.06-.6.32,1.66-1.14,2.07-2.93,3.72l-1.13,1.06v26.58a52.28,52.28,0,0,0,47.49-37c-1.74,4-4.39,9.59-5.34,11.77C865.38,804.12,866.62,796,864.56,789.34Z"/><path class="cls-9" d="M825.6,731.54l8.4,5.36,4.13-4.54-7-3.1,4.95-3.09,6.88,3.71,4.27,2.48,2.87-2.1a52,52,0,0,0-25.61-8.16v9.16Z"/><path class="cls-16" d="M873.23,777l.82-4.13a2,2,0,0,0,.12-.24,52.15,52.15,0,0,0-24.09-42.33l-2.87,2.1-4.27-2.48-6.88-3.71-4.95,3.09,7,3.1L834,736.9l-8.4-5.36-1.13-.28V743a2.34,2.34,0,0,0,1.13-2c.14-2.48,1.76.54,2.93,2.48,4.23,7,6.3,5,4.23,7s-1.44,5-4.23,2.89a31.37,31.37,0,0,1-4.06-3.66v31c2.28-1.76.4.08,4.16-1.29,4.54-1.65,8.67,0,5.37-4.54-.66-.91-1.1-.63-2.26-1.75-.94-.9-.8-1.14-1.72-1.91s-1.36-.79-1.49-1.29c-.22-.89.91-1.76.65-2.09s.24-.13,0-.41-.26.2-.46-.72c-.12-.5.91-.54,0-1.29a1,1,0,0,1-.23-.89c.09-.19-.47-.3,0-.74s-.26-.91,0-1.85c.18-.57.45-.59.46-1,0-.67-.17-.51-.4-1.3-.28-1,0-1.4,0-1.4l-.11-1.12a.76.76,0,0,1,.5-.78c.55-.25.77-1.89,1.25.78a23.37,23.37,0,0,1,.62,4.65c.13,0,.5.47,1.45,2.37,2.89,5.78-2.89,4.54,2.89,5.78s6.32,1.65,7.7-.83.27.41,0-4.54-.27-2.6-.27-4.81c-1.39-1.57,0-2,0-.15v.15a10.51,10.51,0,0,0,2.48,1.9c5,2.91,0-1.22,5,2.91s2.07-5,5,4.13-1.65,5.78,0,11.56l1.65,5.78s.41.83,3.72-4.54-1.24-5,3.3-5.37,3.72-7.85,4.54-.41,1.65,4.54.83,7.43.41-1.65-.83,2.89-5.78-3.3-3.71,3.3.82,14.78,2.06,11.93c1-2.18,3.6-7.79,5.34-11.77a52.44,52.44,0,0,0,1.57-6.77c0-.31-.06-.45.07-.39.1-.69.19-1.39.27-2.09C873.34,779.64,872.76,779.28,873.23,777Z"/><path class="cls-1" d="M842.67,759.76v-.15C842.67,757.76,841.28,758.19,842.67,759.76Z"/><path class="cls-1" d="M830.9,761.79c-.12,0,0,.26,0,0Z"/><path class="cls-16" d="M825.6,798.84c1.79-1.65,3.25-2.06,2.93-3.72-.21-1.09-2.09-.37-4.06.6v4.18Z"/><path class="cls-15" d="M819.55,805.45,817.07,800c-2.48-5.44,2.06-1.58,4.54-2.82.84-.42,1.86-1,2.86-1.47v-15c-.47.36-1.12.87-2,1.6-2.07,1.66-2.07,1.66-3.14,5.78s-.58,3.31-3.47,6.61-2.06,1.24-5,3.72-2.48,2.48-7.44,2.48-2.06.82-6.6,0-4.18,1.32-5.42-4.87L791,789.8c-.25-3.85,2.11-1.7,3.76-7.06s0,0,1.24-4.13,0,0,.83-6.2.41-2.47-.42-8.67,0,0-3.71-4.54,0,0-3.31-5.37,0,0,2.07-6.19,0,0,1.65-3.72,2.07-3.3,10.32-5.84,3.72-1.18,12.39,2.54,0,0,3.3,6.61l4.55,1.65s.28.34.79.88V743a3.44,3.44,0,0,1-1.62.47l-.82-3.3c-.83-3.31-.42-2.48-1.24-3.23s-8.26,0-8.26,0-4.13-.9-5.37-.08,1.65-4.95,1.65-4.95,4.54.41,5.78-5.78l4-4A52.24,52.24,0,0,0,822,826.54c.84,0,1.67,0,2.5-.06V799.9A37.34,37.34,0,0,0,819.55,805.45Z"/><path class="cls-1" d="M818.72,722.15v7.73l5.75,1.38V722.1c-.83,0-1.66-.06-2.5-.06C820.88,722,819.8,722.08,818.72,722.15Z"/><path class="cls-1" d="M818.72,722l-.12.12h.12Z"/><path class="cls-1" d="M819.13,747.23c-3.3-6.61,5.37-2.89-3.3-6.61s-4.13-5.07-12.39-2.54-8.67,2.13-10.32,5.84.41-2.47-1.65,3.72-5.37.82-2.07,6.19-.41.83,3.31,5.37,2.89-1.65,3.71,4.54,1.24,2.48.42,8.67.41,2.07-.83,6.2.42-1.24-1.24,4.13-4,3.21-3.76,7.06l.41,6.24c1.24,6.19.88,4,5.42,4.87s1.65,0,6.6,0,4.55,0,7.44-2.48,2.06-.42,5-3.72,2.4-2.48,3.47-6.61,1.07-4.12,3.14-5.78c.91-.73,1.56-1.24,2-1.6v-31c-.51-.54-.79-.88-.79-.88Z"/><path class="cls-1" d="M818.72,726.17v-4h-.12l-4,4c-1.24,6.19-5.78,5.78-5.78,5.78s-2.89,5.78-1.65,4.95,5.37.08,5.37.08,7.43-.74,8.26,0,.41-.08,1.24,3.23l.82,3.3a3.44,3.44,0,0,0,1.62-.47V731.26l-5.75-1.38Z"/><path class="cls-1" d="M817.07,800l2.48,5.44a37.34,37.34,0,0,1,4.92-5.55v-4.18c-1,.5-2,1-2.86,1.47C819.13,798.43,814.59,794.57,817.07,800Z"/><rect class="cls-6" x="824.47" y="837" width="5.27" height="16.31"/><path class="cls-1" d="M803.44,853.31a13.23,13.23,0,0,0-13.22,13.23h34.25V853.31Z"/><path class="cls-16" d="M845.49,853.31h-21v13.23h34.25A13.23,13.23,0,0,0,845.49,853.31Z"/><rect class="cls-10" x="1443.87" y="348.66" width="117.11" height="6.07"/><rect class="cls-7" x="1443.87" y="302.04" width="117.11" height="46.62"/><rect class="cls-10" x="1443.87" y="290.1" width="117.11" height="11.94"/><rect class="cls-10" x="1443.87" y="285.44" width="117.11" height="3.09"/><rect class="cls-3" x="1443.87" y="288.53" width="117.11" height="1.57"/><rect class="cls-6" x="1438.2" y="348.66" width="5.68" height="6.07"/><rect class="cls-1" x="1438.2" y="302.04" width="5.68" height="46.62"/><rect class="cls-6" x="1438.2" y="290.1" width="5.68" height="11.94"/><rect class="cls-6" x="1438.2" y="285.44" width="5.68" height="3.09"/><rect class="cls-5" x="1438.2" y="288.53" width="5.68" height="1.57"/><rect class="cls-6" x="1560.98" y="348.66" width="5.68" height="6.07"/><rect class="cls-1" x="1560.98" y="302.04" width="5.68" height="46.62"/><rect class="cls-6" x="1560.98" y="290.1" width="5.68" height="11.94"/><rect class="cls-6" x="1560.98" y="285.44" width="5.68" height="3.09"/><rect class="cls-5" x="1560.98" y="288.53" width="5.68" height="1.57"/><path class="cls-10" d="M1472.7,331.3c0-.14,0-.28,0-.43s0-.28,0-.43V316.75h-2.33l-1.41,8.94a5.32,5.32,0,0,0-1.69-.3,5.48,5.48,0,1,0,5.41,6.14h0Z"/><polygon class="cls-5" points="1524.17 290.11 1531.23 310.6 1482.39 310.6 1489.46 290.1 1524.17 290.11"/><circle class="cls-2" cx="1506.81" cy="326.74" r="30.68"/><circle class="cls-3" cx="1506.81" cy="326.74" r="26.64"/><circle class="cls-1" cx="1506.81" cy="326.74" r="24.7"/><circle class="cls-2" cx="1506.81" cy="326.74" r="16.62"/><circle class="cls-6" cx="1506.81" cy="326.74" r="9.61"/><circle class="cls-5" cx="1506.81" cy="328.46" r="6.54"/><polygon class="cls-15" points="1489.45 290.1 1524.16 290.1 1516.88 277.74 1496.74 277.74 1489.45 290.1"/><circle class="cls-11" cx="1467.27" cy="331.05" r="2.58"/><rect class="cls-15" x="1445.17" y="281.67" width="13.43" height="3.77"/><rect class="cls-1" x="1467.36" y="279.08" width="13.37" height="6.36"/><rect class="cls-1" x="1537.49" y="282.32" width="16.84" height="3.12"/><rect class="cls-15" x="1540.1" y="277.74" width="12.07" height="4.57"/><path class="cls-9" d="M1461.07,274.34h3.68a1.4,1.4,0,0,1,1.4,1.4v1a0,0,0,0,1,0,0h-6.47a0,0,0,0,1,0,0v-1A1.4,1.4,0,0,1,1461.07,274.34Z"/><polygon class="cls-3" points="1467.47 280.39 1467.47 276.71 1458.35 276.71 1458.35 280.39 1456.6 280.39 1456.6 285.44 1458.35 285.44 1467.47 285.44 1469.22 285.44 1469.22 280.39 1467.47 280.39"/><path class="cls-1" d="M406.39,393.79a28.37,28.37,0,0,1,19.24,7.46,17.81,17.81,0,0,1,2.27,2.32,28.33,28.33,0,0,1,7,17.08,23.79,23.79,0,0,1,14.2,21.86c0,12.2-8.51,22.19-20.24,23.77a16,16,0,0,1-3.23.23H348.21a12.21,12.21,0,0,1-2.16-.19,18,18,0,1,1,8.56-34.74,16.79,16.79,0,0,1,5.79-12.14,15.8,15.8,0,0,1,2.67-1.91,16.81,16.81,0,0,1,15.28-.76,28.58,28.58,0,0,1,28-23m0-3.39a32,32,0,0,0-30.39,22,20.31,20.31,0,0,0-14.52,2.12,19.33,19.33,0,0,0-3.31,2.35,20.4,20.4,0,0,0-6.39,10.52,21.36,21.36,0,0,0-6.26,42.25,15.29,15.29,0,0,0,2.69.24h77.44a18.84,18.84,0,0,0,3.81-.29c13.36-1.86,23-13.24,23-27.1a27.31,27.31,0,0,0-14.38-24.06,31.66,31.66,0,0,0-7.56-17,20.09,20.09,0,0,0-2.68-2.74,31.87,31.87,0,0,0-21.49-8.32Z"/><path class="cls-11" d="M435.06,420.72a42.39,42.39,0,0,1-80.76,10.77,18,18,0,1,0-8.25,34.83,12.21,12.21,0,0,0,2.16.19h77.44a16,16,0,0,0,3.23-.23c11.73-1.58,20.24-11.57,20.24-23.77A23.78,23.78,0,0,0,435.06,420.72Z"/><path class="cls-3" d="M393.13,456.89a42.39,42.39,0,0,0,41.93-36.17l-.14-.07a28.33,28.33,0,0,0-7-17.08,17.81,17.81,0,0,0-2.27-2.32,28.58,28.58,0,0,0-47.28,15.52,16.81,16.81,0,0,0-15.28.76,15.8,15.8,0,0,0-2.67,1.91,16.79,16.79,0,0,0-5.79,12.14c-.1,0-.21-.06-.31-.09A42.39,42.39,0,0,0,393.13,456.89Z"/><path class="cls-1" d="M1338.43,594.29c-.39,0-.78,0-1.17,0h0v11.31a19.28,19.28,0,0,1,0,38.56v37.39a5.66,5.66,0,0,0,5.2-2.93l22-38.87C1375.72,619.88,1361.73,595.05,1338.43,594.29Z"/><path class="cls-11" d="M1356.44,624.86a19.24,19.24,0,0,0-19.21-19.28v38.56A19.24,19.24,0,0,0,1356.44,624.86Z"/><path class="cls-7" d="M1318,624.86a19.24,19.24,0,0,1,19.2-19.28V594.27c-.38,0-.77,0-1.15,0-23.34.76-37.41,25.86-26,45.67l22.46,38.7a5.63,5.63,0,0,0,4.69,2.87V644.14A19.24,19.24,0,0,1,1318,624.86Z"/><path class="cls-3" d="M1318,624.86a19.24,19.24,0,0,0,19.2,19.28V605.58A19.24,19.24,0,0,0,1318,624.86Z"/><path class="cls-9" d="M607.26,586.49,577.53,535V497.77l2.93-5.38a1,1,0,0,0-.88-1.49H551a1,1,0,0,0-1.05,1.05v43L520.2,586.49A7.89,7.89,0,0,0,527,598.33h73.4A7.89,7.89,0,0,0,607.26,586.49Z"/><path class="cls-3" d="M574.25,536.28v-38h0l2.26-3.72a.7.7,0,0,0-.68-1h-22a.77.77,0,0,0-.81.73v42.41l-9.74,16.88H584.2Z"/><path class="cls-1" d="M523.58,587.6a5.42,5.42,0,0,0,4.69,8.13h70.92a5.42,5.42,0,0,0,4.69-8.13l-13.3-23.05h-53.7Z"/><polygon class="cls-8" points="543.26 553.52 536.88 564.55 590.58 564.55 584.2 553.52 543.26 553.52"/><circle class="cls-3" cx="573.6" cy="559.03" r="0.81"/><circle class="cls-3" cx="571.1" cy="563.59" r="1.75"/><circle class="cls-3" cx="575.52" cy="569.29" r="2.67"/><circle class="cls-3" cx="569.34" cy="574.74" r="3.45"/><circle class="cls-3" cx="577.13" cy="580.97" r="4.34"/><polygon class="cls-3" points="1508.54 664.24 1478.48 664.24 1463.45 690.27 1478.48 716.31 1508.54 716.31 1523.57 690.27 1508.54 664.24"/><line class="cls-17" x1="624.58" y1="230.8" x2="624.58" y2="231.3"/><path class="cls-18" d="M624.58,243.19V501.26a13.54,13.54,0,0,0,13.53,13.54h114"/><line class="cls-17" x1="758.08" y1="514.8" x2="758.58" y2="514.8"/><line class="cls-19" x1="624.58" y1="436.96" x2="488.58" y2="436.96"/><line class="cls-20" x1="771.76" y1="666.8" x2="1182.72" y2="666.8"/><path class="cls-19" d="M1394.58,362.8V298.15a19.35,19.35,0,0,0-19.35-19.35H1167.56a19.71,19.71,0,0,0-19.71,19.71V493.25"/><polygon class="cls-7" points="491.58 422.5 475.45 422.5 467.39 436.47 475.45 450.43 491.58 450.43 499.64 436.47 491.58 422.5"/><polygon class="cls-7" points="634.15 227.26 634.15 215.95 624.36 210.3 614.56 215.95 614.56 227.26 624.36 232.92 634.15 227.26"/><polygon class="cls-7" points="777.86 503.01 763.74 503.01 756.68 515.24 763.74 527.47 777.86 527.47 784.92 515.24 777.86 503.01"/><polygon class="cls-10" points="861.1 136.54 848.09 136.54 841.58 147.81 848.09 159.08 861.1 159.08 867.61 147.81 861.1 136.54"/><polygon class="cls-10" points="970.13 377.39 970.13 364.38 958.86 357.87 947.59 364.38 947.59 377.39 958.86 383.89 970.13 377.39"/><polygon class="cls-7" points="1408.81 370.48 1408.81 353.81 1394.38 345.48 1379.95 353.81 1379.95 370.48 1394.38 378.81 1408.81 370.48"/><polygon class="cls-3" points="779.6 653.94 764.26 653.94 756.58 667.23 764.26 680.52 779.6 680.52 787.28 667.23 779.6 653.94"/><polygon class="cls-3" points="1187.58 653.94 1172.23 653.94 1164.56 667.23 1172.23 680.52 1187.58 680.52 1195.25 667.23 1187.58 653.94"/><polygon class="cls-9" points="573.23 266.59 573.23 239.72 549.96 226.29 526.7 239.72 526.7 266.59 549.96 280.02 573.23 266.59"/><polygon class="cls-3" points="696.88 249.64 671.52 249.64 658.84 271.61 671.52 293.56 696.88 293.56 709.56 271.61 696.88 249.64"/><polygon class="cls-21" points="1511.42 618.55 1535.34 618.55 1547.3 597.84 1535.34 577.13 1511.42 577.13 1499.47 597.84 1511.42 618.55"/><path class="cls-22" d="M867.61,147.81h80.33a11,11,0,0,1,11,11V368.46"/><line class="cls-19" x1="681.64" y1="514.89" x2="681.64" y2="585.38"/><polygon class="cls-7" points="689.98 591.08 689.98 581.81 681.96 577.17 673.93 581.81 673.93 591.08 681.96 595.71 689.98 591.08"/><path class="cls-22" d="M1394.91,642.8h143.94a34.51,34.51,0,0,0,34.51-34.51V511.08"/><polygon class="cls-10" points="1407.98 628.48 1391.59 628.48 1383.39 642.67 1391.59 656.87 1407.98 656.87 1416.17 642.67 1407.98 628.48"/><polygon class="cls-10" points="1582.43 521.57 1582.43 510.34 1572.7 504.72 1562.97 510.34 1562.97 521.57 1572.7 527.19 1582.43 521.57"/><line class="cls-20" x1="928.64" y1="664.8" x2="928.64" y2="850.52"/><polygon class="cls-3" points="950.08 853.04 950.08 828.29 928.64 815.91 907.2 828.29 907.2 853.04 928.64 865.42 950.08 853.04"/><polygon class="cls-6" points="476.8 367.34 467.27 367.34 467.28 367.38 457.55 367.38 457.55 376.43 486.22 376.43 476.8 367.34"/><rect class="cls-1" x="457.55" y="367.34" width="9.72" height="0.04"/><polygon class="cls-5" points="447.75 367.38 447.75 367.34 437.92 367.34 428.81 376.43 457.55 376.43 457.55 367.38 447.75 367.38"/><rect class="cls-1" x="447.75" y="367.34" width="9.8" height="0.04"/><path class="cls-1" d="M457.55,245.23V367.34h9.72l-6.66-122.72-.34.13A8.5,8.5,0,0,1,457.55,245.23Z"/><path class="cls-6" d="M457.51,245.23a8.16,8.16,0,0,1-2.75-.48l-.34-.13-6.66,122.72h9.79V245.23Z"/><path class="cls-14" d="M439.25,218.75l-2.83-2.82a29.69,29.69,0,0,0,0,41.92l2.83-2.82a25.71,25.71,0,0,1,0-36.28Z"/><path class="cls-14" d="M443.83,223.34l-2.62-2.62a22.94,22.94,0,0,0,0,32.34l2.62-2.62a19.22,19.22,0,0,1,0-27.1Z"/><path class="cls-14" d="M478.61,215.93l-2.83,2.82a25.71,25.71,0,0,1,0,36.28l2.83,2.82a29.69,29.69,0,0,0,0-41.92Z"/><path class="cls-14" d="M469.23,225.3l-5.76,5.76a8.33,8.33,0,0,1,0,11.66l5.76,5.76a16.44,16.44,0,0,0,0-23.18Z"/><path class="cls-14" d="M451.56,231.06l-5.76-5.76a16.44,16.44,0,0,0,0,23.18l5.76-5.76a8.33,8.33,0,0,1,0-11.66Z"/><path class="cls-1" d="M471.2,223.34l-2,2a16.44,16.44,0,0,1,0,23.18l2,2a19.22,19.22,0,0,0,0-27.1Z"/><path class="cls-1" d="M445.8,225.3l-2-2a19.22,19.22,0,0,0,0,27.1l2-2a16.44,16.44,0,0,1,0-23.18Z"/><path class="cls-8" d="M475.78,218.75l-2,2a22.94,22.94,0,0,1,0,32.34l2,2a25.71,25.71,0,0,0,0-36.28Z"/><path class="cls-8" d="M441.21,220.72l-2-2a25.71,25.71,0,0,0,0,36.28l2-2a22.94,22.94,0,0,1,0-32.34Z"/><path class="cls-10" d="M480.57,214l-2,2a29.69,29.69,0,0,1,0,41.92l2,2a32.47,32.47,0,0,0,0-45.86Z"/><path class="cls-10" d="M436.42,215.93l-2-2a32.47,32.47,0,0,0,0,45.86l2-2a29.69,29.69,0,0,1,0-41.92Z"/><path class="cls-2" d="M463.47,231.06a8.33,8.33,0,1,0-11.91,11.66,8.57,8.57,0,0,0,2.86,1.9l.34.13a8.16,8.16,0,0,0,2.75.48h0a8.5,8.5,0,0,0,2.72-.48l.34-.13a8.57,8.57,0,0,0,2.86-1.9,8.33,8.33,0,0,0,0-11.66Z"/><rect class="cls-3" x="1148.31" y="173.29" width="116" height="70.56"/><rect class="cls-2" x="1160.43" y="218.77" width="90.7" height="14.21"/><rect class="cls-23" x="1251.41" y="233.25" width="4.8" height="4.8"/><rect class="cls-23" x="1155.46" y="233.25" width="4.8" height="4.8"/><rect class="cls-23" x="1251.41" y="181.55" width="4.8" height="4.8"/><rect class="cls-23" x="1155.46" y="181.55" width="4.8" height="4.8"/><rect class="cls-11" x="1160.53" y="210.78" width="6.04" height="6.04"/><rect class="cls-10" x="1160.53" y="202.78" width="6.04" height="6.04"/><rect class="cls-10" x="1160.53" y="194.78" width="6.04" height="6.04"/><rect class="cls-11" x="1160.53" y="186.79" width="6.04" height="6.04"/><rect class="cls-11" x="1177.44" y="210.78" width="6.04" height="6.04"/><rect class="cls-10" x="1177.44" y="202.78" width="6.04" height="6.04"/><rect class="cls-11" x="1177.44" y="194.78" width="6.04" height="6.04"/><rect class="cls-10" x="1177.44" y="186.79" width="6.04" height="6.04"/><rect class="cls-10" x="1168.98" y="210.78" width="6.04" height="6.04"/><rect class="cls-11" x="1168.98" y="202.78" width="6.04" height="6.04"/><rect class="cls-10" x="1168.98" y="194.78" width="6.04" height="6.04"/><rect class="cls-11" x="1168.98" y="186.79" width="6.04" height="6.04"/><rect class="cls-10" x="1194.35" y="210.78" width="6.04" height="6.04"/><rect class="cls-11" x="1194.35" y="202.78" width="6.04" height="6.04"/><rect class="cls-10" x="1194.35" y="194.78" width="6.04" height="6.04"/><rect class="cls-11" x="1194.35" y="186.79" width="6.04" height="6.04"/><rect class="cls-10" x="1185.9" y="210.78" width="6.04" height="6.04"/><rect class="cls-11" x="1185.9" y="202.78" width="6.04" height="6.04"/><rect class="cls-11" x="1185.9" y="194.78" width="6.04" height="6.04"/><rect class="cls-10" x="1185.9" y="186.79" width="6.04" height="6.04"/><rect class="cls-11" x="1219.72" y="210.78" width="6.04" height="6.04"/><rect class="cls-11" x="1219.72" y="202.78" width="6.04" height="6.04"/><rect class="cls-10" x="1219.72" y="194.78" width="6.04" height="6.04"/><rect class="cls-10" x="1219.72" y="186.79" width="6.04" height="6.04"/><rect class="cls-11" x="1211.26" y="210.78" width="6.04" height="6.04"/><rect class="cls-10" x="1211.26" y="202.78" width="6.04" height="6.04"/><rect class="cls-11" x="1211.26" y="194.78" width="6.04" height="6.04"/><rect class="cls-10" x="1211.26" y="186.79" width="6.04" height="6.04"/><rect class="cls-10" x="1228.18" y="210.78" width="6.04" height="6.04"/><rect class="cls-11" x="1228.18" y="202.78" width="6.04" height="6.04"/><rect class="cls-10" x="1228.18" y="194.78" width="6.04" height="6.04"/><rect class="cls-11" x="1228.18" y="186.79" width="6.04" height="6.04"/><rect class="cls-10" x="1236.63" y="210.78" width="6.04" height="6.04"/><rect class="cls-10" x="1236.63" y="202.78" width="6.04" height="6.04"/><rect class="cls-11" x="1236.63" y="194.78" width="6.04" height="6.04"/><rect class="cls-11" x="1236.63" y="186.79" width="6.04" height="6.04"/><rect class="cls-11" x="1202.81" y="210.78" width="6.04" height="6.04"/><rect class="cls-11" x="1202.81" y="202.78" width="6.04" height="6.04"/><rect class="cls-10" x="1202.81" y="194.78" width="6.04" height="6.04"/><rect class="cls-10" x="1202.81" y="186.79" width="6.04" height="6.04"/><rect class="cls-11" x="1245.09" y="210.78" width="6.04" height="6.04"/><rect class="cls-10" x="1245.09" y="202.78" width="6.04" height="6.04"/><rect class="cls-10" x="1245.09" y="194.78" width="6.04" height="6.04"/><rect class="cls-11" x="1245.09" y="186.79" width="6.04" height="6.04"/><rect class="cls-3" x="1203.7" y="191.51" width="5.46" height="70.33" transform="translate(898.18 1414.88) rotate(-86.1)"/><rect class="cls-5" x="1176.1" y="221.72" width="5.94" height="5.94" transform="matrix(0.07, -1, 1, 0.07, 874.66, 1385.73)"/></svg>