<svg id="Layer_1" data-name="Layer 1" xmlns="http://www.w3.org/2000/svg" xmlns:xlink="http://www.w3.org/1999/xlink" viewBox="0 0 1920 1080"><defs><style>.cls-1,.cls-19,.cls-21,.cls-24,.cls-9{fill:none;}.cls-2{clip-path:url(#clip-path);}.cls-3{opacity:0.1;}.cls-4{clip-path:url(#clip-path-3);}.cls-5{fill:#fff;}.cls-6{fill:#413f82;}.cls-7{fill:#807eac;}.cls-8{fill:#bfbdd6;}.cls-9{stroke:#d4d2e4;stroke-width:0.67px;}.cls-19,.cls-21,.cls-24,.cls-9{stroke-miterlimit:10;}.cls-10{clip-path:url(#clip-path-4);}.cls-11{fill:#2c2a74;}.cls-12{fill:#020058;}.cls-13{fill:#9593ba;}.cls-14{fill:#e9e7f2;}.cls-15{fill:#6b699e;}.cls-16{fill:#aaa8c8;}.cls-17{fill:#565490;}.cls-18{clip-path:url(#clip-path-5);}.cls-19{stroke:#2c2a74;stroke-width:1.08px;}.cls-20{clip-path:url(#clip-path-6);}.cls-21,.cls-24{stroke:#020058;}.cls-21{stroke-width:0.94px;}.cls-22{fill:#d4d2e4;}.cls-23{fill:#171566;}.cls-24{stroke-width:1.07px;}</style><clipPath id="clip-path"><rect class="cls-1" width="1920" height="1080"/></clipPath><clipPath id="clip-path-3"><rect class="cls-1" x="32.73" y="48.47" width="1860.18" height="995.3"/></clipPath><clipPath id="clip-path-4"><rect class="cls-1" x="55.33" y="187.62" width="1817.63" height="789.46"/></clipPath><clipPath id="clip-path-5"><rect class="cls-1" x="97.27" y="41.81" width="1607.08" height="1012.98"/></clipPath><clipPath id="clip-path-6"><rect class="cls-1" x="88.3" y="28.27" width="1807.68" height="1013.89"/></clipPath></defs><title>Artboard 1</title><g class="cls-2"><g class="cls-2"><g class="cls-3"><g class="cls-4"><polygon class="cls-5" points="1624.54 808.86 1594.47 808.86 1579.44 834.89 1594.47 860.93 1624.54 860.93 1639.57 834.89 1624.54 808.86"/><polygon class="cls-6" points="56.91 649.57 40.79 649.57 32.73 663.54 40.79 677.5 56.91 677.5 64.98 663.54 56.91 649.57"/><polygon class="cls-6" points="128.74 909.56 114.61 909.56 107.55 921.79 114.61 934.02 128.74 934.02 135.8 921.79 128.74 909.56"/><polygon class="cls-7" points="1886.41 418.24 1873.39 418.24 1866.89 429.51 1873.39 440.78 1886.41 440.78 1892.91 429.51 1886.41 418.24"/><polygon class="cls-6" points="1826.49 923.18 1826.49 909.56 1814.69 902.75 1802.9 909.56 1802.9 923.18 1814.69 929.99 1826.49 923.18"/><polygon class="cls-6" points="1747.76 182.15 1747.76 165.49 1733.33 157.15 1718.89 165.49 1718.89 182.15 1733.33 190.48 1747.76 182.15"/><polygon class="cls-5" points="501.12 48.48 485.77 48.48 478.1 61.77 485.77 75.06 501.12 75.06 508.79 61.77 501.12 48.48"/><polygon class="cls-5" points="1333.88 83.19 1318.53 83.19 1310.86 96.48 1318.53 109.77 1333.88 109.77 1341.55 96.48 1333.88 83.19"/><polygon class="cls-8" points="183.22 121.2 183.22 94.34 159.95 80.91 136.69 94.34 136.69 121.2 159.95 134.64 183.22 121.2"/><polygon class="cls-5" points="252.89 486.27 227.53 486.27 214.85 508.23 227.53 530.19 252.89 530.19 265.57 508.23 252.89 486.27"/><polygon class="cls-8" points="1819.42 647.18 1843.34 647.18 1855.3 626.47 1843.34 605.75 1819.42 605.75 1807.47 626.47 1819.42 647.18"/><polygon class="cls-9" points="1819.42 647.18 1843.34 647.18 1855.3 626.47 1843.34 605.75 1819.42 605.75 1807.47 626.47 1819.42 647.18"/><polygon class="cls-7" points="1428.45 1015.38 1412.06 1015.38 1403.86 1029.57 1412.06 1043.77 1428.45 1043.77 1436.65 1029.57 1428.45 1015.38"/><polygon class="cls-5" points="582.08 1028.67 582.08 1003.91 560.64 991.53 539.2 1003.91 539.2 1028.67 560.64 1041.04 582.08 1028.67"/><polygon class="cls-7" points="521.77 106.94 508.76 106.94 502.25 118.21 508.76 129.48 521.77 129.48 528.28 118.21 521.77 106.94"/></g></g><g class="cls-3"><g class="cls-10"><path class="cls-11" d="M1759.29,857.54h-25V977.09h25a6.87,6.87,0,0,0,6.86-6.85V864.39a6.87,6.87,0,0,0-6.86-6.85"/><path class="cls-12" d="M1709,857.54a6.85,6.85,0,0,0-6.85,6.85V970.24a6.85,6.85,0,0,0,6.85,6.85h25.35V857.54Z"/><path class="cls-5" d="M1734.33,973.31a5.29,5.29,0,1,1,5.27-5.3,5.3,5.3,0,0,1-5.27,5.3"/><rect class="cls-13" x="1709.27" y="866.15" width="49.73" height="93.86"/><path class="cls-5" d="M1743.62,915.88a6.69,6.69,0,0,0-5.5,2.88l-11.1-5.55a6.71,6.71,0,0,0,.34-2.11,6.57,6.57,0,0,0-.42-2.31l11.32-6.13a6.69,6.69,0,1,0-1.33-4,6.57,6.57,0,0,0,.42,2.31L1726,907.11a6.68,6.68,0,1,0,.13,7.81l11.11,5.55a6.69,6.69,0,1,0,6.35-4.59"/><path class="cls-11" d="M1866.53,351H1686.76a6.43,6.43,0,0,1-6.43-6.44V219.85a6.43,6.43,0,0,1,6.43-6.43h179.77a6.43,6.43,0,0,1,6.43,6.43V344.58a6.43,6.43,0,0,1-6.43,6.44"/><path class="cls-5" d="M1867.06,347.71H1686.23a2.59,2.59,0,0,1-2.6-2.6V223.33h186V345.11a2.59,2.59,0,0,1-2.6,2.6"/><path class="cls-5" d="M1867.46,218.37a2.21,2.21,0,1,1-2.2-2.2,2.21,2.21,0,0,1,2.2,2.2"/><path class="cls-5" d="M1860.85,218.37a2.2,2.2,0,1,1-2.2-2.2,2.2,2.2,0,0,1,2.2,2.2"/><path class="cls-5" d="M1854.25,218.37a2.2,2.2,0,1,1-2.2-2.2,2.21,2.21,0,0,1,2.2,2.2"/><rect class="cls-14" x="1708.28" y="231.58" width="13.24" height="4.41"/><rect class="cls-14" x="1723.28" y="231.58" width="13.24" height="4.41"/><rect class="cls-14" x="1739.17" y="231.58" width="13.24" height="4.41"/><rect class="cls-14" x="1755.06" y="231.58" width="13.24" height="4.41"/><rect class="cls-14" x="1770.95" y="231.58" width="13.24" height="4.41"/><rect class="cls-14" x="1786.84" y="231.58" width="58.26" height="4.41"/><rect class="cls-15" x="1708.28" y="243.93" width="67.08" height="30.01"/><rect class="cls-16" x="1708.28" y="282.76" width="41.49" height="30.01"/><rect class="cls-16" x="1803.96" y="282.76" width="41.14" height="30.01"/><rect class="cls-16" x="1756.17" y="282.76" width="41.26" height="30.01"/><rect class="cls-12" x="1803.96" y="324.68" width="41.49" height="1.18"/><rect class="cls-12" x="1803.96" y="328.22" width="41.49" height="1.18"/><rect class="cls-12" x="1803.96" y="331.76" width="41.49" height="1.18"/><rect class="cls-12" x="1803.96" y="335.29" width="41.49" height="1.18"/><rect class="cls-12" x="1803.96" y="338.83" width="35.31" height="1.18"/><rect class="cls-12" x="1708.28" y="324.68" width="41.49" height="1.18"/><rect class="cls-12" x="1708.28" y="328.22" width="41.49" height="1.18"/><rect class="cls-12" x="1708.28" y="331.76" width="16.77" height="1.18"/><rect class="cls-12" x="1708.28" y="335.29" width="41.49" height="1.18"/><rect class="cls-12" x="1708.28" y="338.83" width="31.78" height="1.18"/><rect class="cls-12" x="1756.17" y="324.68" width="41.14" height="1.18"/><rect class="cls-12" x="1756.17" y="328.22" width="41.14" height="1.18"/><rect class="cls-12" x="1756.17" y="331.76" width="41.14" height="1.18"/><rect class="cls-12" x="1756.17" y="335.29" width="12.01" height="1.18"/><rect class="cls-12" x="1778.89" y="252.96" width="66.2" height="1.41"/><rect class="cls-12" x="1778.89" y="257.19" width="66.2" height="1.41"/><rect class="cls-12" x="1778.89" y="261.41" width="59.14" height="1.26"/><rect class="cls-12" x="1778.89" y="265.45" width="66.2" height="1.41"/><rect class="cls-12" x="1778.89" y="269.68" width="43.25" height="1.41"/><rect class="cls-6" x="1708.28" y="318.5" width="32.66" height="2.65"/><rect class="cls-6" x="1756.17" y="318.5" width="39.72" height="2.65"/><rect class="cls-6" x="1778.89" y="244.81" width="49.43" height="3.53"/><rect class="cls-6" x="1803.96" y="318.5" width="22.95" height="2.65"/><path class="cls-16" d="M220.79,895.56v-1.49a3,3,0,0,0-3-3H189.35a3,3,0,0,0-3,3l6.07,76.19h97.32a3,3,0,0,0,3-3l-6-65.74a3,3,0,0,0-3-3h-60a3,3,0,0,1-3-3"/><path class="cls-7" d="M292.92,970.26H192.44l.58-3a.13.13,0,0,1,0-.05l11.63-55.24a3.06,3.06,0,0,1,3.06-3.06H302a3.06,3.06,0,0,1,3.06,3,.06.06,0,0,1,0,0l-12.13,57.84Z"/><polygon class="cls-11" points="216.4 896.58 191.49 896.58 191.22 894.25 216.14 894.25 216.4 896.58"/><path class="cls-11" d="M134.4,394.41a28.44,28.44,0,0,1,19.24,7.46,18.5,18.5,0,0,1,2.27,2.32,28.4,28.4,0,0,1,7,17.09,23.78,23.78,0,0,1,14.2,21.85c0,12.21-8.51,22.19-20.25,23.78a15.81,15.81,0,0,1-3.22.23H76.22a13.23,13.23,0,0,1-2.16-.19,18,18,0,1,1,8.56-34.74,16.86,16.86,0,0,1,5.78-12.15,16.2,16.2,0,0,1,2.68-1.9,16.81,16.81,0,0,1,15.28-.76,28.59,28.59,0,0,1,28-23m0-3.38a32,32,0,0,0-30.39,22,20.18,20.18,0,0,0-14.53,2.12,19.67,19.67,0,0,0-3.3,2.34A20.32,20.32,0,0,0,79.79,428a21.36,21.36,0,0,0-6.27,42.25,16.5,16.5,0,0,0,2.7.23h77.44a19,19,0,0,0,3.81-.28c13.36-1.87,23-13.25,23-27.11a27.31,27.31,0,0,0-14.38-24.05,31.62,31.62,0,0,0-7.56-17,20.84,20.84,0,0,0-2.68-2.75A31.86,31.86,0,0,0,134.4,391"/><path class="cls-14" d="M163.07,421.35a42.38,42.38,0,0,1-80.76,10.76,18.23,18.23,0,0,0-5.63-.91A18,18,0,0,0,74.06,467a12.21,12.21,0,0,0,2.16.19h77.44a15.81,15.81,0,0,0,3.22-.23c11.74-1.59,20.24-11.57,20.24-23.78a23.77,23.77,0,0,0-14.05-21.78"/><path class="cls-5" d="M121.14,457.52a42.39,42.39,0,0,0,41.93-36.17l-.14-.07a28.4,28.4,0,0,0-7-17.09,18.5,18.5,0,0,0-2.27-2.32,28.58,28.58,0,0,0-47.28,15.53,16.81,16.81,0,0,0-15.28.76,16,16,0,0,0-2.67,1.9,16.83,16.83,0,0,0-5.79,12.15l-.31-.1a42.38,42.38,0,0,0,38.83,25.41"/><polygon class="cls-15" points="112.26 341 102.73 341 102.73 341.04 93.01 341.04 93.01 350.09 121.68 350.09 112.26 341"/><rect class="cls-11" x="93.01" y="341" width="9.72" height="0.04"/><polygon class="cls-16" points="83.21 341.04 83.21 341 73.38 341 64.27 350.09 93.01 350.09 93.01 341.04 83.21 341.04"/><rect class="cls-11" x="83.21" y="341" width="9.8" height="0.04"/><path class="cls-11" d="M93,218.88V341h9.72L96.07,218.28l-.35.13a8.12,8.12,0,0,1-2.71.47"/><path class="cls-15" d="M93,218.89a8.36,8.36,0,0,1-2.75-.48l-.34-.13L83.21,341H93V218.88h0"/><path class="cls-11" d="M106.66,197l-2,2a16.44,16.44,0,0,1,0,23.18l2,2a19.23,19.23,0,0,0,0-27.11"/><path class="cls-11" d="M81.25,199l-2-2a19.23,19.23,0,0,0,0,27.11l2-2a16.47,16.47,0,0,1,0-23.18"/><path class="cls-17" d="M111.24,192.41l-2,2a22.91,22.91,0,0,1,0,32.34l2,2a25.71,25.71,0,0,0,0-36.28"/><path class="cls-17" d="M76.67,194.38l-2-2a25.71,25.71,0,0,0,0,36.28l2-2a22.94,22.94,0,0,1,0-32.34"/><path class="cls-7" d="M116,187.62l-2,2a29.69,29.69,0,0,1,0,41.92l2,2a32.48,32.48,0,0,0,0-45.85"/><path class="cls-7" d="M71.88,189.59l-2-2a32.48,32.48,0,0,0,0,45.85l2-2a29.69,29.69,0,0,1,0-41.92"/><path class="cls-12" d="M98.93,204.72A8.33,8.33,0,1,0,87,216.37a8.49,8.49,0,0,0,2.87,1.91l.34.13a8.36,8.36,0,0,0,2.75.48h0a8.12,8.12,0,0,0,2.71-.47l.35-.13a8.55,8.55,0,0,0,2.86-1.91,8.32,8.32,0,0,0,0-11.65"/></g></g><g class="cls-3"><g class="cls-18"><path class="cls-11" d="M441.22,96.12h-47V251.2h47c4.9,0,8.85-4.29,8.85-9.61V105.71c0-5.3-3.95-9.59-8.85-9.59"/><path class="cls-12" d="M348.15,96.12c-4.89,0-8.83,4.29-8.85,9.59V241.59c0,5.32,4,9.61,8.85,9.61h46V96.12Z"/><rect class="cls-16" x="348.59" y="107.64" width="92.18" height="124.95"/><path class="cls-5" d="M394.17,247.29a5.08,5.08,0,0,1-5.12-5.13,5.13,5.13,0,1,1,5.12,5.13"/><polygon class="cls-15" points="348.59 178.03 355.25 173.22 367.66 158.15 384.5 167.02 398.68 147.52 411.97 169.67 427.92 158.15 440.77 151.06 441.21 232.59 348.17 232.59 348.59 178.03"/><path class="cls-5" d="M440.77,150,430,156a3.09,3.09,0,0,0-4.75,2.62,2.2,2.2,0,0,0,0,.36l-11.58,8.36a2.94,2.94,0,0,0-2.22-.15l-10.2-17a3.11,3.11,0,1,0-5-.91l-11,15.13c-.12,0-.24,0-.37,0a3.06,3.06,0,0,0-2.06.8L371.16,159a2.91,2.91,0,0,0,0-.4,3.11,3.11,0,0,0-6.21,0,3,3,0,0,0,.22,1.12l-9,10.9a2.51,2.51,0,0,0-.55-.06,3.1,3.1,0,0,0-3.1,3.1c0,.06,0,.11,0,.17l-4,2.51v2l0,.06,4.6-2.87a3.1,3.1,0,0,0,5.57-1.87,3.06,3.06,0,0,0-.94-2.21l8.48-10.3a3.08,3.08,0,0,0,4.1-.53L382,166.68a3.34,3.34,0,0,0-.11.78,3.1,3.1,0,1,0,5.13-2.33l10.55-14.52a3.09,3.09,0,0,0,2.21.39L410,168.16a3.06,3.06,0,0,0-.72,2,3.1,3.1,0,1,0,5.75-1.59l11-7.91a3.09,3.09,0,0,0,5.44-2,3,3,0,0,0-.26-1.25l9.57-5.32Z"/><path class="cls-11" d="M1666.3,896.42h-85.52v158.37h29.39a2,2,0,0,0,2-2v-.72a1.87,1.87,0,0,0-.81-1.51c-1.6-2.29-7-6.77-7-9.35v-7c0-.14,0-.26,0-.4h62a11.17,11.17,0,0,0,11.31-11V907.4a11.14,11.14,0,0,0-11.31-11"/><path class="cls-12" d="M1494.63,896.42a11.11,11.11,0,0,0-11.27,11v115.49a11.14,11.14,0,0,0,11.27,11h60.64c0,.14,0,.26,0,.4v7c0,2.58-5.44,7.07-7,9.35a1.89,1.89,0,0,0-.8,1.51v.72a2,2,0,0,0,2,2h31.35V896.42Z"/><rect class="cls-5" x="1492.86" y="914.26" width="175.24" height="101.49"/><rect class="cls-6" x="1511.07" y="975.57" width="36.8" height="4.46"/><rect class="cls-6" x="1562.38" y="975.57" width="36.81" height="4.46"/><rect class="cls-6" x="1613.17" y="975.57" width="36.66" height="4.46"/><path class="cls-17" d="M1546.21,952.15a1.73,1.73,0,0,0-.72.16l-2.24-2.23a1.73,1.73,0,0,0,.17-.72,1.68,1.68,0,1,0-3.09.88l-2.5,3.12a1.68,1.68,0,0,0-.55-.1h-.06l-3.65-9.11a1.67,1.67,0,1,0-1.43,0l-4,15.84-3.09-6.17a1.64,1.64,0,0,0,.47-1.15,1.67,1.67,0,1,0-3.34,0,1.64,1.64,0,0,0,.33,1l-2.71,4.08a1.93,1.93,0,0,0-.41-.06,1.73,1.73,0,0,0-.72.17l-1.12-1.12a1.73,1.73,0,0,0,.17-.72,1.68,1.68,0,0,0-3.35,0,1.72,1.72,0,0,0,.29,1l-2.29,3.16a1.63,1.63,0,0,0-.79-.21,1.7,1.7,0,1,0,1.55,1l2.44-3.35a1.84,1.84,0,0,0,.47.07,1.73,1.73,0,0,0,.72-.16l1.12,1.12a1.73,1.73,0,0,0-.16.72,1.67,1.67,0,1,0,3.34,0,1.65,1.65,0,0,0-.34-1l2.72-4.08a1.4,1.4,0,0,0,.41.06l.2,0,3.46,6.92a1.66,1.66,0,0,0-.87,1.46,1.67,1.67,0,1,0,2.35-1.52l3.9-15.63,3.24,8.1a1.64,1.64,0,0,0-.57,1.25,1.68,1.68,0,0,0,3.35,0,1.63,1.63,0,0,0-.26-.88l2.5-3.13a1.62,1.62,0,0,0,.54.1,1.73,1.73,0,0,0,.72-.16l2.24,2.23a1.59,1.59,0,0,0-.17.72,1.68,1.68,0,1,0,1.68-1.67"/><rect class="cls-16" x="1565.17" y="954.38" width="7.81" height="21.19"/><rect class="cls-15" x="1572.97" y="947.69" width="7.81" height="27.88"/><rect class="cls-8" x="1580.78" y="956.61" width="7.81" height="18.96"/><rect class="cls-13" x="1588.58" y="943.23" width="7.81" height="32.34"/><path class="cls-7" d="M1618.14,963.86a1.68,1.68,0,1,1-1.67-1.68,1.67,1.67,0,0,1,1.67,1.68"/><path class="cls-7" d="M1626,958.84a3.35,3.35,0,1,1-3.35-3.35,3.34,3.34,0,0,1,3.35,3.35"/><path class="cls-7" d="M1637.1,955.49a3.35,3.35,0,1,1-3.35-3.34,3.35,3.35,0,0,1,3.35,3.34"/><path class="cls-7" d="M1646,951a4.46,4.46,0,1,1-4.46-4.46A4.46,4.46,0,0,1,1646,951"/><path class="cls-7" d="M1619.26,969.43a1.68,1.68,0,1,1-1.68-1.67,1.68,1.68,0,0,1,1.68,1.67"/><path class="cls-7" d="M1640.45,957.72a1.12,1.12,0,1,1-1.12-1.11,1.12,1.12,0,0,1,1.12,1.11"/><path class="cls-7" d="M1629.29,953.26a2.23,2.23,0,1,1-2.23-2.23,2.23,2.23,0,0,1,2.23,2.23"/><path class="cls-7" d="M1649.37,943.78a2.79,2.79,0,1,1-2.79-2.79,2.79,2.79,0,0,1,2.79,2.79"/><path class="cls-7" d="M1637.1,962.18a2.23,2.23,0,1,1-2.23-2.23,2.23,2.23,0,0,1,2.23,2.23"/><path class="cls-7" d="M1636,948.24a1.67,1.67,0,1,1-1.67-1.67,1.67,1.67,0,0,1,1.67,1.67"/><path class="cls-7" d="M1646,958.84a2.23,2.23,0,1,1-2.23-2.23,2.23,2.23,0,0,1,2.23,2.23"/><path class="cls-7" d="M1631.52,960.51a1.67,1.67,0,1,1-1.67-1.67,1.67,1.67,0,0,1,1.67,1.67"/><path class="cls-7" d="M1629.29,965.53a2.23,2.23,0,1,1-2.23-2.23,2.23,2.23,0,0,1,2.23,2.23"/><path class="cls-7" d="M1623.72,965.53a2.23,2.23,0,1,1-2.23-2.23,2.23,2.23,0,0,1,2.23,2.23"/><path class="cls-7" d="M1649.37,948.8a1.12,1.12,0,1,1-1.12-1.11,1.12,1.12,0,0,1,1.12,1.11"/><rect class="cls-16" x="1510.97" y="922.28" width="138.87" height="6.67"/><rect class="cls-12" x="1510.97" y="988.93" width="36.66" height="1.11"/><rect class="cls-12" x="1510.97" y="992.27" width="36.66" height="1.11"/><rect class="cls-12" x="1510.97" y="995.6" width="36.66" height="1.11"/><rect class="cls-12" x="1510.97" y="998.93" width="36.66" height="1.11"/><rect class="cls-12" x="1510.97" y="1002.26" width="36.66" height="1.11"/><rect class="cls-12" x="1510.97" y="1005.6" width="23.33" height="1.11"/><rect class="cls-12" x="1562.45" y="988.93" width="36.66" height="1.11"/><rect class="cls-12" x="1562.45" y="992.27" width="36.66" height="1.11"/><rect class="cls-12" x="1562.45" y="995.6" width="25.55" height="1.11"/><rect class="cls-12" x="1562.45" y="1002.26" width="36.66" height="1.11"/><rect class="cls-12" x="1562.45" y="1005.6" width="36.66" height="1.11"/><rect class="cls-12" x="1562.45" y="1008.93" width="36.66" height="1.11"/><rect class="cls-12" x="1613.17" y="988.93" width="36.66" height="1.11"/><rect class="cls-12" x="1613.17" y="992.27" width="36.66" height="1.11"/><rect class="cls-12" x="1613.17" y="995.6" width="36.66" height="1.11"/><rect class="cls-12" x="1613.17" y="998.93" width="36.66" height="1.11"/><rect class="cls-12" x="1613.17" y="1002.26" width="29.99" height="1.11"/><path class="cls-5" d="M1580.48,904.42a2,2,0,1,1-2,2,2,2,0,0,1,2-2"/><polygon class="cls-16" points="152.32 703.76 102.13 681.88 102.13 796 152.32 817.89 152.32 703.76"/><polygon class="cls-16" points="211.15 796 261.33 817.89 261.33 703.76 211.15 681.88 211.15 796"/><path class="cls-11" d="M97.81,797.42a2.15,2.15,0,0,0,1.3,2l54.51,23.77.17.05.14,0a2.15,2.15,0,0,0,.55.08,2.09,2.09,0,0,0,.55-.08l.15,0,.16-.05L209,799.78l53.64,23.39a2.18,2.18,0,0,0,.86.18,2.2,2.2,0,0,0,1.19-.35,2.17,2.17,0,0,0,1-1.81V702.35a2.15,2.15,0,0,0-1.3-2L209.85,676.6l-.08,0a1.29,1.29,0,0,0-.26-.08l-.26,0a2.29,2.29,0,0,0-.25,0,1.27,1.27,0,0,0-.28,0l-.24,0a1.29,1.29,0,0,0-.28.08l-.08,0L154.48,700,100.84,676.6a2.16,2.16,0,0,0-3,2Zm109-1.42-50.19,21.89V703.77l50.19-21.89ZM102.14,681.88l50.18,21.89V817.89L102.14,796Zm159.19,136L211.15,796V681.88l50.18,21.89Z"/><path class="cls-19" d="M97.81,797.42a2.15,2.15,0,0,0,1.3,2l54.51,23.77.17.05.14,0a2.15,2.15,0,0,0,.55.08,2.09,2.09,0,0,0,.55-.08l.15,0,.16-.05L209,799.78l53.64,23.39a2.18,2.18,0,0,0,.86.18,2.2,2.2,0,0,0,1.19-.35,2.17,2.17,0,0,0,1-1.81V702.35a2.15,2.15,0,0,0-1.3-2L209.85,676.6l-.08,0a1.29,1.29,0,0,0-.26-.08l-.26,0a2.29,2.29,0,0,0-.25,0,1.27,1.27,0,0,0-.28,0l-.24,0a1.29,1.29,0,0,0-.28.08l-.08,0L154.48,700,100.84,676.6a2.16,2.16,0,0,0-3,2Zm109-1.42-50.19,21.89V703.77l50.19-21.89ZM102.14,681.88l50.18,21.89V817.89L102.14,796Zm159.19,136L211.15,796V681.88l50.18,21.89Z"/><polygon class="cls-7" points="156.64 703.76 156.64 817.89 206.83 796 206.83 681.88 156.64 703.76"/><path class="cls-11" d="M185.52,770.05c-1,2.42-3.45,3.31-4.45,1.61L171,754.24c-5.17-9.25,1.22-24.7,11.85-27.92l.54-.15.53-.13c10.61-2.4,16.86,8.63,11.67,20.38Z"/><path class="cls-5" d="M183.34,732.17c-4.82,1.33-8.73,7.06-8.74,12.8s3.87,9.16,8.66,7.64,8.71-7.25,8.74-12.8-3.84-9-8.66-7.64"/><path class="cls-15" d="M252.68,126.86a6.78,6.78,0,0,1-4.76,2,7,7,0,0,1-4.82-2l-5.62-5.72a6.62,6.62,0,0,1-2-4.76,6.86,6.86,0,0,1,2-4.82l36.07-36.07A27.32,27.32,0,0,0,288.8,90.75Zm-1.37-17.26A3.39,3.39,0,1,0,254.7,113a3.41,3.41,0,0,0-3.39-3.39"/><path class="cls-17" d="M321.16,73.32a23.73,23.73,0,1,1-10.28-28.17,1.76,1.76,0,0,1,.85,1.48,1.87,1.87,0,0,1-.85,1.48l-15.51,9V68.93l10.22,5.66c1.75-1,14-8.73,15.09-8.73a1.69,1.69,0,0,1,1.7,1.85,19.07,19.07,0,0,1-1.22,5.61"/><path class="cls-11" d="M264,234.23l-14.59,14.59a2,2,0,0,1-2.83,0l-.21-.21a2,2,0,0,1,0-2.83L261,231.19a2,2,0,0,1,2.83,0l.21.21a2,2,0,0,1,0,2.83"/><path class="cls-11" d="M268.09,238.28l-14.58,14.59a2,2,0,0,1-2.84,0l-.21-.21a2,2,0,0,1,0-2.83l14.59-14.59a2,2,0,0,1,2.83,0l.21.21a2,2,0,0,1,0,2.83"/><path class="cls-11" d="M270,244.46,259.68,254.8a2,2,0,0,1-2.89,0l-.15-.14a2.05,2.05,0,0,1,0-2.9L267,241.42a2.05,2.05,0,0,1,2.9,0l.14.14a2.05,2.05,0,0,1,0,2.9"/><path class="cls-16" d="M217,170.44a32.32,32.32,0,0,0-23.44,11.19,32.7,32.7,0,0,0-.41,42.15,32.36,32.36,0,0,0,33.07,10.66,2.51,2.51,0,0,1,2.42.62l7.29,7.29a7.82,7.82,0,0,0,11.07,0l10.48-10.47a7.92,7.92,0,0,0,0-11.18l-7.33-7.33a2.25,2.25,0,0,1-.56-2.18A32.53,32.53,0,0,0,217,170.44"/><polygon class="cls-5" points="222.99 211.78 227 207.77 250.94 232.89 248.11 235.72 222.99 211.78"/><path class="cls-5" d="M227,204.94l-1.35-1.44c-.14-.14-3.45-3.51-.69-6.27s4.14-1.43,5.57,0c.9.9,1.8,2.38-.7,4.88Z"/><path class="cls-5" d="M245.81,210.2a6.21,6.21,0,0,0,1.59,6l7.33,7.34a4,4,0,0,1,0,5.6l-2.4,2.4L228.4,206.37l2.87-2.87c3.63-3.64,2-6.36.69-7.66s-4.18-4.18-8.36,0c-3.31,3.3-1,7.37.68,9l1.37,1.46-4.1,4.1-1.43-1.35c-1.69-1.69-5.75-4-9.06-.7-4.18,4.18-1.36,7,0,8.36s4,2.94,7.66-.7l2.88-2.87,25.11,23.94-2.45,2.46a3.91,3.91,0,0,1-5.5,0l-7.29-7.29a6.49,6.49,0,0,0-6.18-1.66,28.58,28.58,0,0,1-28.72-46.4c.45-.52.92-1,1.4-1.5a28.38,28.38,0,0,1,19.21-8.34,28.59,28.59,0,0,1,28.63,35.82"/><path class="cls-5" d="M220.16,211.82l-2.83,2.83c-2.5,2.5-4,1.6-4.88.7-1.43-1.44-2.78-2.79,0-5.58s6.13.56,6.29.72Z"/><path class="cls-8" d="M1656,744.26c-2.28-1.36-9.58-4.06-14.28,2.33,7-.05,9.28.85,11.55,3.58.45-1.82,1.28-4.68,2.73-5.91"/><path class="cls-7" d="M1669,739.1a25.84,25.84,0,1,0-2.94,38.76l3,3,5.16-5.16-3-3a25.86,25.86,0,0,0-2.23-33.6m-32.07,31.47a19.1,19.1,0,1,1,27,.26,19.12,19.12,0,0,1-27-.26"/><path class="cls-11" d="M1703.08,804l-5.78,5.78a4.32,4.32,0,0,1-6.13,0l-22.47-22.47a4.34,4.34,0,0,1,0-6.13l5.78-5.78a4.33,4.33,0,0,1,6.14,0l22.46,22.46a4.33,4.33,0,0,1,0,6.14"/></g></g><g class="cls-3"><g class="cls-20"><path class="cls-11" d="M1681.76,32h-53.09V191h53.09a5.23,5.23,0,0,0,5.23-5.23V37.26a5.23,5.23,0,0,0-5.23-5.23"/><path class="cls-12" d="M1574.64,32a5.23,5.23,0,0,0-5.23,5.23V185.77a5.23,5.23,0,0,0,5.23,5.23h54V32Z"/><rect class="cls-5" x="1580.23" y="41.44" width="95.94" height="140.15"/><polygon class="cls-13" points="1654.54 49.9 1601.86 49.9 1598.1 28.27 1658.3 28.27 1654.54 49.9"/><rect class="cls-7" x="1590.1" y="64.01" width="75.25" height="4.7"/><rect class="cls-7" x="1590.11" y="72.48" width="31.98" height="4.7"/><rect class="cls-21" x="1590.1" y="84.71" width="3.76" height="3.76"/><rect class="cls-12" x="1598.57" y="85.18" width="54.56" height="2.82"/><rect class="cls-21" x="1590.1" y="91.29" width="3.76" height="3.76"/><rect class="cls-12" x="1598.57" y="91.76" width="66.78" height="2.82"/><rect class="cls-21" x="1590.1" y="97.88" width="3.76" height="3.76"/><rect class="cls-12" x="1598.57" y="98.34" width="48.91" height="2.82"/><rect class="cls-21" x="1590.1" y="104.46" width="3.76" height="3.76"/><rect class="cls-12" x="1598.57" y="104.93" width="60.2" height="2.82"/><rect class="cls-7" x="1590.1" y="118.57" width="75.25" height="4.7"/><rect class="cls-7" x="1590.1" y="127.03" width="50.79" height="4.7"/><rect class="cls-21" x="1590.1" y="139.26" width="3.76" height="3.76"/><rect class="cls-12" x="1598.57" y="139.73" width="63.02" height="2.82"/><rect class="cls-21" x="1590.1" y="145.85" width="3.76" height="3.76"/><rect class="cls-12" x="1598.57" y="146.32" width="48.91" height="2.82"/><rect class="cls-21" x="1590.1" y="152.43" width="3.76" height="3.76"/><rect class="cls-12" x="1598.57" y="152.9" width="44.21" height="2.82"/><rect class="cls-21" x="1590.1" y="159.02" width="3.76" height="3.76"/><rect class="cls-12" x="1598.57" y="159.49" width="58.32" height="2.82"/><polygon class="cls-13" points="1594.88 95.48 1593.31 93.72 1595.07 92.16 1593.82 90.75 1592.06 92.31 1590.5 90.56 1589.1 91.81 1590.66 93.56 1588.9 95.13 1590.15 96.53 1591.91 94.97 1593.47 96.73 1594.88 95.48"/><polygon class="cls-13" points="1594.88 156.62 1593.31 154.86 1595.07 153.3 1593.82 151.89 1592.06 153.46 1590.5 151.7 1589.1 152.95 1590.66 154.7 1588.9 156.27 1590.15 157.67 1591.91 156.11 1593.47 157.87 1594.88 156.62"/><path class="cls-11" d="M1510.13,51.51a3.95,3.95,0,1,0,0-7.89h-68a3.95,3.95,0,1,0,0,7.89Z"/><path class="cls-11" d="M1510.13,142a3.95,3.95,0,1,1,0,7.89h-68a3.95,3.95,0,1,1,0-7.89Z"/><path class="cls-5" d="M1502.18,142c-1-21.27-9.56-38.61-21.4-43.17a2.39,2.39,0,0,1,0-4.12c11.84-4.56,20.43-21.9,21.4-43.17h-52.09c1,20.89,9.37,38.16,20.93,43a2.18,2.18,0,0,1,1.14,2v.38a2.18,2.18,0,0,1-1.14,2c-11.56,4.83-20,22.1-20.93,43Z"/><path class="cls-14" d="M1496.93,51.34c-.81,19.78-8,36.44-17.58,40.51a5.65,5.65,0,0,0,0,9.79c9.54,4.06,16.77,20.72,17.58,40.51l-41.59,0c.8-19.43,7.89-36,17.23-40.33a5.27,5.27,0,0,0,2.72-4.85v-.38a5.27,5.27,0,0,0-2.72-4.85c-9.34-4.32-16.43-20.9-17.23-40.33Z"/><path class="cls-13" d="M1496.82,140.06c-2.44-2.95-13.49-12.3-20-13.58a.92.92,0,0,1-.32-.38,1.1,1.1,0,0,1-.12-.51l.1-28.73s0-.08,0-.12a5.22,5.22,0,0,1,2.83-4.89l.92-.44.29-.17.63-.35.33-.22.57-.38.33-.25.55-.43.33-.27.54-.48.31-.29.55-.55.28-.28.57-.63.24-.27.6-.74.18-.23c.23-.29.45-.58.66-.88l.11-.15a42.47,42.47,0,0,0,4.83-9.2c-3.68,2.15-11.68,6.83-16.33,6.83-4.48,0-12.18-4.34-15.62-6.58,3.08,7.78,7.4,13.52,12.35,15.81a5.27,5.27,0,0,1,2.72,4.85v.38a6.29,6.29,0,0,1-.26,1.76l.18,27.2a1,1,0,0,1-.4.82c-3.37.2-16.12,9.55-19.34,13.07,0,.78-.09,1.55-.13,2.33l41.59,0c0-.71-.06-1.4-.11-2.09"/><path class="cls-17" d="M343.39,812.63l-.18-1.6a1.71,1.71,0,0,1,1.58-1.9q1.4-.09,2.79-.06a1.7,1.7,0,0,1,1.67,1.82l-.11,1.61a1.7,1.7,0,0,0,1.48,1.8c.74.1,1.48.22,2.21.37a1.69,1.69,0,0,0,2-1.23l.41-1.57a1.7,1.7,0,0,1,2.16-1.19c.89.28,1.77.6,2.63,1a1.7,1.7,0,0,1,.89,2.3l-.69,1.46a1.7,1.7,0,0,0,.74,2.22c.65.35,1.3.73,1.93,1.13a1.67,1.67,0,0,0,2.28-.44l.95-1.31a1.7,1.7,0,0,1,2.44-.33c.73.58,1.43,1.19,2.11,1.82a1.71,1.71,0,0,1,0,2.47l-1.17,1.12a1.69,1.69,0,0,0-.11,2.32c.49.57.95,1.16,1.4,1.76a1.69,1.69,0,0,0,2.29.42l1.35-.88a1.69,1.69,0,0,1,2.4.57c.47.8.91,1.63,1.31,2.47a1.72,1.72,0,0,1-.88,2.31l-1.53.63a1.69,1.69,0,0,0-1,2.09c.24.73.47,1.53.67,2.2a1.69,1.69,0,0,0,2,1.19l1.63-.35a1.7,1.7,0,0,1,2,1.4q.23,1.38.33,2.76a1.71,1.71,0,0,1-1.65,1.84l-1.62,0a1.68,1.68,0,0,0-1.64,1.65c0,.75-.07,1.5-.15,2.24a1.69,1.69,0,0,0,1.41,1.85l1.6.25a1.72,1.72,0,0,1,1.4,2c-.2.91-.43,1.81-.7,2.71a1.71,1.71,0,0,1-2.21,1.11l-1.52-.55a1.69,1.69,0,0,0-2.13.94c-.29.69-.6,1.37-.94,2a1.67,1.67,0,0,0,.65,2.23l1.39.81a1.71,1.71,0,0,1,.57,2.41c-.51.77-1.05,1.53-1.62,2.26a1.69,1.69,0,0,1-2.45.25L370.58,864a1.69,1.69,0,0,0-2.33.11c-.52.54-1.05,1.06-1.61,1.55a1.7,1.7,0,0,0-.2,2.33l1,1.26a1.7,1.7,0,0,1-.34,2.44c-.75.55-1.53,1.06-2.33,1.54a1.7,1.7,0,0,1-2.38-.66l-.76-1.42a1.69,1.69,0,0,0-2.21-.74q-1,.46-2.07.87a1.69,1.69,0,0,0-1,2.09l.48,1.55a1.69,1.69,0,0,1-1.18,2.15l-1.24.3c-.5.11-1,.2-1.5.29a1.68,1.68,0,0,1-2-1.47l-.2-1.6a1.7,1.7,0,0,0-1.8-1.48c-.75.05-1.5.07-2.24.06a1.71,1.71,0,0,0-1.71,1.59l-.1,1.62A1.7,1.7,0,0,1,343,878c-.93-.11-1.85-.25-2.76-.43a1.7,1.7,0,0,1-1.32-2.09l.39-1.57a1.69,1.69,0,0,0-1.14-2c-.71-.22-1.42-.47-2.11-.75a1.69,1.69,0,0,0-2.16.87l-.68,1.46a1.71,1.71,0,0,1-2.34.8c-.82-.43-1.62-.9-2.41-1.4a1.7,1.7,0,0,1-.48-2.42l.93-1.31a1.7,1.7,0,0,0-.33-2.31c-.59-.46-1.15-.95-1.7-1.46a1.69,1.69,0,0,0-2.33,0l-1.16,1.13a1.71,1.71,0,0,1-2.47-.1c-.61-.7-1.2-1.43-1.75-2.18a1.7,1.7,0,0,1,.42-2.43l1.35-.89a1.69,1.69,0,0,0,.52-2.27c-.38-.65-.73-1.31-1.06-2a1.69,1.69,0,0,0-2.18-.82l-1.46.62a1.7,1.7,0,0,1-2.27-1c-.34-1-.67-2.17-.94-3.1a1.7,1.7,0,0,1,1.3-2.12l1.52-.31a1.69,1.69,0,0,0,1.34-1.91c-.12-.75-.2-1.49-.26-2.23a1.68,1.68,0,0,0-1.72-1.57l-1.61,0a1.69,1.69,0,0,1-1.73-1.76c0-.93.1-1.86.2-2.79a1.71,1.71,0,0,1,2-1.48l1.59.27a1.68,1.68,0,0,0,1.93-1.3c.17-.73.36-1.46.58-2.17a1.7,1.7,0,0,0-1-2.09l-1.52-.55a1.71,1.71,0,0,1-1-2.27c.36-.85.76-1.69,1.19-2.52a1.71,1.71,0,0,1,2.38-.67l1.39.83a1.69,1.69,0,0,0,2.27-.52c.42-.62.85-1.23,1.31-1.82a1.69,1.69,0,0,0-.21-2.32L322.25,822a1.71,1.71,0,0,1-.1-2.47c.65-.66,1.32-1.31,2-1.92a1.7,1.7,0,0,1,2.46.23l1,1.26a1.68,1.68,0,0,0,2.3.34c.61-.43,1.24-.84,1.89-1.22a1.69,1.69,0,0,0,.64-2.24l-.75-1.43a1.7,1.7,0,0,1,.8-2.34c.84-.39,1.71-.74,2.58-1.06a1.7,1.7,0,0,1,2.21,1.1l.47,1.54a1.69,1.69,0,0,0,2,1.15l.77-.18c.48-.11.95-.2,1.43-.28a1.69,1.69,0,0,0,1.4-1.86m-8.46,33.72a12.31,12.31,0,1,0,9.37-14.69,12.3,12.3,0,0,0-9.37,14.69"/><path class="cls-7" d="M382.57,770.89a20.6,20.6,0,0,1,2.8,1.22,1.11,1.11,0,0,0,1.46-.43l.68-1.16a1.13,1.13,0,0,1,1.59-.36,24.52,24.52,0,0,1,2.87,2.2A1.13,1.13,0,0,1,392,774l-.94,1a1.11,1.11,0,0,0,0,1.52,19.82,19.82,0,0,1,1.9,2.38,1.11,1.11,0,0,0,1.49.3l1.15-.71a1.12,1.12,0,0,1,1.55.39,25.06,25.06,0,0,1,1.54,3.38,1.11,1.11,0,0,1-.72,1.43l-1.28.4a1.1,1.1,0,0,0-.75,1.32,21,21,0,0,1,.55,3,1.11,1.11,0,0,0,1.18,1l1.28-.07a1.11,1.11,0,0,1,1.18,1.14c0,1-.08,2.39-.18,3.53a1.12,1.12,0,0,1-1.32,1l-1.28-.23a1.09,1.09,0,0,0-1.28.81,22,22,0,0,1-.92,2.92,1.1,1.1,0,0,0,.58,1.4l1.22.55a1.13,1.13,0,0,1,.53,1.54,24.38,24.38,0,0,1-1.9,3.09,1.12,1.12,0,0,1-1.61.23l-1-.83a1.1,1.1,0,0,0-1.51.12,21.82,21.82,0,0,1-2.17,2.13,1.12,1.12,0,0,0-.15,1.52l.82,1.06a1.11,1.11,0,0,1-.22,1.58,25.72,25.72,0,0,1-3.19,1.89,1.12,1.12,0,0,1-1.5-.57l-.54-1.23a1.1,1.1,0,0,0-1.39-.61,20.48,20.48,0,0,1-2.92.87,1.1,1.1,0,0,0-.84,1.27l.22,1.32a1.13,1.13,0,0,1-1,1.3c-.73.08-1.48.14-2.22.16-.46,0-.92,0-1.38,0a1.12,1.12,0,0,1-1.09-1.2l.1-1.33a1.1,1.1,0,0,0-.95-1.19,21.41,21.41,0,0,1-3-.61,1.12,1.12,0,0,0-1.33.73l-.42,1.27a1.13,1.13,0,0,1-1.48.68,24.5,24.5,0,0,1-3.27-1.56,1.12,1.12,0,0,1-.4-1.58l.72-1.13a1.1,1.1,0,0,0-.28-1.49,21.81,21.81,0,0,1-2.35-1.94,1.1,1.1,0,0,0-1.52,0l-1,.92a1.13,1.13,0,0,1-1.62-.09,25.48,25.48,0,0,1-2.16-2.91,1.13,1.13,0,0,1,.39-1.58l1.16-.66a1.11,1.11,0,0,0,.46-1.45,21.18,21.18,0,0,1-1.17-2.82,1.1,1.1,0,0,0-1.35-.7l-1.29.36a1.12,1.12,0,0,1-1.38-.81,24.86,24.86,0,0,1-.55-3.66,1.12,1.12,0,0,1,1.09-1.17l1.34,0a1.09,1.09,0,0,0,1.08-1.07c0-.52.05-1,.1-1.55a1.1,1.1,0,0,0-1-1.19l-1.32-.2a1.12,1.12,0,0,1-.94-1.33,24.85,24.85,0,0,1,1-3.5,1.12,1.12,0,0,1,1.48-.67l1.24.51a1.11,1.11,0,0,0,1.43-.53,20.29,20.29,0,0,1,1.5-2.65,1.12,1.12,0,0,0-.28-1.5l-1.08-.79a1.12,1.12,0,0,1-.19-1.62,25.65,25.65,0,0,1,2.48-2.63,1.14,1.14,0,0,1,1.63.11l.85,1a1.1,1.1,0,0,0,1.51.2,19.64,19.64,0,0,1,2.57-1.64,1.11,1.11,0,0,0,.45-1.45l-.58-1.21a1.1,1.1,0,0,1,.55-1.5,23.1,23.1,0,0,1,3.52-1.18,1.1,1.1,0,0,1,1.34.86l.27,1.32a1.11,1.11,0,0,0,1.25.88,20.25,20.25,0,0,1,2.61-.23h.39a1.13,1.13,0,0,0,1.1-1.09l.06-1.31a1.12,1.12,0,0,1,1.23-1.07,25.45,25.45,0,0,1,3.58.59,1.13,1.13,0,0,1,.82,1.41l-.38,1.28a1.1,1.1,0,0,0,.67,1.36m-14.5,20a7.58,7.58,0,1,0,7.38-7.78,7.58,7.58,0,0,0-7.38,7.78"/><path class="cls-16" d="M340.4,787.06l0,.05a1.39,1.39,0,0,0,.77,1.64,8.57,8.57,0,0,1,1.78,1.11,1.4,1.4,0,0,0,1.82,0l.12-.12a1.34,1.34,0,0,1,2,.17,11.16,11.16,0,0,1,1.44,2.68,1.35,1.35,0,0,1-1,1.76l-.27.06a1.38,1.38,0,0,0-1.05,1.39,17.59,17.59,0,0,1,0,2.28,1.39,1.39,0,0,0,1,1.43l.2.06a1.36,1.36,0,0,1,.86,1.84,11.37,11.37,0,0,1-1.61,2.56,1.35,1.35,0,0,1-2,0l-.11-.12a1.39,1.39,0,0,0-1.81-.17,8.71,8.71,0,0,1-1.86,1,1.38,1.38,0,0,0-.88,1.58h0a1.37,1.37,0,0,1-1.28,1.67c-.81,0-1.8,0-2.7,0a1.37,1.37,0,0,1-1.17-1.77l0-.06a1.39,1.39,0,0,0-.75-1.65,8.55,8.55,0,0,1-1.77-1.12,1.38,1.38,0,0,0-1.82,0l-.12.11a1.34,1.34,0,0,1-2-.18,11.38,11.38,0,0,1-1.41-2.7,1.35,1.35,0,0,1,1-1.75l.15,0a1.38,1.38,0,0,0,1.06-1.47,8.67,8.67,0,0,1,.06-1.91,1.38,1.38,0,0,0-.94-1.55l-.16,0a1.36,1.36,0,0,1-.88-1.83,11.6,11.6,0,0,1,1.58-2.58,1.35,1.35,0,0,1,2-.05l.12.12a1.37,1.37,0,0,0,1.81.15,8.18,8.18,0,0,1,1.84-1,1.38,1.38,0,0,0,.87-1.6,1.37,1.37,0,0,1,1.27-1.68c.8,0,1.79,0,2.69,0a1.37,1.37,0,0,1,1.19,1.76m-7.75,10.61a5,5,0,1,0,3.81-6,5,5,0,0,0-3.81,6"/><path class="cls-11" d="M374.94,788a2.76,2.76,0,1,1-2.1,3.29,2.76,2.76,0,0,1,2.1-3.29"/><path class="cls-11" d="M337.19,795.05a1.57,1.57,0,1,1-1.2,1.87,1.58,1.58,0,0,1,1.2-1.87"/><path class="cls-11" d="M351.79,841.91a5.15,5.15,0,1,1-6.67-2.93,5.14,5.14,0,0,1,6.67,2.93"/><polygon class="cls-11" points="1510.68 527.99 1520.36 530.9 1520.36 525.09 1510.68 527.99"/><polygon class="cls-5" points="1538.56 519.62 1520.35 525.09 1520.35 530.9 1538.56 536.37 1538.56 519.62"/><rect class="cls-16" x="1538.56" y="528.06" width="150.55" height="8.53"/><rect class="cls-8" x="1538.56" y="519.52" width="150.55" height="8.53"/><path class="cls-11" d="M1689.11,536.59a8.54,8.54,0,1,0,0-17.07Z"/><rect class="cls-11" x="1670.91" y="519.52" width="3.98" height="17.07"/><path class="cls-11" d="M1811.84,713.64l-3.4-18.21a74.5,74.5,0,0,0-59.83,59.64l18.44,3.28a55.66,55.66,0,0,1,44.79-44.71"/><path class="cls-11" d="M1876.3,758.35l18.44-3.28a74.49,74.49,0,0,0-59.6-59.59l-3.24,18.23a55.68,55.68,0,0,1,44.4,44.64"/><path class="cls-11" d="M1767.06,778.32l-18.49,3.45a74.46,74.46,0,0,0,59.87,59.87l3.49-18.69a55.66,55.66,0,0,1-44.87-44.63"/><path class="cls-11" d="M1831.81,822.88l3.33,18.72a74.5,74.5,0,0,0,59.64-59.83l-18.5-3.45a55.67,55.67,0,0,1-44.47,44.56"/><path class="cls-6" d="M1815,730.74l-3.19-17.1a55.66,55.66,0,0,0-44.79,44.71l17.12,3A38.23,38.23,0,0,1,1815,730.74"/><path class="cls-6" d="M1831.9,713.71l-3,17.12a38.26,38.26,0,0,1,30.32,30.56l17.12-3a55.68,55.68,0,0,0-44.4-44.64"/><path class="cls-6" d="M1828.77,805.76l3,17.12a55.67,55.67,0,0,0,44.47-44.56l-17.09-3.19a38.25,38.25,0,0,1-30.42,30.63"/><path class="cls-6" d="M1784.16,775.13l-17.1,3.19A55.66,55.66,0,0,0,1811.93,823l3.19-17.09a38.23,38.23,0,0,1-31-30.73"/><path class="cls-22" d="M1821.67,712.75a55.61,55.61,0,0,1,10.23,1l3.24-18.23a73.84,73.84,0,0,0-13.47-1.25,74.91,74.91,0,0,0-13.23,1.2l3.4,18.21a55.89,55.89,0,0,1,9.83-.89"/><path class="cls-5" d="M1821.67,730.15a38.69,38.69,0,0,1,7.19.68l3-17.12a54.86,54.86,0,0,0-20.06-.07l3.19,17.1a38.22,38.22,0,0,1,6.64-.59"/><polygon class="cls-5" points="1822.08 768.54 1822.12 768.35 1822.15 768.54 1822.21 768.23 1822.02 768.19 1822.08 768.54"/><path class="cls-22" d="M1821.67,823.82a55.83,55.83,0,0,1-9.74-.87l-3.49,18.69a74,74,0,0,0,13.23,1.21,74.74,74.74,0,0,0,13.47-1.25l-3.33-18.72a55.51,55.51,0,0,1-10.14.94"/><path class="cls-5" d="M1821.67,806.43a38.26,38.26,0,0,1-6.55-.57L1811.93,823a55.06,55.06,0,0,0,19.88-.07l-3-17.12a38.58,38.58,0,0,1-7.1.67"/><polygon class="cls-5" points="1822.08 768.54 1822.12 768.73 1822.15 768.54 1822.12 768.35 1822.08 768.54"/><path class="cls-22" d="M1766.14,768.29a55.1,55.1,0,0,1,.91-9.94l-18.44-3.28a74.74,74.74,0,0,0-1.25,13.47,74,74,0,0,0,1.21,13.23l18.49-3.45a56.27,56.27,0,0,1-.92-10"/><path class="cls-5" d="M1783.53,768.29a38.25,38.25,0,0,1,.64-6.9l-17.12-3a55.1,55.1,0,0,0-.91,9.94,56.27,56.27,0,0,0,.92,10l17.1-3.19a37.67,37.67,0,0,1-.63-6.84"/><path class="cls-22" d="M1894.74,755.07l-18.44,3.28a56,56,0,0,1,.91,9.94,55.36,55.36,0,0,1-.93,10l18.5,3.45a73.66,73.66,0,0,0,0-26.7"/><path class="cls-5" d="M1859.81,768.29a38.58,38.58,0,0,1-.62,6.84l17.09,3.19a55.36,55.36,0,0,0,.93-10,56,56,0,0,0-.91-9.94l-17.12,3a38.25,38.25,0,0,1,.63,6.9"/><polygon class="cls-5" points="1821.86 768.09 1821.67 768.13 1822.02 768.19 1821.98 768 1821.67 768.06 1821.86 768.09"/><polygon class="cls-5" points="1822.21 768.23 1822.26 767.96 1821.98 768 1822.02 768.19 1822.21 768.23"/><rect class="cls-11" x="88.33" y="522" width="84.55" height="16.91"/><polygon class="cls-5" points="155.97 623.46 88.33 623.46 88.33 538.91 172.88 538.91 172.88 606.55 155.97 623.46"/><polygon class="cls-22" points="172.88 623.46 172.88 606.55 155.97 623.46 172.88 623.46"/><path class="cls-17" d="M88.33,522v8.79h17.92a4.74,4.74,0,0,1,9.47,0h29.77a4.73,4.73,0,0,1,9.46,0h17.93V522Z"/><path class="cls-22" d="M111,532.82a2,2,0,0,1-2-2h-2.71a4.74,4.74,0,1,0,9.47,0H113a2,2,0,0,1-2,2"/><path class="cls-14" d="M111,526.06a4.74,4.74,0,0,0-4.74,4.73H109a2,2,0,0,1,4.06,0h2.7a4.73,4.73,0,0,0-4.73-4.73"/><path class="cls-22" d="M150.22,532.82a2,2,0,0,1-2-2h-2.71a4.74,4.74,0,1,0,9.47,0h-2.7a2,2,0,0,1-2,2"/><path class="cls-14" d="M150.22,526.06a4.74,4.74,0,0,0-4.74,4.73h2.71a2,2,0,0,1,4.06,0H155a4.73,4.73,0,0,0-4.73-4.73"/><path class="cls-15" d="M111,532.82a2,2,0,0,0,2-2H109a2,2,0,0,0,2,2"/><path class="cls-7" d="M111,528.76a2,2,0,0,0-2,2H113a2,2,0,0,0-2-2"/><path class="cls-15" d="M150.22,532.82a2,2,0,0,0,2-2h-4.06a2,2,0,0,0,2,2"/><path class="cls-7" d="M150.22,528.76a2,2,0,0,0-2,2h4.06a2,2,0,0,0-2-2"/><path class="cls-16" d="M120,569.35H112.1a1.45,1.45,0,0,1-1.45-1.45V560a1.44,1.44,0,0,1,1.45-1.44H120a1.43,1.43,0,0,1,1.44,1.44v7.93a1.44,1.44,0,0,1-1.44,1.45"/><path class="cls-16" d="M134.91,569.35H127a1.45,1.45,0,0,1-1.45-1.45V560a1.44,1.44,0,0,1,1.45-1.44h7.93a1.43,1.43,0,0,1,1.44,1.44v7.93a1.44,1.44,0,0,1-1.44,1.45"/><path class="cls-16" d="M149.79,569.35h-7.93a1.45,1.45,0,0,1-1.45-1.45V560a1.44,1.44,0,0,1,1.45-1.44h7.93a1.43,1.43,0,0,1,1.44,1.44v7.93a1.44,1.44,0,0,1-1.44,1.45"/><path class="cls-16" d="M164.67,569.35h-7.93a1.45,1.45,0,0,1-1.45-1.45V560a1.44,1.44,0,0,1,1.45-1.44h7.93a1.44,1.44,0,0,1,1.45,1.44v7.93a1.45,1.45,0,0,1-1.45,1.45"/><path class="cls-16" d="M105.15,582.88H97.21a1.45,1.45,0,0,1-1.44-1.45V573.5a1.45,1.45,0,0,1,1.44-1.45h7.94a1.45,1.45,0,0,1,1.44,1.45v7.93a1.45,1.45,0,0,1-1.44,1.45"/><path class="cls-16" d="M120,582.88H112.1a1.45,1.45,0,0,1-1.45-1.45V573.5a1.45,1.45,0,0,1,1.45-1.45H120a1.44,1.44,0,0,1,1.44,1.45v7.93a1.44,1.44,0,0,1-1.44,1.45"/><path class="cls-16" d="M134.91,582.88H127a1.45,1.45,0,0,1-1.45-1.45V573.5a1.45,1.45,0,0,1,1.45-1.45h7.93a1.44,1.44,0,0,1,1.44,1.45v7.93a1.44,1.44,0,0,1-1.44,1.45"/><path class="cls-16" d="M149.79,582.88h-7.93a1.45,1.45,0,0,1-1.45-1.45V573.5a1.45,1.45,0,0,1,1.45-1.45h7.93a1.44,1.44,0,0,1,1.44,1.45v7.93a1.44,1.44,0,0,1-1.44,1.45"/><path class="cls-16" d="M164.67,582.88h-7.93a1.45,1.45,0,0,1-1.45-1.45V573.5a1.45,1.45,0,0,1,1.45-1.45h7.93a1.45,1.45,0,0,1,1.45,1.45v7.93a1.45,1.45,0,0,1-1.45,1.45"/><path class="cls-16" d="M105.15,596.4H97.21A1.44,1.44,0,0,1,95.77,595V587a1.45,1.45,0,0,1,1.44-1.45h7.94a1.45,1.45,0,0,1,1.44,1.45V595a1.44,1.44,0,0,1-1.44,1.44"/><path class="cls-16" d="M120,596.4H112.1a1.44,1.44,0,0,1-1.45-1.44V587a1.45,1.45,0,0,1,1.45-1.45H120a1.44,1.44,0,0,1,1.44,1.45V595A1.43,1.43,0,0,1,120,596.4"/><path class="cls-16" d="M134.91,596.4H127a1.44,1.44,0,0,1-1.45-1.44V587a1.45,1.45,0,0,1,1.45-1.45h7.93a1.44,1.44,0,0,1,1.44,1.45V595a1.43,1.43,0,0,1-1.44,1.44"/><path class="cls-6" d="M149.79,596.4h-7.93a1.44,1.44,0,0,1-1.45-1.44V587a1.45,1.45,0,0,1,1.45-1.45h7.93a1.44,1.44,0,0,1,1.44,1.45V595a1.43,1.43,0,0,1-1.44,1.44"/><path class="cls-16" d="M164.67,596.4h-7.93a1.44,1.44,0,0,1-1.45-1.44V587a1.45,1.45,0,0,1,1.45-1.45h7.93a1.45,1.45,0,0,1,1.45,1.45V595a1.44,1.44,0,0,1-1.45,1.44"/><path class="cls-16" d="M105.15,609.93H97.21a1.44,1.44,0,0,1-1.44-1.44v-7.93a1.45,1.45,0,0,1,1.44-1.45h7.94a1.45,1.45,0,0,1,1.44,1.45v7.93a1.44,1.44,0,0,1-1.44,1.44"/><path class="cls-16" d="M120,609.93H112.1a1.44,1.44,0,0,1-1.45-1.44v-7.93a1.45,1.45,0,0,1,1.45-1.45H120a1.44,1.44,0,0,1,1.44,1.45v7.93a1.43,1.43,0,0,1-1.44,1.44"/><path class="cls-16" d="M134.91,609.93H127a1.44,1.44,0,0,1-1.45-1.44v-7.93a1.45,1.45,0,0,1,1.45-1.45h7.93a1.44,1.44,0,0,1,1.44,1.45v7.93a1.43,1.43,0,0,1-1.44,1.44"/><rect class="cls-11" x="95.77" y="546.89" width="43.97" height="6.76"/><polygon class="cls-14" points="155.97 606.55 155.97 623.46 172.88 606.55 155.97 606.55"/><polygon class="cls-16" points="181.13 629.65 96.55 629.65 88.3 623.46 172.88 623.46 181.13 629.65"/><polygon class="cls-8" points="172.88 538.96 172.88 623.46 181.13 629.65 181.13 545.15 172.88 538.96"/><polygon class="cls-12" points="172.88 522 172.88 538.94 181.13 545.12 181.13 528.19 172.88 522"/><path class="cls-7" d="M490.13,905.12,487,908.3a58.75,58.75,0,1,1-83.09,83.09l-3.18,3.18c11,11,26.92,17,41.34,18.16l0,16.36,10.7-.15v-16.32a63.19,63.19,0,0,0,37.39-107.5"/><path class="cls-8" d="M497.17,948.21a2,2,0,0,1-.12.24l-.82,4.13c-.47,2.32.11,2.68.64,3.29a53.29,53.29,0,0,0,.35-6c0-.57,0-1.13-.05-1.7"/><path class="cls-8" d="M496.53,958.35c0-.13.05-.25.07-.38-.13-.07-.12.07-.07.38"/><path class="cls-8" d="M451.53,929c2.79,2.07,2.17-.82,4.23-2.89s0,0-4.23-7c-1.17-1.94-2.79-5-2.93-2.48a2.36,2.36,0,0,1-1.13,2v6.72a30.65,30.65,0,0,0,4.06,3.66"/><path class="cls-8" d="M487.56,965c-2.07-6.6,2.47,1.24,3.71-3.3s0,0,.83-2.89,0,0-.83-7.43,0,0-4.54.41,0,0-3.3,5.37-3.72,4.54-3.72,4.54l-1.65-5.78c-1.65-5.78,2.89-2.48,0-11.56s0,0-5-4.13,0,0-5-2.91a10.51,10.51,0,0,1-2.48-1.9c0,2.21,0,0,.27,4.81s1.38,2.06,0,4.54-1.92,2.07-7.7.83,0,0-2.89-5.78c-1-1.9-1.32-2.32-1.45-2.37,0,.26-.12,0,0,0a23.37,23.37,0,0,0-.62-4.65c-.48-2.67-.7-1-1.25-.78a.76.76,0,0,0-.5.78l.11,1.12s-.33.41-.05,1.4c.23.79.41.63.4,1.3,0,.4-.28.42-.46,1-.29.94.27,1.54,0,1.85s.14.55,0,.74a1,1,0,0,0,.24.89c.87.75-.16.79,0,1.29.2.92.21.41.46.73s-.24.12,0,.4-.87,1.2-.65,2.09c.13.5.58.53,1.49,1.29s.78,1,1.72,1.91c1.16,1.12,1.6.84,2.26,1.75,3.3,4.54-.83,2.89-5.37,4.54-3.76,1.37-1.88-.47-4.16,1.29v15c2-1,3.85-1.69,4.06-.59.32,1.65-1.14,2.06-2.93,3.71-.36.34-.74.69-1.13,1.07v26.57a52.28,52.28,0,0,0,47.49-37c-1.74,4-4.39,9.59-5.34,11.77-1.24,2.85,0-5.32-2.06-11.93"/><path class="cls-8" d="M448.6,907.16l8.4,5.36,4.13-4.54-7-3.09,4.95-3.1,6.88,3.72,4.27,2.47,2.87-2.1a51.94,51.94,0,0,0-25.61-8.15v9.15Z"/><path class="cls-23" d="M496.23,952.58l.82-4.13a2,2,0,0,0,.12-.24,52.17,52.17,0,0,0-24.08-42.33l-2.88,2.1-4.27-2.47-6.88-3.72-4.95,3.1,7,3.09L457,912.52l-8.4-5.36-1.13-.28v11.78a2.34,2.34,0,0,0,1.13-2c.14-2.47,1.77.54,2.93,2.48,4.23,7,6.3,5,4.23,7s-1.44,5-4.23,2.89a31.37,31.37,0,0,1-4.06-3.66v31c2.28-1.76.4.08,4.16-1.28,4.54-1.66,8.67,0,5.37-4.55-.66-.91-1.1-.63-2.26-1.75-.94-.9-.8-1.14-1.72-1.9s-1.36-.8-1.49-1.3c-.22-.89.91-1.76.65-2.09s.24-.13,0-.4-.26.19-.46-.73c-.12-.5.91-.54,0-1.29a1,1,0,0,1-.23-.89c.09-.19-.47-.3-.05-.74s-.26-.91,0-1.85c.18-.57.45-.59.46-1,0-.67-.17-.51-.4-1.29-.28-1,.05-1.41.05-1.41l-.11-1.12a.76.76,0,0,1,.5-.78c.55-.25.77-1.89,1.25.78a23.37,23.37,0,0,1,.62,4.65c.13.05.5.48,1.45,2.37,2.89,5.78-2.89,4.54,2.89,5.78s6.32,1.65,7.7-.83.27.41,0-4.54-.27-2.6-.27-4.81c-1.39-1.56,0-2,0-.14v.14a10.51,10.51,0,0,0,2.48,1.9c5,2.91,0-1.22,5,2.91s2.07-5,5,4.13-1.65,5.78,0,11.56l1.65,5.78s.41.83,3.72-4.54-1.24-5,3.3-5.37,3.72-7.84,4.54-.41,1.65,4.54.83,7.43.41-1.65-.83,2.89-5.78-3.3-3.71,3.31.82,14.77,2.06,11.92c.95-2.18,3.6-7.78,5.34-11.77a52.44,52.44,0,0,0,1.57-6.77c0-.31-.06-.45.07-.38.11-.7.19-1.4.27-2.1-.52-.61-1.11-1-.64-3.29"/><path class="cls-11" d="M465.67,935.38v-.15c0-1.85-1.39-1.41,0,.15"/><path class="cls-11" d="M453.9,937.41c-.12,0,0,.26,0,0"/><path class="cls-23" d="M448.6,974.46c1.79-1.65,3.25-2.06,2.93-3.71-.21-1.1-2.09-.38-4.06.59v4.18l1.13-1.06"/><path class="cls-22" d="M442.55,981.07l-2.48-5.44c-2.48-5.43,2.06-1.58,4.54-2.82.84-.42,1.86-1,2.86-1.47v-15c-.47.36-1.12.87-2,1.61-2.07,1.65-2.07,1.65-3.14,5.78s-.58,3.3-3.47,6.6-2.06,1.24-4.95,3.72-2.48,2.48-7.44,2.48-2.06.82-6.6,0-4.18,1.32-5.42-4.87l-.41-6.24c-.25-3.85,2.11-1.69,3.76-7.06s0,0,1.24-4.13,0,0,.83-6.19.41-2.48-.42-8.68,0,0-3.71-4.54,0,0-3.31-5.37,0,0,2.07-6.19,0,0,1.65-3.72,2.07-3.3,10.32-5.83,3.72-1.19,12.39,2.53,0,0,3.3,6.61l4.55,1.65s.28.34.79.88v-6.72a3.44,3.44,0,0,1-1.62.47l-.82-3.3c-.83-3.31-.42-2.48-1.24-3.22s-8.26,0-8.26,0-4.13-.91-5.37-.09,1.65-4.95,1.65-4.95,4.54.41,5.78-5.78l4-4A52.24,52.24,0,0,0,445,1002.16c.84,0,1.67,0,2.5-.06V975.53a36.72,36.72,0,0,0-4.92,5.54"/><path class="cls-11" d="M441.72,897.77v7.73l5.75,1.38v-9.15c-.83,0-1.66-.07-2.5-.07-1.09,0-2.17,0-3.25.11"/><path class="cls-11" d="M441.72,897.66l-.12.12h.12Z"/><path class="cls-11" d="M442.14,922.85c-3.31-6.61,5.36-2.89-3.31-6.61s-4.13-5.07-12.39-2.53-8.67,2.12-10.32,5.83.41-2.47-1.65,3.72-5.37.83-2.06,6.19-.42.83,3.3,5.37,2.89-1.65,3.72,4.54,1.23,2.48.41,8.68.41,2.06-.83,6.19.42-1.24-1.24,4.13-4,3.21-3.76,7.06l.41,6.24c1.24,6.19.88,4,5.42,4.87s1.65,0,6.6,0,4.55,0,7.44-2.48,2.06-.41,4.95-3.72,2.4-2.47,3.47-6.6,1.07-4.13,3.14-5.78c.91-.73,1.56-1.25,2-1.61v-31c-.51-.54-.79-.88-.79-.88Z"/><path class="cls-11" d="M441.72,901.79v-4h-.12l-4,4c-1.24,6.19-5.78,5.78-5.78,5.78s-2.89,5.78-1.65,4.95,5.37.08,5.37.08,7.43-.74,8.26,0,.41-.08,1.24,3.23l.82,3.3a3.44,3.44,0,0,0,1.62-.47V906.88l-5.75-1.38Z"/><path class="cls-11" d="M440.07,975.63l2.48,5.44a36.72,36.72,0,0,1,4.92-5.54v-4.19c-1,.5-2,1-2.86,1.47-2.47,1.24-7-2.62-4.54,2.82"/><rect class="cls-15" x="447.47" y="1012.63" width="5.27" height="16.31"/><path class="cls-11" d="M426.44,1028.94a13.22,13.22,0,0,0-13.22,13.22h34.25v-13.22Z"/><path class="cls-23" d="M468.49,1028.94h-21v13.22h34.25a13.22,13.22,0,0,0-13.23-13.22"/></g></g><path class="cls-11" d="M1850.69,536.45l-16-41.47c-1.74-5.93-5-8.93-9.67-8.93h-39.8c-4.67,0-7.92,3-9.66,8.89l-14.49,41.51a13.89,13.89,0,0,0,12.64,19.73h64.29a13.9,13.9,0,0,0,12.64-19.73"/><path class="cls-8" d="M1785.27,492.24c-.91,0-2.42,0-3.74,4.48l0,.08-11,31.94a14.16,14.16,0,0,1,3.28-.41h32.14V492.24Z"/><path class="cls-16" d="M1841.33,528.74l-12.52-32c-1.33-4.52-2.84-4.52-3.74-4.52H1805.9v36.09h32.15a14.23,14.23,0,0,1,3.28.41"/><path class="cls-16" d="M1773.76,534.52a7.74,7.74,0,1,0,0,15.47h32.14V534.52Z"/><path class="cls-13" d="M1845.79,542.26a7.75,7.75,0,0,0-7.74-7.74H1805.9V550h32.15a7.75,7.75,0,0,0,7.74-7.73"/><path class="cls-5" d="M1841.32,540.37a3.1,3.1,0,1,1-3.1-3.1,3.09,3.09,0,0,1,3.1,3.1"/><path class="cls-22" d="M208.85,367.21a61.72,61.72,0,0,0,61.73,61.72V305.48a61.73,61.73,0,0,0-61.73,61.73"/><path class="cls-8" d="M332.31,367.21a61.73,61.73,0,0,0-61.73-61.73V428.93a61.72,61.72,0,0,0,61.73-61.72"/><polygon class="cls-5" points="279.94 373.04 310.26 367.21 279.94 361.37 287.34 350.45 276.42 357.85 270.58 327.52 264.75 357.85 253.83 350.45 261.22 361.37 230.9 367.21 261.22 373.04 253.83 383.96 264.75 376.57 270.58 406.89 276.42 376.57 287.34 383.96 279.94 373.04"/><polygon class="cls-17" points="262.77 374.81 309.33 406.35 270.28 367.3 262.77 374.81"/><polygon class="cls-15" points="231.23 328.25 262.77 374.81 270.28 367.3 231.23 328.25"/><polygon class="cls-13" points="277.8 359.79 270.28 367.3 309.33 406.35 277.8 359.79"/><polygon class="cls-16" points="277.8 359.79 231.23 328.25 270.28 367.3 277.8 359.79"/><path class="cls-12" d="M270.58,362.8a4.41,4.41,0,1,1-4.41,4.41,4.4,4.4,0,0,1,4.41-4.41"/><path class="cls-5" d="M272.05,309.15a1.47,1.47,0,1,1-1.47-1.47,1.47,1.47,0,0,1,1.47,1.47"/><path class="cls-5" d="M272.05,425.26a1.47,1.47,0,1,1-1.47-1.47,1.47,1.47,0,0,1,1.47,1.47"/><path class="cls-5" d="M262,309.78a1.47,1.47,0,0,1-1.19,1.7,1.47,1.47,0,1,1-.51-2.89,1.47,1.47,0,0,1,1.7,1.19"/><path class="cls-5" d="M282.11,424.12a1.47,1.47,0,1,1-1.7-1.19,1.47,1.47,0,0,1,1.7,1.19"/><path class="cls-5" d="M252.11,312.15a1.47,1.47,0,1,1-1.89-.88,1.48,1.48,0,0,1,1.89.88"/><path class="cls-5" d="M291.82,421.26a1.47,1.47,0,1,1-1.89-.88,1.47,1.47,0,0,1,1.89.88"/><path class="cls-5" d="M242.83,316.2a1.47,1.47,0,1,1-2-.54,1.47,1.47,0,0,1,2,.54"/><path class="cls-5" d="M300.88,416.75a1.47,1.47,0,0,1-2.54,1.47,1.47,1.47,0,1,1,2.54-1.47"/><path class="cls-5" d="M234.39,321.79a1.47,1.47,0,1,1-2.07-.18,1.47,1.47,0,0,1,2.07.18"/><path class="cls-5" d="M309,410.73a1.47,1.47,0,1,1-2.07-.18,1.46,1.46,0,0,1,2.07.18"/><path class="cls-5" d="M227.06,328.76a1.47,1.47,0,0,1-1.89,2.26,1.47,1.47,0,0,1,1.89-2.26"/><path class="cls-5" d="M316,403.4a1.47,1.47,0,1,1-2.07.18,1.47,1.47,0,0,1,2.07-.18"/><path class="cls-5" d="M221,336.91a1.47,1.47,0,1,1-2,.53,1.47,1.47,0,0,1,2-.53"/><path class="cls-5" d="M321.59,395a1.46,1.46,0,0,1,.54,2,1.47,1.47,0,1,1-.54-2"/><path class="cls-5" d="M216.53,346a1.47,1.47,0,1,1-1.88.88,1.46,1.46,0,0,1,1.88-.88"/><path class="cls-5" d="M325.64,385.68a1.47,1.47,0,1,1-1.89.88,1.46,1.46,0,0,1,1.89-.88"/><path class="cls-5" d="M213.67,355.68a1.47,1.47,0,1,1-1.71,1.19,1.47,1.47,0,0,1,1.71-1.19"/><path class="cls-5" d="M328,375.84a1.47,1.47,0,1,1-1.7,1.19,1.47,1.47,0,0,1,1.7-1.19"/><path class="cls-5" d="M212.53,365.74a1.47,1.47,0,1,1-1.47,1.47,1.47,1.47,0,0,1,1.47-1.47"/><path class="cls-5" d="M328.64,365.74a1.47,1.47,0,1,1-1.47,1.47,1.47,1.47,0,0,1,1.47-1.47"/><path class="cls-5" d="M213.16,375.84a1.47,1.47,0,1,1-1.2,1.7,1.47,1.47,0,0,1,1.2-1.7"/><path class="cls-5" d="M327.5,355.68a1.47,1.47,0,1,1-1.19,1.7,1.47,1.47,0,0,1,1.19-1.7"/><path class="cls-5" d="M215.53,385.68a1.47,1.47,0,1,1-.88,1.88,1.47,1.47,0,0,1,.88-1.88"/><path class="cls-5" d="M324.63,346a1.47,1.47,0,1,1-.88,1.88,1.48,1.48,0,0,1,.88-1.88"/><path class="cls-5" d="M219.57,395a1.47,1.47,0,1,1-.54,2,1.47,1.47,0,0,1,.54-2"/><path class="cls-5" d="M320.12,336.91a1.47,1.47,0,1,1-.54,2,1.47,1.47,0,0,1,.54-2"/><path class="cls-5" d="M225.17,403.4a1.47,1.47,0,1,1-.19,2.07,1.46,1.46,0,0,1,.19-2.07"/><path class="cls-5" d="M314.11,328.76a1.47,1.47,0,1,1-.18,2.08,1.48,1.48,0,0,1,.18-2.08"/><path class="cls-5" d="M232.14,410.73a1.47,1.47,0,1,1,.18,2.07,1.47,1.47,0,0,1-.18-2.07"/><path class="cls-5" d="M306.77,321.79a1.47,1.47,0,1,1,.18,2.07,1.47,1.47,0,0,1-.18-2.07"/><path class="cls-5" d="M240.28,416.75a1.47,1.47,0,1,1,.54,2,1.46,1.46,0,0,1-.54-2"/><path class="cls-5" d="M298.34,316.2a1.47,1.47,0,1,1,2.54,1.47,1.47,1.47,0,0,1-2.54-1.47"/><path class="cls-5" d="M249.35,421.26a1.47,1.47,0,1,1,2.76,1,1.47,1.47,0,1,1-2.76-1"/><path class="cls-5" d="M289.06,312.15a1.47,1.47,0,1,1,.87,1.88,1.47,1.47,0,0,1-.87-1.88"/><path class="cls-5" d="M259.05,424.12a1.47,1.47,0,1,1,1.2,1.71,1.47,1.47,0,0,1-1.2-1.71"/><path class="cls-5" d="M279.22,309.78a1.47,1.47,0,1,1,1.19,1.7,1.47,1.47,0,0,1-1.19-1.7"/><path class="cls-13" d="M272.05,367.21a1.47,1.47,0,1,1-1.47-1.47,1.47,1.47,0,0,1,1.47,1.47"/><path class="cls-17" d="M208.85,367.21a61.73,61.73,0,0,1,61.73-61.73V292.25a75,75,0,0,0,0,149.91V428.93a61.72,61.72,0,0,1-61.73-61.72"/><path class="cls-11" d="M345.54,367.21a75,75,0,0,0-75-75v13.23a61.73,61.73,0,1,1,0,123.45v13.23a75,75,0,0,0,75-75"/><rect class="cls-7" x="1626.49" y="458.71" width="117.11" height="6.07"/><rect class="cls-6" x="1626.49" y="412.09" width="117.11" height="46.62"/><rect class="cls-7" x="1626.49" y="400.16" width="117.11" height="11.94"/><rect class="cls-7" x="1626.49" y="395.49" width="117.11" height="3.09"/><rect class="cls-5" x="1626.49" y="398.58" width="117.11" height="1.57"/><rect class="cls-15" x="1620.82" y="458.71" width="5.68" height="6.07"/><rect class="cls-11" x="1620.82" y="412.09" width="5.68" height="46.62"/><rect class="cls-15" x="1620.82" y="400.16" width="5.68" height="11.94"/><rect class="cls-15" x="1620.82" y="395.49" width="5.68" height="3.09"/><rect class="cls-16" x="1620.82" y="398.58" width="5.68" height="1.57"/><rect class="cls-15" x="1743.6" y="458.71" width="5.68" height="6.07"/><rect class="cls-11" x="1743.6" y="412.09" width="5.68" height="46.62"/><rect class="cls-15" x="1743.6" y="400.16" width="5.68" height="11.94"/><rect class="cls-15" x="1743.6" y="395.49" width="5.68" height="3.09"/><rect class="cls-16" x="1743.6" y="398.58" width="5.68" height="1.57"/><path class="cls-7" d="M1655.32,441.36a3.34,3.34,0,0,0,0-.43,3,3,0,0,0,0-.43V426.8H1653l-1.41,8.94a5.6,5.6,0,0,0-1.69-.29,5.48,5.48,0,1,0,5.41,6.14h0Z"/><polygon class="cls-16" points="1706.79 400.16 1713.85 420.66 1665.01 420.66 1672.08 400.16 1706.79 400.16"/><path class="cls-12" d="M1720.11,436.8a30.68,30.68,0,1,1-30.68-30.69,30.68,30.68,0,0,1,30.68,30.69"/><path class="cls-5" d="M1716.07,436.8a26.64,26.64,0,1,1-26.64-26.64,26.64,26.64,0,0,1,26.64,26.64"/><path class="cls-11" d="M1714.13,436.8a24.7,24.7,0,1,1-24.7-24.71,24.7,24.7,0,0,1,24.7,24.71"/><path class="cls-12" d="M1706.05,436.8a16.62,16.62,0,1,1-16.62-16.62,16.62,16.62,0,0,1,16.62,16.62"/><path class="cls-15" d="M1699,436.8a9.61,9.61,0,1,1-9.61-9.61,9.61,9.61,0,0,1,9.61,9.61"/><path class="cls-16" d="M1696,438.51a6.54,6.54,0,1,1-6.54-6.54,6.54,6.54,0,0,1,6.54,6.54"/><polygon class="cls-22" points="1672.08 400.15 1706.79 400.16 1699.5 387.8 1679.37 387.8 1672.08 400.15"/><path class="cls-14" d="M1652.47,441.1a2.59,2.59,0,1,1-2.58-2.59,2.57,2.57,0,0,1,2.58,2.59"/><rect class="cls-22" x="1627.8" y="391.72" width="13.43" height="3.77"/><rect class="cls-11" x="1649.98" y="389.14" width="13.37" height="6.36"/><rect class="cls-11" x="1720.11" y="392.37" width="16.84" height="3.12"/><rect class="cls-22" x="1722.73" y="387.79" width="12.07" height="4.58"/><path class="cls-8" d="M1648.77,386.76h-6.47v-1a1.4,1.4,0,0,1,1.4-1.4h3.67a1.4,1.4,0,0,1,1.4,1.4Z"/><polygon class="cls-5" points="1650.09 390.45 1650.09 386.76 1640.97 386.76 1640.97 390.45 1639.22 390.45 1639.22 395.49 1640.97 395.49 1650.09 395.49 1651.85 395.49 1651.85 390.45 1650.09 390.45"/><path class="cls-11" d="M1706.19,598.14l-1.17,0h0v11.32a19.28,19.28,0,0,1,0,38.56v37.39a5.65,5.65,0,0,0,5.19-2.93l22-38.88c11.26-19.84-2.74-44.67-26-45.44"/><path class="cls-14" d="M1724.2,628.72a19.24,19.24,0,0,0-19.2-19.28V648a19.24,19.24,0,0,0,19.2-19.28"/><path class="cls-6" d="M1685.8,628.72a19.23,19.23,0,0,1,19.2-19.28V598.12l-1.16,0c-23.34.77-37.41,25.87-26,45.68l22.46,38.69a5.68,5.68,0,0,0,4.7,2.88V648a19.23,19.23,0,0,1-19.2-19.28"/><path class="cls-5" d="M1685.8,628.72A19.23,19.23,0,0,0,1705,648V609.44a19.23,19.23,0,0,0-19.2,19.28"/><path class="cls-8" d="M368.92,658.18l-29.73-51.51V569.46l2.93-5.38a1,1,0,0,0-.88-1.49h-28.6a1,1,0,0,0-1.05,1v43l-29.73,51.51A7.89,7.89,0,0,0,288.69,670h73.4a7.89,7.89,0,0,0,6.83-11.84"/><path class="cls-5" d="M335.91,608v-38h0l2.26-3.72a.7.7,0,0,0-.68-1h-22a.77.77,0,0,0-.81.73v42.41l-9.74,16.88h40.94Z"/><path class="cls-11" d="M285.24,659.29a5.42,5.42,0,0,0,4.69,8.13h70.92a5.42,5.42,0,0,0,4.69-8.13l-13.3-23h-53.7Z"/><polygon class="cls-17" points="304.92 625.21 298.54 636.24 352.24 636.24 345.86 625.21 304.92 625.21"/><path class="cls-5" d="M336.06,630.72a.81.81,0,1,1-.8-.8.8.8,0,0,1,.8.8"/><path class="cls-5" d="M334.51,635.28a1.75,1.75,0,1,1-1.75-1.75,1.76,1.76,0,0,1,1.75,1.75"/><path class="cls-5" d="M339.84,641a2.67,2.67,0,1,1-2.66-2.67,2.66,2.66,0,0,1,2.66,2.67"/><path class="cls-5" d="M334.45,646.43A3.45,3.45,0,1,1,331,643a3.45,3.45,0,0,1,3.44,3.45"/><path class="cls-5" d="M343.12,652.66a4.34,4.34,0,1,1-4.33-4.34,4.33,4.33,0,0,1,4.33,4.34"/><rect class="cls-5" x="1529.38" y="239.96" width="116" height="70.56"/><rect class="cls-12" x="1541.5" y="285.44" width="90.7" height="14.22"/><rect class="cls-24" x="1632.49" y="299.93" width="4.8" height="4.8"/><rect class="cls-24" x="1536.54" y="299.93" width="4.8" height="4.8"/><rect class="cls-24" x="1632.49" y="248.22" width="4.8" height="4.8"/><rect class="cls-24" x="1536.54" y="248.22" width="4.8" height="4.8"/><rect class="cls-14" x="1541.6" y="277.45" width="6.04" height="6.04"/><rect class="cls-7" x="1541.6" y="269.45" width="6.04" height="6.04"/><rect class="cls-7" x="1541.6" y="261.46" width="6.04" height="6.04"/><rect class="cls-14" x="1541.6" y="253.46" width="6.04" height="6.04"/><rect class="cls-14" x="1558.51" y="277.45" width="6.04" height="6.04"/><rect class="cls-7" x="1558.51" y="269.45" width="6.04" height="6.04"/><rect class="cls-14" x="1558.51" y="261.46" width="6.04" height="6.04"/><rect class="cls-7" x="1558.51" y="253.46" width="6.04" height="6.04"/><rect class="cls-7" x="1550.06" y="277.45" width="6.04" height="6.04"/><rect class="cls-14" x="1550.06" y="269.45" width="6.04" height="6.04"/><rect class="cls-7" x="1550.06" y="261.46" width="6.04" height="6.04"/><rect class="cls-14" x="1550.06" y="253.46" width="6.04" height="6.04"/><rect class="cls-7" x="1575.43" y="277.45" width="6.04" height="6.04"/><rect class="cls-14" x="1575.43" y="269.45" width="6.04" height="6.04"/><rect class="cls-7" x="1575.43" y="261.46" width="6.04" height="6.04"/><rect class="cls-14" x="1575.43" y="253.46" width="6.04" height="6.04"/><rect class="cls-7" x="1566.97" y="277.45" width="6.04" height="6.04"/><rect class="cls-14" x="1566.97" y="269.45" width="6.04" height="6.04"/><rect class="cls-14" x="1566.97" y="261.46" width="6.04" height="6.04"/><rect class="cls-7" x="1566.97" y="253.46" width="6.04" height="6.04"/><rect class="cls-14" x="1600.79" y="277.45" width="6.04" height="6.04"/><rect class="cls-14" x="1600.79" y="269.45" width="6.04" height="6.04"/><rect class="cls-7" x="1600.79" y="261.46" width="6.04" height="6.04"/><rect class="cls-7" x="1600.79" y="253.46" width="6.04" height="6.04"/><rect class="cls-14" x="1592.34" y="277.45" width="6.04" height="6.04"/><rect class="cls-7" x="1592.34" y="269.45" width="6.04" height="6.04"/><rect class="cls-14" x="1592.34" y="261.46" width="6.04" height="6.04"/><rect class="cls-7" x="1592.34" y="253.46" width="6.04" height="6.04"/><rect class="cls-7" x="1609.25" y="277.45" width="6.04" height="6.04"/><rect class="cls-14" x="1609.25" y="269.45" width="6.04" height="6.04"/><rect class="cls-7" x="1609.25" y="261.46" width="6.04" height="6.04"/><rect class="cls-14" x="1609.25" y="253.46" width="6.04" height="6.04"/><rect class="cls-7" x="1617.7" y="277.45" width="6.04" height="6.04"/><rect class="cls-7" x="1617.7" y="269.45" width="6.04" height="6.04"/><rect class="cls-14" x="1617.7" y="261.46" width="6.04" height="6.04"/><rect class="cls-14" x="1617.7" y="253.46" width="6.04" height="6.04"/><rect class="cls-14" x="1583.88" y="277.45" width="6.04" height="6.04"/><rect class="cls-14" x="1583.88" y="269.45" width="6.04" height="6.04"/><rect class="cls-7" x="1583.88" y="261.46" width="6.04" height="6.04"/><rect class="cls-7" x="1583.88" y="253.46" width="6.04" height="6.04"/><rect class="cls-14" x="1626.16" y="277.45" width="6.04" height="6.04"/><rect class="cls-7" x="1626.16" y="269.45" width="6.04" height="6.04"/><rect class="cls-7" x="1626.16" y="261.46" width="6.04" height="6.04"/><rect class="cls-14" x="1626.16" y="253.46" width="6.04" height="6.04"/><rect class="cls-5" x="1584.78" y="258.18" width="5.47" height="70.33" transform="matrix(0.07, -1, 1, 0.07, 1186.76, 1857.2)"/><rect class="cls-16" x="1557.17" y="288.39" width="5.94" height="5.94" transform="translate(1163.33 1828.06) rotate(-86.1)"/></g></g></svg>