<svg id="Icons" xmlns="http://www.w3.org/2000/svg" xmlns:xlink="http://www.w3.org/1999/xlink" viewBox="0 0 1920 1080"><defs><style>.cls-1,.cls-14,.cls-15,.cls-18,.cls-19{fill:none;}.cls-2{clip-path:url(#clip-path);}.cls-3{fill:#2c2a74;}.cls-4{fill:#020058;}.cls-5{fill:#fff;}.cls-6{fill:#9593ba;}.cls-7{fill:#aaa8c8;}.cls-8{fill:#6b699e;}.cls-9{fill:#413f82;}.cls-10{fill:#565490;}.cls-11{fill:#bfbdd6;}.cls-12{fill:#807eac;}.cls-13{fill:#e9e7f2;}.cls-14,.cls-19{stroke:#020058;}.cls-14,.cls-15,.cls-18,.cls-19{stroke-miterlimit:10;}.cls-14{stroke-width:0.94px;}.cls-15{stroke:#2c2a74;stroke-width:1.08px;}.cls-16{fill:#d4d2e4;}.cls-17{fill:#171566;}.cls-18{stroke:#d4d2e4;stroke-width:0.67px;}.cls-19{stroke-width:1.07px;}</style><clipPath id="clip-path"><rect class="cls-1" y="1.99" width="1920" height="1080"/></clipPath></defs><title>Artboard 10</title><g class="cls-2"><path class="cls-3" d="M1759.29,859.53h-25V979.07h25a6.86,6.86,0,0,0,6.86-6.84V866.38a6.87,6.87,0,0,0-6.86-6.85"/><path class="cls-4" d="M1709,859.53a6.85,6.85,0,0,0-6.85,6.85V972.23a6.85,6.85,0,0,0,6.85,6.84h25.35V859.53Z"/><path class="cls-5" d="M1734.33,975.29a5.28,5.28,0,1,1,5.27-5.29,5.29,5.29,0,0,1-5.27,5.29"/><rect class="cls-6" x="1709.27" y="868.14" width="49.73" height="93.86"/><path class="cls-5" d="M1743.62,917.87a6.7,6.7,0,0,0-5.5,2.87l-11.1-5.55a6.64,6.64,0,0,0-.08-4.42l11.32-6.12a6.75,6.75,0,1,0-.91-1.68L1726,909.09a6.69,6.69,0,1,0,.13,7.81l11.11,5.56a6.69,6.69,0,1,0,6.35-4.59"/><path class="cls-3" d="M441.22,98.11h-47V253.19h47c4.9,0,8.85-4.29,8.85-9.61V107.69c0-5.3-3.95-9.58-8.85-9.58"/><path class="cls-4" d="M348.15,98.11c-4.89,0-8.83,4.28-8.85,9.58V243.58c0,5.32,4,9.61,8.85,9.61h46V98.11Z"/><rect class="cls-7" x="348.59" y="109.63" width="92.18" height="124.95"/><path class="cls-5" d="M394.17,249.28a5.14,5.14,0,1,1,5.14-5.13,5.09,5.09,0,0,1-5.14,5.13"/><polygon class="cls-8" points="348.59 180.02 355.25 175.21 367.66 160.14 384.5 169 398.68 149.51 411.97 171.66 427.92 160.14 440.77 153.05 441.21 234.58 348.17 234.58 348.59 180.02"/><path class="cls-5" d="M440.77,152,430,158a3.09,3.09,0,0,0-4.75,2.62,2.21,2.21,0,0,0,0,.37l-11.58,8.35a2.94,2.94,0,0,0-2.22-.15l-10.2-17A3.1,3.1,0,1,0,396,150a3.13,3.13,0,0,0,.29,1.3l-11,15.13c-.12,0-.24,0-.37,0a3,3,0,0,0-2.06.81L371.16,161a2.57,2.57,0,0,0,0-.4,3.11,3.11,0,0,0-6.21,0,3,3,0,0,0,.22,1.13l-9,10.89a3.31,3.31,0,0,0-.55,0,3.09,3.09,0,0,0-3.1,3.1s0,.11,0,.16l-4,2.51v2l0,.07,4.6-2.88a3.1,3.1,0,1,0,4.63-4.08l8.48-10.3a3.08,3.08,0,0,0,4.1-.53L382,168.66a3.34,3.34,0,0,0-.11.78,3.1,3.1,0,1,0,5.13-2.33l10.55-14.51a3.09,3.09,0,0,0,2.21.39L410,170.14a3.09,3.09,0,1,0,5.48,2,3,3,0,0,0-.45-1.58l11-7.92a3.09,3.09,0,0,0,5.44-2,3.11,3.11,0,0,0-.26-1.25l9.57-5.32Z"/><path class="cls-3" d="M1666.3,898.4h-85.52v158.37h29.39a2,2,0,0,0,2-2v-.72a1.9,1.9,0,0,0-.81-1.52c-1.6-2.29-7-6.76-7-9.35v-7c0-.14,0-.27,0-.4h62a11.17,11.17,0,0,0,11.31-11V909.38a11.14,11.14,0,0,0-11.31-11"/><path class="cls-4" d="M1494.63,898.4a11.11,11.11,0,0,0-11.27,11v115.49a11.14,11.14,0,0,0,11.27,11h60.64c0,.13,0,.26,0,.4v7c0,2.59-5.44,7.07-7,9.36a1.87,1.87,0,0,0-.8,1.51v.72a2,2,0,0,0,2,2h31.35V898.4Z"/><rect class="cls-5" x="1492.86" y="916.25" width="175.24" height="101.49"/><rect class="cls-9" x="1511.07" y="977.55" width="36.8" height="4.46"/><rect class="cls-9" x="1562.38" y="977.55" width="36.81" height="4.46"/><rect class="cls-9" x="1613.17" y="977.55" width="36.66" height="4.46"/><path class="cls-10" d="M1546.21,954.13a1.73,1.73,0,0,0-.72.17l-2.24-2.24a1.72,1.72,0,0,0,.17-.71,1.68,1.68,0,1,0-3.35,0,1.62,1.62,0,0,0,.26.87l-2.5,3.13a1.68,1.68,0,0,0-.55-.1h-.06l-3.65-9.12a1.64,1.64,0,0,0,.92-1.49,1.67,1.67,0,1,0-2.35,1.53l-4,15.84-3.09-6.17a1.67,1.67,0,1,0-2.87-1.16,1.64,1.64,0,0,0,.33,1l-2.71,4.08a1.45,1.45,0,0,0-.41-.06,1.59,1.59,0,0,0-.72.17l-1.12-1.13a1.67,1.67,0,1,0-2.89.23l-2.29,3.16a1.74,1.74,0,0,0-.79-.2,1.68,1.68,0,1,0,1.68,1.67,1.6,1.6,0,0,0-.13-.62l2.44-3.36a1.5,1.5,0,0,0,.47.08,1.59,1.59,0,0,0,.72-.17l1.12,1.13a1.65,1.65,0,0,0-.16.71,1.67,1.67,0,1,0,3-1l2.72-4.07a1.84,1.84,0,0,0,.41.05l.2,0,3.46,6.93a1.64,1.64,0,0,0-.87,1.46,1.67,1.67,0,1,0,2.35-1.53l3.9-15.62,3.24,8.09a1.67,1.67,0,1,0,2.78,1.25,1.68,1.68,0,0,0-.26-.88l2.5-3.12a1.62,1.62,0,0,0,.54.1,1.59,1.59,0,0,0,.72-.17l2.24,2.24a1.59,1.59,0,0,0-.17.72,1.68,1.68,0,1,0,1.68-1.68"/><rect class="cls-7" x="1565.17" y="956.36" width="7.81" height="21.19"/><rect class="cls-8" x="1572.97" y="949.67" width="7.81" height="27.88"/><rect class="cls-11" x="1580.78" y="958.59" width="7.81" height="18.96"/><rect class="cls-6" x="1588.58" y="945.21" width="7.81" height="32.34"/><path class="cls-12" d="M1618.14,965.84a1.68,1.68,0,1,1-1.67-1.67,1.68,1.68,0,0,1,1.67,1.67"/><path class="cls-12" d="M1626,960.82a3.35,3.35,0,1,1-3.35-3.34,3.35,3.35,0,0,1,3.35,3.34"/><path class="cls-12" d="M1637.1,957.48a3.35,3.35,0,1,1-3.35-3.35,3.35,3.35,0,0,1,3.35,3.35"/><path class="cls-12" d="M1646,953a4.46,4.46,0,1,1-4.46-4.46A4.46,4.46,0,0,1,1646,953"/><path class="cls-12" d="M1619.26,971.42a1.68,1.68,0,1,1-1.68-1.67,1.68,1.68,0,0,1,1.68,1.67"/><path class="cls-12" d="M1640.45,959.71a1.12,1.12,0,1,1-1.12-1.12,1.11,1.11,0,0,1,1.12,1.12"/><path class="cls-12" d="M1629.29,955.25a2.23,2.23,0,1,1-2.23-2.23,2.23,2.23,0,0,1,2.23,2.23"/><path class="cls-12" d="M1649.37,945.77a2.79,2.79,0,1,1-2.79-2.79,2.79,2.79,0,0,1,2.79,2.79"/><path class="cls-12" d="M1637.1,964.17a2.23,2.23,0,1,1-2.23-2.23,2.23,2.23,0,0,1,2.23,2.23"/><path class="cls-12" d="M1636,950.23a1.67,1.67,0,1,1-1.67-1.67,1.67,1.67,0,0,1,1.67,1.67"/><path class="cls-12" d="M1646,960.82a2.23,2.23,0,1,1-2.23-2.23,2.23,2.23,0,0,1,2.23,2.23"/><path class="cls-12" d="M1631.52,962.5a1.67,1.67,0,1,1-1.67-1.68,1.67,1.67,0,0,1,1.67,1.68"/><path class="cls-12" d="M1629.29,967.52a2.23,2.23,0,1,1-2.23-2.23,2.23,2.23,0,0,1,2.23,2.23"/><path class="cls-12" d="M1623.72,967.52a2.23,2.23,0,1,1-2.23-2.23,2.23,2.23,0,0,1,2.23,2.23"/><path class="cls-12" d="M1649.37,950.79a1.12,1.12,0,1,1-1.12-1.12,1.12,1.12,0,0,1,1.12,1.12"/><rect class="cls-7" x="1510.97" y="924.26" width="138.87" height="6.67"/><rect class="cls-4" x="1510.97" y="990.92" width="36.66" height="1.11"/><rect class="cls-4" x="1510.97" y="994.25" width="36.66" height="1.11"/><rect class="cls-4" x="1510.97" y="997.59" width="36.66" height="1.11"/><rect class="cls-4" x="1510.97" y="1000.92" width="36.66" height="1.11"/><rect class="cls-4" x="1510.97" y="1004.25" width="36.66" height="1.11"/><rect class="cls-4" x="1510.97" y="1007.58" width="23.33" height="1.11"/><rect class="cls-4" x="1562.45" y="990.92" width="36.66" height="1.11"/><rect class="cls-4" x="1562.45" y="994.25" width="36.66" height="1.11"/><rect class="cls-4" x="1562.45" y="997.59" width="25.55" height="1.11"/><rect class="cls-4" x="1562.45" y="1004.25" width="36.66" height="1.11"/><rect class="cls-4" x="1562.45" y="1007.58" width="36.66" height="1.11"/><rect class="cls-4" x="1562.45" y="1010.92" width="36.66" height="1.11"/><rect class="cls-4" x="1613.17" y="990.92" width="36.66" height="1.11"/><rect class="cls-4" x="1613.17" y="994.25" width="36.66" height="1.11"/><rect class="cls-4" x="1613.17" y="997.59" width="36.66" height="1.11"/><rect class="cls-4" x="1613.17" y="1000.92" width="36.66" height="1.11"/><rect class="cls-4" x="1613.17" y="1004.25" width="29.99" height="1.11"/><path class="cls-5" d="M1580.48,906.4a2,2,0,1,1-2,2,2,2,0,0,1,2-2"/><path class="cls-3" d="M1866.53,353H1686.76a6.43,6.43,0,0,1-6.43-6.43V221.84a6.43,6.43,0,0,1,6.43-6.43h179.77a6.43,6.43,0,0,1,6.43,6.43V346.57a6.43,6.43,0,0,1-6.43,6.43"/><path class="cls-5" d="M1867.06,349.7H1686.23a2.59,2.59,0,0,1-2.6-2.6V225.31h186V347.1a2.59,2.59,0,0,1-2.6,2.6"/><path class="cls-5" d="M1867.46,220.36a2.21,2.21,0,1,1-2.2-2.2,2.2,2.2,0,0,1,2.2,2.2"/><path class="cls-5" d="M1860.85,220.36a2.2,2.2,0,1,1-2.2-2.2,2.19,2.19,0,0,1,2.2,2.2"/><path class="cls-5" d="M1854.25,220.36a2.2,2.2,0,1,1-2.2-2.2,2.2,2.2,0,0,1,2.2,2.2"/><rect class="cls-13" x="1708.28" y="233.57" width="13.24" height="4.41"/><rect class="cls-13" x="1723.28" y="233.57" width="13.24" height="4.41"/><rect class="cls-13" x="1739.17" y="233.57" width="13.24" height="4.41"/><rect class="cls-13" x="1755.06" y="233.57" width="13.24" height="4.41"/><rect class="cls-13" x="1770.95" y="233.57" width="13.24" height="4.41"/><rect class="cls-13" x="1786.84" y="233.57" width="58.26" height="4.41"/><rect class="cls-8" x="1708.28" y="245.92" width="67.08" height="30.01"/><rect class="cls-7" x="1708.28" y="284.75" width="41.49" height="30.01"/><rect class="cls-7" x="1803.96" y="284.75" width="41.14" height="30.01"/><rect class="cls-7" x="1756.17" y="284.75" width="41.26" height="30.01"/><rect class="cls-4" x="1803.96" y="326.67" width="41.49" height="1.18"/><rect class="cls-4" x="1803.96" y="330.2" width="41.49" height="1.18"/><rect class="cls-4" x="1803.96" y="333.74" width="41.49" height="1.18"/><rect class="cls-4" x="1803.96" y="337.28" width="41.49" height="1.18"/><rect class="cls-4" x="1803.96" y="340.82" width="35.31" height="1.18"/><rect class="cls-4" x="1708.28" y="326.67" width="41.49" height="1.18"/><rect class="cls-4" x="1708.28" y="330.2" width="41.49" height="1.18"/><rect class="cls-4" x="1708.28" y="333.74" width="16.77" height="1.18"/><rect class="cls-4" x="1708.28" y="337.28" width="41.49" height="1.18"/><rect class="cls-4" x="1708.28" y="340.82" width="31.78" height="1.18"/><rect class="cls-4" x="1756.17" y="326.67" width="41.14" height="1.18"/><rect class="cls-4" x="1756.17" y="330.2" width="41.14" height="1.18"/><rect class="cls-4" x="1756.17" y="333.74" width="41.14" height="1.18"/><rect class="cls-4" x="1756.17" y="337.28" width="12.01" height="1.18"/><rect class="cls-4" x="1778.89" y="254.95" width="66.2" height="1.41"/><rect class="cls-4" x="1778.89" y="259.18" width="66.2" height="1.41"/><rect class="cls-4" x="1778.89" y="263.4" width="59.14" height="1.26"/><rect class="cls-4" x="1778.89" y="267.44" width="66.2" height="1.41"/><rect class="cls-4" x="1778.89" y="271.66" width="43.25" height="1.41"/><rect class="cls-9" x="1708.28" y="320.49" width="32.66" height="2.65"/><rect class="cls-9" x="1756.17" y="320.49" width="39.72" height="2.65"/><rect class="cls-9" x="1778.89" y="246.8" width="49.43" height="3.53"/><rect class="cls-9" x="1803.96" y="320.49" width="22.95" height="2.65"/><path class="cls-3" d="M1850.69,538.44l-16-41.48c-1.74-5.92-5-8.92-9.67-8.92h-39.8c-4.67,0-7.92,3-9.66,8.88l-14.49,41.52a13.77,13.77,0,0,0-1.29,5.81,13.94,13.94,0,0,0,13.93,13.92h64.29a13.9,13.9,0,0,0,12.64-19.73"/><path class="cls-11" d="M1785.27,494.22c-.91,0-2.42,0-3.74,4.49l0,.08-11,31.94a13.64,13.64,0,0,1,3.28-.41h32.14v-36.1Z"/><path class="cls-7" d="M1841.33,530.73l-12.52-32c-1.33-4.52-2.84-4.52-3.74-4.52H1805.9v36.09h32.15a13.71,13.71,0,0,1,3.28.41"/><path class="cls-7" d="M1773.76,536.51a7.74,7.74,0,1,0,0,15.47h32.14V536.51Z"/><path class="cls-6" d="M1845.79,544.25a7.75,7.75,0,0,0-7.74-7.74H1805.9V552h32.15a7.75,7.75,0,0,0,7.74-7.73"/><path class="cls-5" d="M1841.32,542.35a3.1,3.1,0,1,1-3.1-3.09,3.1,3.1,0,0,1,3.1,3.09"/><path class="cls-3" d="M1680.76,34h-53.09V193h53.09a5.23,5.23,0,0,0,5.23-5.22V39.25a5.23,5.23,0,0,0-5.23-5.23"/><path class="cls-4" d="M1573.64,34a5.23,5.23,0,0,0-5.23,5.23V187.76a5.23,5.23,0,0,0,5.23,5.22h54V34Z"/><rect class="cls-5" x="1579.23" y="43.42" width="95.94" height="140.15"/><polygon class="cls-6" points="1653.54 51.89 1600.86 51.89 1597.1 30.25 1657.3 30.25 1653.54 51.89"/><rect class="cls-12" x="1589.1" y="66" width="75.25" height="4.7"/><rect class="cls-12" x="1589.11" y="74.46" width="31.98" height="4.7"/><rect class="cls-14" x="1589.1" y="86.69" width="3.76" height="3.76"/><rect class="cls-4" x="1597.57" y="87.16" width="54.56" height="2.82"/><rect class="cls-14" x="1589.1" y="93.28" width="3.76" height="3.76"/><rect class="cls-4" x="1597.57" y="93.75" width="66.79" height="2.82"/><rect class="cls-14" x="1589.1" y="99.86" width="3.76" height="3.76"/><rect class="cls-4" x="1597.57" y="100.33" width="48.91" height="2.82"/><rect class="cls-14" x="1589.1" y="106.45" width="3.76" height="3.76"/><rect class="cls-4" x="1597.57" y="106.92" width="60.2" height="2.82"/><rect class="cls-12" x="1589.1" y="120.56" width="75.25" height="4.7"/><rect class="cls-12" x="1589.1" y="129.02" width="50.79" height="4.7"/><rect class="cls-14" x="1589.1" y="141.25" width="3.76" height="3.76"/><rect class="cls-4" x="1597.57" y="141.72" width="63.02" height="2.82"/><rect class="cls-14" x="1589.1" y="147.83" width="3.76" height="3.76"/><rect class="cls-4" x="1597.57" y="148.3" width="48.91" height="2.82"/><rect class="cls-14" x="1589.1" y="154.42" width="3.76" height="3.76"/><rect class="cls-4" x="1597.57" y="154.89" width="44.21" height="2.82"/><rect class="cls-14" x="1589.1" y="161" width="3.76" height="3.76"/><rect class="cls-4" x="1597.57" y="161.47" width="58.32" height="2.82"/><polygon class="cls-6" points="1593.88 97.47 1592.31 95.71 1594.07 94.14 1592.82 92.74 1591.06 94.3 1589.5 92.54 1588.1 93.79 1589.66 95.55 1587.9 97.11 1589.15 98.52 1590.91 96.96 1592.47 98.71 1593.88 97.47"/><polygon class="cls-6" points="1593.88 158.61 1592.31 156.85 1594.07 155.29 1592.82 153.88 1591.06 155.44 1589.5 153.68 1588.1 154.93 1589.66 156.69 1587.9 158.25 1589.15 159.66 1590.91 158.1 1592.47 159.85 1593.88 158.61"/><polygon class="cls-7" points="152.32 705.75 102.13 683.87 102.13 797.99 152.32 819.87 152.32 705.75"/><polygon class="cls-7" points="211.15 797.99 261.33 819.87 261.33 705.75 211.15 683.87 211.15 797.99"/><path class="cls-3" d="M97.81,799.41a2.17,2.17,0,0,0,1.3,2l54.51,23.77.17.05.14,0a2.71,2.71,0,0,0,.55.08,2.61,2.61,0,0,0,.55-.08l.15,0,.16-.05L209,801.76l53.64,23.4a2.18,2.18,0,0,0,.86.18,2.13,2.13,0,0,0,1.19-.36,2.17,2.17,0,0,0,1-1.81V704.34a2.18,2.18,0,0,0-1.3-2l-54.51-23.76-.08,0-.26-.07a1.22,1.22,0,0,0-.26-.06h-.53l-.24.05-.28.08-.08,0L154.48,702l-53.64-23.39a2.14,2.14,0,0,0-2,.17,2.17,2.17,0,0,0-1,1.81Zm109-1.42-50.19,21.88V705.75l50.19-21.88ZM102.14,683.87l50.18,21.88V819.87L102.14,798Zm159.19,136L211.15,798V683.87l50.18,21.88Z"/><path class="cls-15" d="M97.81,799.41a2.17,2.17,0,0,0,1.3,2l54.51,23.77.17.05.14,0a2.71,2.71,0,0,0,.55.08,2.61,2.61,0,0,0,.55-.08l.15,0,.16-.05L209,801.76l53.64,23.4a2.18,2.18,0,0,0,.86.18,2.13,2.13,0,0,0,1.19-.36,2.17,2.17,0,0,0,1-1.81V704.34a2.18,2.18,0,0,0-1.3-2l-54.51-23.76-.08,0-.26-.07a1.22,1.22,0,0,0-.26-.06h-.53l-.24.05-.28.08-.08,0L154.48,702l-53.64-23.39a2.14,2.14,0,0,0-2,.17,2.17,2.17,0,0,0-1,1.81Zm109-1.42-50.19,21.88V705.75l50.19-21.88ZM102.14,683.87l50.18,21.88V819.87L102.14,798Zm159.19,136L211.15,798V683.87l50.18,21.88Z"/><polygon class="cls-12" points="156.64 705.75 156.64 819.87 206.83 797.99 206.83 683.87 156.64 705.75"/><path class="cls-3" d="M185.52,772c-1,2.41-3.45,3.3-4.45,1.6L171,756.22c-5.17-9.24,1.22-24.69,11.85-27.91l.54-.15.53-.13c10.61-2.41,16.86,8.62,11.67,20.38Z"/><path class="cls-5" d="M183.34,734.16c-4.82,1.33-8.73,7.06-8.74,12.8s3.87,9.16,8.66,7.64,8.71-7.25,8.74-12.8-3.84-9-8.66-7.64"/><path class="cls-8" d="M252.68,128.85a6.78,6.78,0,0,1-4.76,2,7,7,0,0,1-4.82-2l-5.62-5.72a6.66,6.66,0,0,1-2-4.77,6.88,6.88,0,0,1,2-4.82l36.07-36.06A27.28,27.28,0,0,0,288.8,92.73Zm-1.37-17.26A3.39,3.39,0,1,0,254.7,115a3.4,3.4,0,0,0-3.39-3.38"/><path class="cls-10" d="M321.16,75.31a23.72,23.72,0,1,1-22.4-31.51c3.86,0,8.89,1.16,12.12,3.34a1.75,1.75,0,0,1,.85,1.48,1.88,1.88,0,0,1-.85,1.48l-15.51,8.95V70.91l10.22,5.67c1.75-1,14-8.74,15.09-8.74a1.69,1.69,0,0,1,1.7,1.86,19.2,19.2,0,0,1-1.22,5.61"/><path class="cls-3" d="M264,236.22,249.45,250.8a2,2,0,0,1-2.83,0l-.21-.2a2,2,0,0,1,0-2.84L261,233.17a2,2,0,0,1,2.83,0l.21.21a2,2,0,0,1,0,2.84"/><path class="cls-3" d="M268.09,240.27l-14.58,14.59a2,2,0,0,1-2.84,0l-.21-.21a2,2,0,0,1,0-2.83l14.59-14.59a2,2,0,0,1,2.83,0l.21.21a2,2,0,0,1,0,2.83"/><path class="cls-3" d="M270,246.45l-10.34,10.34a2,2,0,0,1-2.89,0l-.15-.15a2,2,0,0,1,0-2.89L267,243.4a2.07,2.07,0,0,1,2.9,0l.14.15a2.05,2.05,0,0,1,0,2.9"/><path class="cls-7" d="M217,172.43a32.24,32.24,0,0,0-23.44,11.19,32.68,32.68,0,0,0-.41,42.14,32.35,32.35,0,0,0,33.07,10.67,2.49,2.49,0,0,1,2.42.62l7.29,7.29a7.84,7.84,0,0,0,11.07,0l10.48-10.48a7.92,7.92,0,0,0,0-11.18l-7.33-7.33a2.23,2.23,0,0,1-.56-2.17A32.53,32.53,0,0,0,217,172.43"/><polygon class="cls-5" points="222.99 213.77 227 209.75 250.94 234.87 248.11 237.7 222.99 213.77"/><path class="cls-5" d="M227,206.92l-1.35-1.43c-.14-.14-3.45-3.52-.69-6.27s4.14-1.44,5.57,0c.9.89,1.8,2.38-.7,4.88Z"/><path class="cls-5" d="M245.81,212.18a6.22,6.22,0,0,0,1.59,6l7.33,7.33a4,4,0,0,1,0,5.61l-2.4,2.4L228.4,208.36l2.87-2.87c3.63-3.64,2-6.37.69-7.67s-4.18-4.18-8.36,0c-3.31,3.31-1,7.37.68,9l1.37,1.46-4.1,4.09-1.43-1.35c-1.69-1.68-5.75-4-9.06-.69-4.18,4.18-1.36,7,0,8.36s4,2.94,7.66-.7l2.88-2.87,25.11,23.94-2.45,2.45a3.89,3.89,0,0,1-5.5,0l-7.29-7.29a6.48,6.48,0,0,0-6.18-1.65,28.58,28.58,0,0,1-28.72-46.4c.45-.52.92-1,1.4-1.5a28.33,28.33,0,0,1,19.21-8.34,28.58,28.58,0,0,1,28.63,35.81"/><path class="cls-5" d="M220.16,213.81l-2.83,2.83c-2.5,2.49-4,1.59-4.88.69-1.43-1.43-2.78-2.78,0-5.57s6.13.56,6.29.72Z"/><path class="cls-3" d="M1509.13,53.5a3.95,3.95,0,1,0,0-7.89h-68a3.95,3.95,0,1,0,0,7.89Z"/><path class="cls-3" d="M1509.13,144a3.95,3.95,0,0,1,0,7.9h-68a3.95,3.95,0,0,1,0-7.9Z"/><path class="cls-5" d="M1501.18,144c-1-21.26-9.56-38.61-21.4-43.16a2.4,2.4,0,0,1,0-4.13c11.84-4.55,20.43-21.89,21.4-43.16h-52.09c1,20.88,9.37,38.16,20.93,43a2.17,2.17,0,0,1,1.14,2v.39a2.18,2.18,0,0,1-1.14,2c-11.56,4.82-20,22.1-20.93,43Z"/><path class="cls-13" d="M1495.93,53.32c-.81,19.79-8,36.45-17.58,40.51a5.65,5.65,0,0,0,0,9.79c9.54,4.07,16.77,20.73,17.58,40.51l-41.59,0c.8-19.43,7.89-36,17.23-40.33a5.27,5.27,0,0,0,2.72-4.85v-.39a5.27,5.27,0,0,0-2.72-4.85c-9.34-4.31-16.43-20.89-17.23-40.32Z"/><path class="cls-6" d="M1495.82,142c-2.44-2.94-13.49-12.29-20-13.57a1,1,0,0,1-.32-.38,1.13,1.13,0,0,1-.12-.51l.1-28.73s0-.08,0-.12a5.23,5.23,0,0,1,2.83-4.9c.31-.13.62-.28.92-.44l.29-.16.63-.36.33-.21c.19-.13.38-.25.57-.39l.33-.25c.19-.13.37-.27.55-.42l.33-.27.54-.49.31-.28.55-.55a3.83,3.83,0,0,0,.28-.29q.29-.3.57-.63l.24-.27.6-.73.18-.23c.23-.29.45-.58.66-.89a1.71,1.71,0,0,0,.11-.14,42.47,42.47,0,0,0,4.83-9.2c-3.68,2.15-11.68,6.83-16.33,6.83-4.48,0-12.18-4.34-15.62-6.58,3.08,7.78,7.4,13.52,12.35,15.8a5.27,5.27,0,0,1,2.72,4.85v.39a6.4,6.4,0,0,1-.26,1.76l.18,27.2a1,1,0,0,1-.4.81c-3.37.21-16.12,9.56-19.34,13.08,0,.77-.09,1.55-.13,2.33l41.59,0c0-.7-.06-1.39-.11-2.09"/><path class="cls-11" d="M1656,746.25c-2.28-1.36-9.58-4.07-14.28,2.32,7-.05,9.28.86,11.55,3.59.45-1.82,1.28-4.68,2.73-5.91"/><path class="cls-12" d="M1669,741.08a25.84,25.84,0,1,0-2.94,38.77l3,3,5.16-5.17-3-3a25.88,25.88,0,0,0-2.23-33.61m-32.07,31.48a19.1,19.1,0,1,1,27,.26,19.12,19.12,0,0,1-27-.26"/><path class="cls-3" d="M1703.08,805.94l-5.78,5.79a4.34,4.34,0,0,1-6.13,0l-22.47-22.47a4.34,4.34,0,0,1,0-6.13l5.78-5.79a4.35,4.35,0,0,1,6.14,0l22.46,22.47a4.32,4.32,0,0,1,0,6.13"/><path class="cls-10" d="M342.39,814.61l-.18-1.6a1.7,1.7,0,0,1,1.58-1.89q1.4-.09,2.79-.06a1.69,1.69,0,0,1,1.67,1.82l-.11,1.61a1.7,1.7,0,0,0,1.48,1.8c.74.09,1.48.21,2.21.36a1.68,1.68,0,0,0,2-1.23l.41-1.56a1.7,1.7,0,0,1,2.16-1.19c.89.28,1.77.59,2.63,1a1.7,1.7,0,0,1,.89,2.3l-.69,1.46a1.69,1.69,0,0,0,.74,2.21c.65.36,1.3.73,1.93,1.14a1.69,1.69,0,0,0,2.28-.44l.95-1.31a1.7,1.7,0,0,1,2.44-.34c.73.58,1.43,1.19,2.11,1.83a1.71,1.71,0,0,1,0,2.47l-1.17,1.11a1.7,1.7,0,0,0-.11,2.33c.49.56.95,1.15,1.4,1.76a1.7,1.7,0,0,0,2.29.42l1.35-.89a1.7,1.7,0,0,1,2.4.57c.47.81.91,1.63,1.31,2.48a1.7,1.7,0,0,1-.88,2.3l-1.53.63a1.69,1.69,0,0,0-1,2.1c.24.73.47,1.53.67,2.2a1.68,1.68,0,0,0,2,1.18l1.63-.34a1.69,1.69,0,0,1,2,1.39c.15.92.26,1.84.33,2.77a1.69,1.69,0,0,1-1.65,1.83l-1.62.05a1.67,1.67,0,0,0-1.64,1.64c0,.75-.07,1.5-.15,2.24a1.68,1.68,0,0,0,1.41,1.85l1.6.26a1.71,1.71,0,0,1,1.4,2c-.2.91-.43,1.81-.7,2.7a1.71,1.71,0,0,1-2.21,1.12l-1.52-.55a1.69,1.69,0,0,0-2.13.94c-.29.69-.6,1.37-.94,2a1.69,1.69,0,0,0,.65,2.24l1.39.81a1.7,1.7,0,0,1,.57,2.4c-.51.78-1.05,1.54-1.62,2.27a1.7,1.7,0,0,1-2.45.25L369.58,866a1.69,1.69,0,0,0-2.33.11c-.52.53-1.05,1-1.61,1.55a1.69,1.69,0,0,0-.2,2.32l1,1.26a1.71,1.71,0,0,1-.34,2.45c-.75.54-1.53,1.06-2.33,1.54a1.7,1.7,0,0,1-2.38-.66l-.76-1.43a1.7,1.7,0,0,0-2.21-.73c-.68.31-1.37.6-2.07.86a1.7,1.7,0,0,0-1,2.09l.48,1.55a1.69,1.69,0,0,1-1.18,2.15c-.41.11-.82.21-1.24.3s-1,.21-1.5.3a1.69,1.69,0,0,1-2-1.47l-.2-1.61a1.7,1.7,0,0,0-1.8-1.48c-.75,0-1.5.08-2.24.07a1.7,1.7,0,0,0-1.71,1.59l-.1,1.61A1.7,1.7,0,0,1,342,880c-.93-.11-1.85-.25-2.76-.44a1.69,1.69,0,0,1-1.32-2.08l.39-1.57a1.68,1.68,0,0,0-1.14-2c-.71-.23-1.42-.48-2.11-.75a1.68,1.68,0,0,0-2.16.86l-.68,1.47a1.7,1.7,0,0,1-2.34.79c-.82-.43-1.62-.89-2.41-1.39a1.71,1.71,0,0,1-.48-2.42l.93-1.32a1.69,1.69,0,0,0-.33-2.3c-.59-.47-1.15-.95-1.7-1.46a1.69,1.69,0,0,0-2.33,0l-1.16,1.12a1.7,1.7,0,0,1-2.47-.1c-.61-.7-1.2-1.42-1.75-2.17a1.7,1.7,0,0,1,.42-2.43l1.35-.9a1.69,1.69,0,0,0,.52-2.27c-.38-.64-.73-1.3-1.06-2a1.69,1.69,0,0,0-2.18-.82l-1.46.61a1.69,1.69,0,0,1-2.27-1c-.34-1-.67-2.17-.94-3.09a1.7,1.7,0,0,1,1.3-2.12l1.52-.31a1.71,1.71,0,0,0,1.34-1.92c-.12-.74-.2-1.48-.26-2.22a1.68,1.68,0,0,0-1.72-1.57l-1.61,0a1.7,1.7,0,0,1-1.73-1.76c0-.93.1-1.86.2-2.79a1.7,1.7,0,0,1,2-1.48l1.59.26a1.68,1.68,0,0,0,1.93-1.3c.17-.73.36-1.45.58-2.16a1.7,1.7,0,0,0-1-2.09l-1.52-.56a1.7,1.7,0,0,1-1-2.27c.36-.85.76-1.69,1.19-2.51a1.71,1.71,0,0,1,2.38-.67l1.39.82a1.69,1.69,0,0,0,2.27-.52c.42-.62.85-1.22,1.31-1.81a1.69,1.69,0,0,0-.21-2.32L321.25,824a1.71,1.71,0,0,1-.1-2.47c.65-.67,1.32-1.31,2-1.92a1.7,1.7,0,0,1,2.46.22l1,1.27a1.68,1.68,0,0,0,2.3.33c.61-.42,1.24-.83,1.89-1.21a1.7,1.7,0,0,0,.64-2.24l-.75-1.44a1.69,1.69,0,0,1,.8-2.33c.84-.39,1.71-.74,2.58-1.06a1.7,1.7,0,0,1,2.21,1.1l.47,1.54a1.7,1.7,0,0,0,2,1.15c.26-.07.51-.13.77-.18.48-.11.95-.2,1.43-.28a1.69,1.69,0,0,0,1.4-1.87m-8.46,33.73a12.32,12.32,0,1,0,9.37-14.69,12.31,12.31,0,0,0-9.37,14.69"/><path class="cls-12" d="M381.57,772.88a20.6,20.6,0,0,1,2.8,1.22,1.11,1.11,0,0,0,1.46-.44l.68-1.15a1.12,1.12,0,0,1,1.59-.36,24.52,24.52,0,0,1,2.87,2.2A1.13,1.13,0,0,1,391,776l-.94.95a1.11,1.11,0,0,0,0,1.52,19.93,19.93,0,0,1,1.9,2.39,1.1,1.1,0,0,0,1.49.29l1.15-.7a1.11,1.11,0,0,1,1.55.39,24.39,24.39,0,0,1,1.54,3.37,1.11,1.11,0,0,1-.72,1.43l-1.28.41a1.1,1.1,0,0,0-.75,1.32,21,21,0,0,1,.55,3,1.12,1.12,0,0,0,1.18,1l1.28-.08a1.11,1.11,0,0,1,1.18,1.14c0,1-.08,2.4-.19,3.54a1.12,1.12,0,0,1-1.31,1l-1.28-.24a1.11,1.11,0,0,0-1.28.82,21.89,21.89,0,0,1-.92,2.91,1.1,1.1,0,0,0,.58,1.4l1.22.56a1.13,1.13,0,0,1,.53,1.54,25.11,25.11,0,0,1-1.9,3.09,1.12,1.12,0,0,1-1.61.23l-1-.83a1.09,1.09,0,0,0-1.51.11,20.87,20.87,0,0,1-2.17,2.14,1.11,1.11,0,0,0-.15,1.51l.82,1.07a1.11,1.11,0,0,1-.22,1.58,24.46,24.46,0,0,1-3.19,1.88,1.11,1.11,0,0,1-1.5-.56l-.54-1.23a1.09,1.09,0,0,0-1.39-.61,19.23,19.23,0,0,1-2.92.86,1.12,1.12,0,0,0-.84,1.28l.22,1.32a1.12,1.12,0,0,1-1,1.29c-.73.09-1.48.14-2.22.16h-1.38a1.13,1.13,0,0,1-1.09-1.21l.1-1.32a1.11,1.11,0,0,0-.95-1.2,21.39,21.39,0,0,1-3-.6,1.1,1.1,0,0,0-1.33.73l-.42,1.26a1.13,1.13,0,0,1-1.48.69,24.5,24.5,0,0,1-3.27-1.56,1.12,1.12,0,0,1-.4-1.58l.72-1.13a1.1,1.1,0,0,0-.28-1.49,21.81,21.81,0,0,1-2.35-1.94,1.1,1.1,0,0,0-1.52,0l-1,.92a1.11,1.11,0,0,1-1.62-.09,24.52,24.52,0,0,1-2.16-2.9,1.14,1.14,0,0,1,.39-1.59l1.16-.66a1.1,1.1,0,0,0,.46-1.44,21.74,21.74,0,0,1-1.17-2.82,1.1,1.1,0,0,0-1.35-.7l-1.29.35a1.11,1.11,0,0,1-1.38-.8,25.06,25.06,0,0,1-.55-3.66,1.1,1.1,0,0,1,1.09-1.17l1.34,0a1.1,1.1,0,0,0,1.08-1.07c0-.52.05-1,.1-1.55a1.11,1.11,0,0,0-1-1.2l-1.32-.19a1.14,1.14,0,0,1-.94-1.34,24.85,24.85,0,0,1,1-3.5,1.13,1.13,0,0,1,1.48-.67l1.24.52a1.11,1.11,0,0,0,1.43-.53,20.41,20.41,0,0,1,1.5-2.66,1.11,1.11,0,0,0-.28-1.49l-1.08-.8a1.11,1.11,0,0,1-.19-1.61,23.74,23.74,0,0,1,2.48-2.63,1.13,1.13,0,0,1,1.63.11l.85,1a1.11,1.11,0,0,0,1.51.2,20.81,20.81,0,0,1,2.57-1.65,1.11,1.11,0,0,0,.45-1.45l-.58-1.21a1.11,1.11,0,0,1,.55-1.5,25.52,25.52,0,0,1,3.52-1.18,1.1,1.1,0,0,1,1.34.87l.27,1.32a1.12,1.12,0,0,0,1.25.88,20.25,20.25,0,0,1,2.61-.24h.39a1.12,1.12,0,0,0,1.1-1.08l.06-1.32a1.12,1.12,0,0,1,1.23-1.06,22.85,22.85,0,0,1,3.58.59,1.12,1.12,0,0,1,.82,1.4l-.38,1.29a1.1,1.1,0,0,0,.67,1.36m-14.5,20a7.58,7.58,0,1,0,7.38-7.78,7.59,7.59,0,0,0-7.38,7.78"/><path class="cls-7" d="M339.4,789v.06a1.37,1.37,0,0,0,.76,1.64,8.53,8.53,0,0,1,1.78,1.1,1.37,1.37,0,0,0,1.82,0l.12-.11a1.35,1.35,0,0,1,2,.16,11.55,11.55,0,0,1,1.44,2.68,1.35,1.35,0,0,1-1,1.77l-.26.06a1.38,1.38,0,0,0-1.06,1.39,19.51,19.51,0,0,1,0,2.28,1.37,1.37,0,0,0,1,1.43l.2.06a1.35,1.35,0,0,1,.86,1.83,11.44,11.44,0,0,1-1.61,2.57,1.35,1.35,0,0,1-2,0l-.11-.12a1.37,1.37,0,0,0-1.81-.16,8.25,8.25,0,0,1-1.86,1,1.39,1.39,0,0,0-.88,1.59h0a1.37,1.37,0,0,1-1.29,1.66,22.45,22.45,0,0,1-2.7,0,1.36,1.36,0,0,1-1.17-1.76l0-.06a1.39,1.39,0,0,0-.75-1.65,8.19,8.19,0,0,1-1.77-1.13,1.38,1.38,0,0,0-1.82,0l-.12.11a1.35,1.35,0,0,1-2-.19,10.93,10.93,0,0,1-1.4-2.69,1.35,1.35,0,0,1,1-1.76l.15,0a1.38,1.38,0,0,0,1.06-1.48,8.71,8.71,0,0,1,.06-1.91,1.36,1.36,0,0,0-.94-1.54l-.16,0a1.36,1.36,0,0,1-.88-1.82,11.38,11.38,0,0,1,1.58-2.58,1.35,1.35,0,0,1,2-.05l.12.12a1.37,1.37,0,0,0,1.81.14,8.59,8.59,0,0,1,1.84-1,1.37,1.37,0,0,0,.87-1.59,1.36,1.36,0,0,1,1.27-1.68,24.3,24.3,0,0,1,2.69,0A1.35,1.35,0,0,1,339.4,789m-7.75,10.61a5,5,0,1,0,3.81-6,5,5,0,0,0-3.81,6"/><path class="cls-3" d="M373.94,790a2.76,2.76,0,1,1-2.1,3.28,2.76,2.76,0,0,1,2.1-3.28"/><path class="cls-3" d="M336.19,797a1.58,1.58,0,1,1-1.2,1.88,1.58,1.58,0,0,1,1.2-1.88"/><path class="cls-3" d="M350.79,843.89a5.15,5.15,0,1,1-6.67-2.93,5.15,5.15,0,0,1,6.67,2.93"/><polygon class="cls-3" points="1509.68 529.98 1519.36 532.89 1519.36 527.07 1509.68 529.98"/><polygon class="cls-5" points="1537.56 521.6 1519.35 527.07 1519.35 532.89 1537.56 538.36 1537.56 521.6"/><rect class="cls-7" x="1537.56" y="530.04" width="150.55" height="8.53"/><rect class="cls-11" x="1537.56" y="521.51" width="150.55" height="8.53"/><path class="cls-3" d="M1688.11,538.58a8.54,8.54,0,1,0,0-17.07Z"/><rect class="cls-3" x="1669.91" y="521.51" width="3.98" height="17.07"/><path class="cls-3" d="M1810.84,715.63l-3.4-18.21a74.49,74.49,0,0,0-59.83,59.64l18.44,3.27a55.65,55.65,0,0,1,44.79-44.7"/><path class="cls-3" d="M1875.3,760.33l18.43-3.27a74.48,74.48,0,0,0-59.59-59.6l-3.24,18.24a55.66,55.66,0,0,1,44.4,44.63"/><path class="cls-3" d="M1766.06,780.31l-18.49,3.45a74.47,74.47,0,0,0,59.87,59.87l3.49-18.69a55.67,55.67,0,0,1-44.87-44.63"/><path class="cls-3" d="M1830.81,824.87l3.33,18.72a74.5,74.5,0,0,0,59.64-59.83l-18.5-3.45a55.67,55.67,0,0,1-44.47,44.56"/><path class="cls-9" d="M1814,732.72l-3.19-17.09a55.65,55.65,0,0,0-44.79,44.7l17.12,3A38.23,38.23,0,0,1,1814,732.72"/><path class="cls-9" d="M1830.9,715.7l-3,17.12a38.23,38.23,0,0,1,30.32,30.56l17.12-3a55.66,55.66,0,0,0-44.4-44.63"/><path class="cls-9" d="M1827.77,807.74l3,17.13a55.67,55.67,0,0,0,44.47-44.56l-17.09-3.19a38.23,38.23,0,0,1-30.42,30.62"/><path class="cls-9" d="M1783.16,777.12l-17.1,3.19a55.67,55.67,0,0,0,44.87,44.63l3.19-17.1a38.21,38.21,0,0,1-31-30.72"/><path class="cls-16" d="M1820.67,714.74a55.61,55.61,0,0,1,10.23,1l3.24-18.24a74.74,74.74,0,0,0-13.47-1.24,74,74,0,0,0-13.23,1.2l3.4,18.21a55.89,55.89,0,0,1,9.83-.89"/><path class="cls-5" d="M1820.67,732.13a37.86,37.86,0,0,1,7.19.69l3-17.12a54.86,54.86,0,0,0-20.06-.07l3.19,17.09a38.22,38.22,0,0,1,6.64-.59"/><polygon class="cls-5" points="1821.08 770.52 1821.12 770.34 1821.15 770.52 1821.21 770.21 1821.02 770.18 1821.08 770.52"/><path class="cls-16" d="M1820.67,825.81a55.83,55.83,0,0,1-9.74-.87l-3.49,18.69a74,74,0,0,0,13.23,1.2,74.74,74.74,0,0,0,13.47-1.24l-3.33-18.72a55.51,55.51,0,0,1-10.14.94"/><path class="cls-5" d="M1820.67,808.42a38.26,38.26,0,0,1-6.55-.58l-3.19,17.1a55.06,55.06,0,0,0,19.88-.07l-3-17.13a37.73,37.73,0,0,1-7.1.68"/><polygon class="cls-5" points="1821.08 770.52 1821.12 770.71 1821.15 770.52 1821.12 770.34 1821.08 770.52"/><path class="cls-16" d="M1765.14,770.27a55.26,55.26,0,0,1,.91-9.94l-18.44-3.28a73.12,73.12,0,0,0,0,26.71l18.49-3.46a56.1,56.1,0,0,1-.92-10"/><path class="cls-5" d="M1782.53,770.27a38.22,38.22,0,0,1,.64-6.89l-17.12-3a55.26,55.26,0,0,0-.91,9.94,56.1,56.1,0,0,0,.92,10l17.1-3.19a37.59,37.59,0,0,1-.63-6.84"/><path class="cls-16" d="M1893.73,757.06l-18.43,3.27a56.22,56.22,0,0,1,.91,9.95,55.36,55.36,0,0,1-.93,10l18.5,3.45a75,75,0,0,0,1.2-13.24,73.73,73.73,0,0,0-1.25-13.46"/><path class="cls-5" d="M1858.81,770.27a38.5,38.5,0,0,1-.62,6.84l17.09,3.19a55.19,55.19,0,0,0,.93-10,56.19,56.19,0,0,0-.91-9.94l-17.12,3a38.22,38.22,0,0,1,.63,6.89"/><polygon class="cls-5" points="1820.86 770.08 1820.67 770.11 1821.02 770.18 1820.98 769.99 1820.67 770.04 1820.86 770.08"/><polygon class="cls-5" points="1821.21 770.21 1821.26 769.94 1820.98 769.99 1821.02 770.18 1821.21 770.21"/><path class="cls-16" d="M208.85,369.19a61.73,61.73,0,0,0,61.73,61.73V307.46a61.73,61.73,0,0,0-61.73,61.73"/><path class="cls-11" d="M332.31,369.19a61.73,61.73,0,0,0-61.73-61.73V430.92a61.73,61.73,0,0,0,61.73-61.73"/><polygon class="cls-5" points="279.94 375.03 310.26 369.19 279.94 363.36 287.34 352.44 276.42 359.83 270.58 329.51 264.75 359.83 253.83 352.44 261.22 363.36 230.9 369.19 261.22 375.03 253.83 385.95 264.75 378.55 270.58 408.87 276.42 378.55 287.34 385.95 279.94 375.03"/><polygon class="cls-10" points="262.77 376.8 309.33 408.34 270.28 369.29 262.77 376.8"/><polygon class="cls-8" points="231.23 330.24 262.77 376.8 270.28 369.29 231.23 330.24"/><polygon class="cls-6" points="277.8 361.77 270.28 369.29 309.33 408.34 277.8 361.77"/><polygon class="cls-7" points="277.8 361.77 231.23 330.24 231.23 330.24 270.28 369.29 277.8 361.77"/><path class="cls-4" d="M270.58,364.78a4.41,4.41,0,1,1-4.41,4.41,4.41,4.41,0,0,1,4.41-4.41"/><path class="cls-5" d="M272.05,311.14a1.47,1.47,0,1,1-1.47-1.47,1.47,1.47,0,0,1,1.47,1.47"/><path class="cls-5" d="M272.05,427.25a1.47,1.47,0,1,1-1.47-1.47,1.47,1.47,0,0,1,1.47,1.47"/><path class="cls-5" d="M262,311.77a1.47,1.47,0,1,1-1.7-1.2,1.47,1.47,0,0,1,1.7,1.2"/><path class="cls-5" d="M282.11,426.11a1.47,1.47,0,0,1-1.19,1.7,1.47,1.47,0,1,1-.51-2.89,1.47,1.47,0,0,1,1.7,1.19"/><path class="cls-5" d="M252.11,314.14a1.47,1.47,0,1,1-1.89-.88,1.47,1.47,0,0,1,1.89.88"/><path class="cls-5" d="M291.82,423.24a1.47,1.47,0,1,1-1.89-.88,1.48,1.48,0,0,1,1.89.88"/><path class="cls-5" d="M242.83,318.18a1.47,1.47,0,1,1-2-.54,1.48,1.48,0,0,1,2,.54"/><path class="cls-5" d="M300.88,418.73a1.47,1.47,0,1,1-2-.54,1.48,1.48,0,0,1,2,.54"/><path class="cls-5" d="M234.39,323.78a1.47,1.47,0,1,1-2.07-.18,1.45,1.45,0,0,1,2.07.18"/><path class="cls-5" d="M309,412.72a1.47,1.47,0,1,1-2.07-.18,1.46,1.46,0,0,1,2.07.18"/><path class="cls-5" d="M227.06,330.75a1.47,1.47,0,1,1-1.89,2.25,1.45,1.45,0,0,1-.18-2.07,1.47,1.47,0,0,1,2.07-.18"/><path class="cls-5" d="M316,405.38a1.47,1.47,0,1,1-2.07.18,1.47,1.47,0,0,1,2.07-.18"/><path class="cls-5" d="M221,338.89a1.47,1.47,0,1,1-2,.54,1.48,1.48,0,0,1,2-.54"/><path class="cls-5" d="M321.59,397a1.47,1.47,0,1,1-1.47,2.54,1.47,1.47,0,1,1,1.47-2.54"/><path class="cls-5" d="M216.53,348a1.47,1.47,0,1,1-1.88.87,1.46,1.46,0,0,1,1.88-.87"/><path class="cls-5" d="M325.64,387.67a1.47,1.47,0,0,1-1,2.76,1.47,1.47,0,1,1,1-2.76"/><path class="cls-5" d="M213.67,357.66a1.47,1.47,0,0,1-.52,2.9,1.47,1.47,0,0,1,.52-2.9"/><path class="cls-5" d="M328,377.83a1.47,1.47,0,1,1-1.7,1.19,1.47,1.47,0,0,1,1.7-1.19"/><path class="cls-5" d="M212.53,367.72a1.47,1.47,0,1,1-1.47,1.47,1.47,1.47,0,0,1,1.47-1.47"/><path class="cls-5" d="M328.64,367.72a1.47,1.47,0,1,1-1.47,1.47,1.47,1.47,0,0,1,1.47-1.47"/><path class="cls-5" d="M213.16,377.83a1.47,1.47,0,1,1-1.2,1.7,1.46,1.46,0,0,1,1.2-1.7"/><path class="cls-5" d="M327.5,357.66a1.47,1.47,0,1,1-1.19,1.71,1.47,1.47,0,0,1,1.19-1.71"/><path class="cls-5" d="M215.53,387.67a1.47,1.47,0,1,1-.88,1.88,1.46,1.46,0,0,1,.88-1.88"/><path class="cls-5" d="M324.63,348a1.47,1.47,0,1,1-.88,1.88,1.47,1.47,0,0,1,.88-1.88"/><path class="cls-5" d="M219.57,397a1.47,1.47,0,1,1-.54,2,1.47,1.47,0,0,1,.54-2"/><path class="cls-5" d="M320.12,338.89a1.48,1.48,0,0,1,2,.54,1.46,1.46,0,0,1-.54,2,1.47,1.47,0,1,1-1.47-2.55"/><path class="cls-5" d="M225.17,405.38a1.47,1.47,0,1,1-.19,2.07,1.47,1.47,0,0,1,.19-2.07"/><path class="cls-5" d="M314.11,330.75a1.47,1.47,0,1,1-.18,2.07,1.47,1.47,0,0,1,.18-2.07"/><path class="cls-5" d="M232.14,412.72a1.47,1.47,0,1,1,.18,2.07,1.47,1.47,0,0,1-.18-2.07"/><path class="cls-5" d="M306.77,323.78a1.45,1.45,0,0,1,2.07-.18,1.47,1.47,0,1,1-2.07.18"/><path class="cls-5" d="M240.28,418.73a1.47,1.47,0,1,1,2.55,1.47,1.46,1.46,0,0,1-2,.54,1.48,1.48,0,0,1-.54-2"/><path class="cls-5" d="M298.34,318.18a1.47,1.47,0,1,1,.53,2,1.47,1.47,0,0,1-.53-2"/><path class="cls-5" d="M249.35,423.24a1.47,1.47,0,1,1,.87,1.89,1.47,1.47,0,0,1-.87-1.89"/><path class="cls-5" d="M289.06,314.14a1.47,1.47,0,1,1,.87,1.88,1.46,1.46,0,0,1-.87-1.88"/><path class="cls-5" d="M259.05,426.11a1.47,1.47,0,1,1,1.2,1.7,1.47,1.47,0,0,1-1.2-1.7"/><path class="cls-5" d="M279.22,311.77a1.47,1.47,0,1,1,1.19,1.7,1.47,1.47,0,0,1-1.19-1.7"/><path class="cls-6" d="M272.05,369.19a1.47,1.47,0,1,1-1.47-1.47,1.47,1.47,0,0,1,1.47,1.47"/><path class="cls-10" d="M208.85,369.19a61.73,61.73,0,0,1,61.73-61.73V294.24a75,75,0,0,0,0,149.91V430.92a61.73,61.73,0,0,1-61.73-61.73"/><path class="cls-3" d="M345.54,369.19a75,75,0,0,0-75-74.95v13.22a61.73,61.73,0,0,1,0,123.46v13.23a75,75,0,0,0,75-75"/><path class="cls-7" d="M220.79,897.55v-1.49a3,3,0,0,0-3-3H189.35a3,3,0,0,0-3,3l6.07,76.18h97.32a3,3,0,0,0,3-3l-6-65.75a3,3,0,0,0-3-3h-60a3,3,0,0,1-3-3"/><path class="cls-12" d="M292.92,972.24H192.44l.58-3a.13.13,0,0,1,0-.05l11.63-55.24a3.06,3.06,0,0,1,3.06-3.06H302a3.05,3.05,0,0,1,3.06,3,.07.07,0,0,1,0,.05l-12.13,57.83Z"/><polygon class="cls-3" points="216.4 898.56 191.49 898.56 191.22 896.24 216.14 896.24 216.4 898.56"/><rect class="cls-3" x="87.33" y="523.99" width="84.55" height="16.91"/><polygon class="cls-5" points="154.97 625.45 87.33 625.45 87.33 540.9 171.88 540.9 171.88 608.54 154.97 625.45"/><polygon class="cls-16" points="171.88 625.45 171.88 608.54 154.97 625.45 171.88 625.45"/><path class="cls-10" d="M87.33,524v8.79h17.92a4.74,4.74,0,1,1,9.47,0h29.77a4.73,4.73,0,1,1,9.46,0h17.93V524Z"/><path class="cls-16" d="M110,534.81a2,2,0,0,1-2-2h-2.71a4.74,4.74,0,0,0,9.47,0H112a2,2,0,0,1-2,2"/><path class="cls-13" d="M110,528a4.74,4.74,0,0,0-4.74,4.74H108a2,2,0,0,1,4.06,0h2.7A4.74,4.74,0,0,0,110,528"/><path class="cls-16" d="M149.22,534.81a2,2,0,0,1-2-2h-2.71a4.74,4.74,0,0,0,9.47,0h-2.7a2,2,0,0,1-2,2"/><path class="cls-13" d="M149.22,528a4.74,4.74,0,0,0-4.74,4.74h2.71a2,2,0,0,1,4.06,0H154a4.74,4.74,0,0,0-4.73-4.74"/><path class="cls-8" d="M110,534.81a2,2,0,0,0,2-2H108a2,2,0,0,0,2,2"/><path class="cls-12" d="M110,530.75a2,2,0,0,0-2,2H112a2,2,0,0,0-2-2"/><path class="cls-8" d="M149.22,534.81a2,2,0,0,0,2-2h-4.06a2,2,0,0,0,2,2"/><path class="cls-12" d="M149.22,530.75a2,2,0,0,0-2,2h4.06a2,2,0,0,0-2-2"/><path class="cls-7" d="M119,571.33H111.1a1.44,1.44,0,0,1-1.45-1.44V562a1.45,1.45,0,0,1,1.45-1.45H119a1.45,1.45,0,0,1,1.44,1.45v7.93a1.44,1.44,0,0,1-1.44,1.44"/><path class="cls-7" d="M133.91,571.33H126a1.44,1.44,0,0,1-1.45-1.44V562a1.45,1.45,0,0,1,1.45-1.45h7.93a1.44,1.44,0,0,1,1.44,1.45v7.93a1.43,1.43,0,0,1-1.44,1.44"/><path class="cls-7" d="M148.79,571.33h-7.93a1.44,1.44,0,0,1-1.45-1.44V562a1.45,1.45,0,0,1,1.45-1.45h7.93a1.44,1.44,0,0,1,1.44,1.45v7.93a1.43,1.43,0,0,1-1.44,1.44"/><path class="cls-7" d="M163.67,571.33h-7.93a1.44,1.44,0,0,1-1.45-1.44V562a1.45,1.45,0,0,1,1.45-1.45h7.93a1.45,1.45,0,0,1,1.45,1.45v7.93a1.44,1.44,0,0,1-1.45,1.44"/><path class="cls-7" d="M104.15,584.86H96.21a1.44,1.44,0,0,1-1.44-1.44v-7.93A1.45,1.45,0,0,1,96.21,574h7.94a1.45,1.45,0,0,1,1.44,1.45v7.93a1.44,1.44,0,0,1-1.44,1.44"/><path class="cls-7" d="M119,584.86H111.1a1.44,1.44,0,0,1-1.45-1.44v-7.93A1.45,1.45,0,0,1,111.1,574H119a1.45,1.45,0,0,1,1.44,1.45v7.93a1.44,1.44,0,0,1-1.44,1.44"/><path class="cls-7" d="M133.91,584.86H126a1.44,1.44,0,0,1-1.45-1.44v-7.93A1.45,1.45,0,0,1,126,574h7.93a1.44,1.44,0,0,1,1.44,1.45v7.93a1.43,1.43,0,0,1-1.44,1.44"/><path class="cls-7" d="M148.79,584.86h-7.93a1.44,1.44,0,0,1-1.45-1.44v-7.93a1.45,1.45,0,0,1,1.45-1.45h7.93a1.44,1.44,0,0,1,1.44,1.45v7.93a1.43,1.43,0,0,1-1.44,1.44"/><path class="cls-7" d="M163.67,584.86h-7.93a1.44,1.44,0,0,1-1.45-1.44v-7.93a1.45,1.45,0,0,1,1.45-1.45h7.93a1.45,1.45,0,0,1,1.45,1.45v7.93a1.44,1.44,0,0,1-1.45,1.44"/><path class="cls-7" d="M104.15,598.39H96.21A1.45,1.45,0,0,1,94.77,597V589a1.45,1.45,0,0,1,1.44-1.44h7.94a1.45,1.45,0,0,1,1.44,1.44V597a1.45,1.45,0,0,1-1.44,1.44"/><path class="cls-7" d="M119,598.39H111.1a1.45,1.45,0,0,1-1.45-1.44V589a1.45,1.45,0,0,1,1.45-1.44H119a1.45,1.45,0,0,1,1.44,1.44V597a1.45,1.45,0,0,1-1.44,1.44"/><path class="cls-7" d="M133.91,598.39H126a1.45,1.45,0,0,1-1.45-1.44V589a1.45,1.45,0,0,1,1.45-1.44h7.93a1.44,1.44,0,0,1,1.44,1.44V597a1.44,1.44,0,0,1-1.44,1.44"/><path class="cls-9" d="M148.79,598.39h-7.93a1.45,1.45,0,0,1-1.45-1.44V589a1.45,1.45,0,0,1,1.45-1.44h7.93a1.44,1.44,0,0,1,1.44,1.44V597a1.44,1.44,0,0,1-1.44,1.44"/><path class="cls-7" d="M163.67,598.39h-7.93a1.45,1.45,0,0,1-1.45-1.44V589a1.45,1.45,0,0,1,1.45-1.44h7.93a1.45,1.45,0,0,1,1.45,1.44V597a1.45,1.45,0,0,1-1.45,1.44"/><path class="cls-7" d="M104.15,611.92H96.21a1.45,1.45,0,0,1-1.44-1.45v-7.93a1.44,1.44,0,0,1,1.44-1.44h7.94a1.44,1.44,0,0,1,1.44,1.44v7.93a1.45,1.45,0,0,1-1.44,1.45"/><path class="cls-7" d="M119,611.92H111.1a1.45,1.45,0,0,1-1.45-1.45v-7.93a1.44,1.44,0,0,1,1.45-1.44H119a1.44,1.44,0,0,1,1.44,1.44v7.93a1.45,1.45,0,0,1-1.44,1.45"/><path class="cls-7" d="M133.91,611.92H126a1.45,1.45,0,0,1-1.45-1.45v-7.93A1.44,1.44,0,0,1,126,601.1h7.93a1.43,1.43,0,0,1,1.44,1.44v7.93a1.44,1.44,0,0,1-1.44,1.45"/><rect class="cls-3" x="94.77" y="548.88" width="43.97" height="6.76"/><polygon class="cls-13" points="154.97 608.54 154.97 625.45 171.88 608.54 154.97 608.54"/><polygon class="cls-7" points="180.13 631.63 95.55 631.63 87.3 625.45 171.88 625.45 180.13 631.63"/><polygon class="cls-11" points="171.88 540.95 171.88 625.45 180.13 631.63 180.13 547.13 171.88 540.95"/><polygon class="cls-4" points="171.88 523.99 171.88 540.92 180.13 547.11 180.13 530.17 171.88 523.99"/><path class="cls-12" d="M489.13,907.11,486,910.29a58.75,58.75,0,0,1-83.09,83.08l-3.18,3.19c11,11,26.92,17,41.34,18.16v16.35l10.71-.15v-16.31a63.19,63.19,0,0,0,37.39-107.5"/><path class="cls-11" d="M496.17,950.2a1.4,1.4,0,0,1-.12.23l-.82,4.13c-.47,2.33.11,2.69.64,3.3a53.43,53.43,0,0,0,.35-6c0-.57,0-1.14-.05-1.7"/><path class="cls-11" d="M495.53,960.34c0-.13.05-.26.07-.39-.13-.06-.12.08-.07.39"/><path class="cls-11" d="M450.53,931c2.79,2.06,2.17-.83,4.23-2.89s0,0-4.23-7c-1.17-1.94-2.79-5-2.93-2.48a2.38,2.38,0,0,1-1.13,2v6.72a31.43,31.43,0,0,0,4.06,3.66"/><path class="cls-11" d="M486.56,967c-2.07-6.61,2.47,1.24,3.71-3.3s0,0,.83-2.89,0,0-.83-7.43,0,0-4.54.41,0,0-3.3,5.37-3.72,4.54-3.72,4.54l-1.65-5.78c-1.65-5.78,2.89-2.48,0-11.56s0,0-5-4.13,0,0-5-2.92a10.53,10.53,0,0,1-2.48-1.89c0,2.21,0,0,.27,4.81s1.38,2.06,0,4.54-1.92,2.06-7.7.82,0,0-2.89-5.78c-1-1.89-1.32-2.32-1.45-2.36,0,.26-.12,0,0,0a23.5,23.5,0,0,0-.62-4.66c-.48-2.66-.7-1-1.25-.77a.75.75,0,0,0-.5.77l.11,1.13s-.33.41-.05,1.4c.23.79.41.62.4,1.3,0,.4-.28.42-.46,1-.29,1,.27,1.55,0,1.86s.14.55,0,.74a1,1,0,0,0,.24.89c.87.75-.16.79,0,1.29.2.92.21.4.46.72s-.24.13,0,.41-.87,1.2-.65,2.08c.13.51.58.54,1.49,1.3s.78,1,1.72,1.91c1.16,1.12,1.6.84,2.26,1.75,3.3,4.54-.83,2.89-5.37,4.54-3.76,1.37-1.88-.47-4.16,1.29v15c2-1,3.85-1.69,4.06-.6.32,1.65-1.14,2.07-2.93,3.72l-1.13,1.06v26.57a52.27,52.27,0,0,0,47.49-37c-1.74,4-4.39,9.59-5.34,11.77-1.24,2.84,0-5.32-2.06-11.93"/><path class="cls-11" d="M447.6,909.14l8.4,5.37,4.13-4.54-7-3.1,4.95-3.1,6.88,3.72,4.27,2.48,2.87-2.1a52,52,0,0,0-25.61-8.16v9.16Z"/><path class="cls-17" d="M495.23,954.56l.82-4.13a1.4,1.4,0,0,0,.12-.23,52.15,52.15,0,0,0-24.08-42.33l-2.88,2.1-4.27-2.48-6.88-3.72-4.95,3.1,7,3.1L456,914.51l-8.4-5.37-1.13-.27v11.78a2.36,2.36,0,0,0,1.13-2c.14-2.48,1.77.54,2.93,2.48,4.23,7,6.3,5,4.23,7s-1.44,5-4.23,2.89a32.12,32.12,0,0,1-4.06-3.66v31c2.28-1.77.4.08,4.16-1.29,4.54-1.65,8.67,0,5.37-4.54-.66-.91-1.1-.64-2.26-1.75-.94-.91-.8-1.14-1.72-1.91s-1.36-.79-1.49-1.3c-.22-.89.91-1.76.65-2.08s.24-.13,0-.41-.26.2-.46-.72c-.12-.5.91-.54,0-1.29a1,1,0,0,1-.23-.89c.09-.19-.47-.31-.05-.74s-.26-.91,0-1.86c.18-.56.45-.58.46-1,0-.68-.17-.51-.4-1.3-.28-1,.05-1.41.05-1.41l-.11-1.12a.75.75,0,0,1,.5-.77c.55-.25.77-1.89,1.25.77a23.42,23.42,0,0,1,.62,4.66c.13,0,.5.47,1.45,2.36,2.89,5.78-2.89,4.55,2.89,5.78s6.32,1.66,7.7-.82.27.41,0-4.54-.27-2.6-.27-4.81c-1.39-1.57,0-2,0-.15v.15a10.53,10.53,0,0,0,2.48,1.89c5,2.92,0-1.21,5,2.92s2.07-5,5,4.13-1.65,5.78,0,11.56l1.65,5.78s.41.82,3.72-4.54-1.24-5,3.3-5.37,3.72-7.85,4.54-.42,1.65,4.55.83,7.44.41-1.65-.83,2.89-5.78-3.31-3.71,3.3.82,14.77,2.06,11.93c.95-2.18,3.6-7.79,5.34-11.77a52.44,52.44,0,0,0,1.57-6.77c0-.31-.06-.45.07-.39.11-.69.19-1.39.27-2.09-.52-.61-1.11-1-.64-3.3"/><path class="cls-3" d="M464.67,937.37v-.15c0-1.86-1.39-1.42,0,.15"/><path class="cls-3" d="M452.9,939.4c-.12,0,0,.26,0,0"/><path class="cls-17" d="M447.6,976.45c1.79-1.65,3.25-2.07,2.93-3.72-.21-1.09-2.09-.37-4.06.6v4.18l1.13-1.06"/><path class="cls-16" d="M441.55,983.05l-2.48-5.43c-2.48-5.44,2.06-1.59,4.54-2.82.84-.42,1.86-1,2.86-1.47v-15c-.47.36-1.12.87-2,1.6-2.07,1.65-2.07,1.65-3.14,5.78s-.58,3.31-3.47,6.61-2.06,1.24-4.95,3.71-2.48,2.48-7.44,2.48-2.06.83-6.6,0-4.18,1.33-5.42-4.86l-.41-6.24c-.25-3.85,2.11-1.7,3.76-7.07s0,0,1.24-4.12,0,0,.83-6.2.41-2.48-.42-8.67,0,0-3.71-4.54,0,0-3.31-5.37,0,0,2.07-6.19,0,0,1.65-3.72,2.07-3.3,10.32-5.84,3.72-1.18,12.39,2.54,0,0,3.3,6.6l4.55,1.66s.28.34.79.88v-6.72a3.58,3.58,0,0,1-1.62.47l-.82-3.31c-.83-3.3-.42-2.47-1.24-3.22s-8.26,0-8.26,0-4.13-.91-5.37-.08,1.65-5,1.65-5,4.54.41,5.78-5.79l4-4A52.25,52.25,0,0,0,444,1004.15c.83,0,1.67,0,2.5-.07V977.51a37.73,37.73,0,0,0-4.92,5.54"/><path class="cls-3" d="M440.72,899.76v7.73l5.75,1.38v-9.16c-.83,0-1.66-.06-2.5-.06-1.09,0-2.17,0-3.25.11"/><path class="cls-3" d="M440.72,899.65l-.12.12h.12Z"/><path class="cls-3" d="M441.13,924.83c-3.3-6.6,5.37-2.89-3.3-6.6s-4.13-5.07-12.39-2.54-8.67,2.12-10.32,5.84.41-2.48-1.65,3.72-5.37.82-2.07,6.19-.41.83,3.31,5.37,2.89-1.65,3.71,4.54,1.24,2.48.42,8.67.41,2.07-.83,6.2.42-1.24-1.24,4.12-4,3.22-3.76,7.07l.41,6.24c1.24,6.19.88,4,5.42,4.86s1.65,0,6.6,0,4.55,0,7.44-2.47,2.06-.42,4.95-3.72,2.4-2.48,3.47-6.61,1.07-4.13,3.14-5.78c.91-.73,1.56-1.24,2-1.6v-31c-.51-.54-.79-.88-.79-.88Z"/><path class="cls-3" d="M440.72,903.77v-4h-.12l-4,4c-1.24,6.2-5.78,5.79-5.78,5.79s-2.89,5.78-1.65,5,5.37.08,5.37.08,7.43-.74,8.26,0,.41-.08,1.24,3.22l.82,3.31a3.58,3.58,0,0,0,1.62-.47V908.87l-5.75-1.38Z"/><path class="cls-3" d="M439.07,977.62l2.48,5.44a37.34,37.34,0,0,1,4.92-5.55v-4.18c-1,.49-2,1-2.86,1.47-2.48,1.24-7-2.62-4.54,2.82"/><rect class="cls-8" x="446.47" y="1014.61" width="5.27" height="16.31"/><path class="cls-3" d="M425.44,1030.92a13.22,13.22,0,0,0-13.22,13.23h34.25v-13.23Z"/><path class="cls-17" d="M467.49,1030.92h-21v13.23h34.25a13.23,13.23,0,0,0-13.23-13.23"/><rect class="cls-12" x="1626.49" y="460.7" width="117.11" height="6.07"/><rect class="cls-9" x="1626.49" y="414.08" width="117.11" height="46.62"/><rect class="cls-12" x="1626.49" y="402.14" width="117.11" height="11.94"/><rect class="cls-12" x="1626.49" y="397.48" width="117.11" height="3.09"/><rect class="cls-5" x="1626.49" y="400.57" width="117.11" height="1.57"/><rect class="cls-8" x="1620.82" y="460.7" width="5.68" height="6.07"/><rect class="cls-3" x="1620.82" y="414.08" width="5.68" height="46.62"/><rect class="cls-8" x="1620.82" y="402.14" width="5.68" height="11.94"/><rect class="cls-8" x="1620.82" y="397.48" width="5.68" height="3.09"/><rect class="cls-7" x="1620.82" y="400.57" width="5.68" height="1.57"/><rect class="cls-8" x="1743.6" y="460.7" width="5.68" height="6.07"/><rect class="cls-3" x="1743.6" y="414.08" width="5.68" height="46.62"/><rect class="cls-8" x="1743.6" y="402.14" width="5.68" height="11.94"/><rect class="cls-8" x="1743.6" y="397.48" width="5.68" height="3.09"/><rect class="cls-7" x="1743.6" y="400.57" width="5.68" height="1.57"/><path class="cls-12" d="M1655.32,443.34a3,3,0,0,0,0-.43,3.34,3.34,0,0,0,0-.43V428.79H1653l-1.41,8.94a5.32,5.32,0,0,0-1.69-.3,5.48,5.48,0,1,0,5.41,6.14h0Z"/><polygon class="cls-7" points="1706.79 402.15 1713.85 422.64 1665.01 422.64 1672.08 402.14 1706.79 402.15"/><path class="cls-4" d="M1720.11,438.78a30.68,30.68,0,1,1-30.68-30.68,30.67,30.67,0,0,1,30.68,30.68"/><path class="cls-5" d="M1716.07,438.78a26.64,26.64,0,1,1-26.64-26.63,26.64,26.64,0,0,1,26.64,26.63"/><path class="cls-3" d="M1714.13,438.78a24.7,24.7,0,1,1-24.7-24.7,24.7,24.7,0,0,1,24.7,24.7"/><path class="cls-4" d="M1706.05,438.78a16.62,16.62,0,1,1-16.62-16.62,16.62,16.62,0,0,1,16.62,16.62"/><path class="cls-8" d="M1699,438.78a9.61,9.61,0,1,1-9.61-9.61,9.61,9.61,0,0,1,9.61,9.61"/><path class="cls-7" d="M1696,440.5a6.54,6.54,0,1,1-6.54-6.54,6.54,6.54,0,0,1,6.54,6.54"/><polygon class="cls-16" points="1672.08 402.14 1706.79 402.14 1699.5 389.78 1679.37 389.78 1672.08 402.14"/><path class="cls-13" d="M1652.47,443.09a2.59,2.59,0,1,1-2.58-2.59,2.58,2.58,0,0,1,2.58,2.59"/><rect class="cls-16" x="1627.8" y="393.71" width="13.43" height="3.77"/><rect class="cls-3" x="1649.98" y="391.12" width="13.37" height="6.36"/><rect class="cls-3" x="1720.11" y="394.36" width="16.84" height="3.12"/><rect class="cls-16" x="1722.73" y="389.78" width="12.07" height="4.58"/><path class="cls-11" d="M1648.77,388.75h-6.47v-1a1.39,1.39,0,0,1,1.4-1.39h3.67a1.4,1.4,0,0,1,1.4,1.39Z"/><polygon class="cls-5" points="1650.09 392.44 1650.09 388.75 1640.97 388.75 1640.97 392.44 1639.22 392.44 1639.22 397.48 1640.97 397.48 1650.09 397.48 1651.85 397.48 1651.85 392.44 1650.09 392.44"/><path class="cls-3" d="M134.4,396.4a28.39,28.39,0,0,1,19.24,7.46,18.5,18.5,0,0,1,2.27,2.32,28.4,28.4,0,0,1,7,17.09,23.78,23.78,0,0,1,14.2,21.85c0,12.2-8.51,22.19-20.25,23.77a15.81,15.81,0,0,1-3.22.23H76.22a12.21,12.21,0,0,1-2.16-.19,18,18,0,1,1,8.56-34.74,16.84,16.84,0,0,1,5.78-12.14,16,16,0,0,1,2.68-1.91,16.81,16.81,0,0,1,15.28-.76,28.58,28.58,0,0,1,28-23m0-3.38A32,32,0,0,0,104,415a20.29,20.29,0,0,0-14.53,2.13,19.1,19.1,0,0,0-3.3,2.34A20.32,20.32,0,0,0,79.79,430a20.07,20.07,0,0,0-3.11-.23,21.35,21.35,0,0,0-3.16,42.47,15.48,15.48,0,0,0,2.7.24h77.44a19.74,19.74,0,0,0,3.81-.28c13.36-1.87,23-13.25,23-27.11a27.3,27.3,0,0,0-14.38-24.05,31.59,31.59,0,0,0-7.56-17,20.84,20.84,0,0,0-2.68-2.75A31.86,31.86,0,0,0,134.4,393"/><path class="cls-13" d="M163.07,423.33A42.39,42.39,0,0,1,82.31,434.1a18,18,0,1,0-8.25,34.83,12.21,12.21,0,0,0,2.16.19h77.44a15.81,15.81,0,0,0,3.22-.23c11.74-1.58,20.24-11.57,20.24-23.77a23.79,23.79,0,0,0-14.05-21.79"/><path class="cls-5" d="M121.14,459.5a42.39,42.39,0,0,0,41.93-36.17l-.14-.06a28.4,28.4,0,0,0-7-17.09,18.5,18.5,0,0,0-2.27-2.32,28.58,28.58,0,0,0-47.28,15.52,16.81,16.81,0,0,0-15.28.76,15.8,15.8,0,0,0-2.67,1.91,16.81,16.81,0,0,0-5.79,12.14l-.31-.09a42.37,42.37,0,0,0,38.83,25.4"/><path class="cls-3" d="M1706.19,600.13l-1.17,0h0v11.31a19.28,19.28,0,0,1,0,38.56v37.39a5.62,5.62,0,0,0,5.19-2.92l22-38.88c11.26-19.85-2.74-44.68-26-45.44"/><path class="cls-13" d="M1724.2,630.7a19.24,19.24,0,0,0-19.2-19.27V650a19.24,19.24,0,0,0,19.2-19.28"/><path class="cls-9" d="M1685.8,630.7a19.23,19.23,0,0,1,19.2-19.27V600.11l-1.16,0c-23.34.77-37.41,25.87-26,45.67l22.46,38.7a5.64,5.64,0,0,0,4.7,2.87V650a19.23,19.23,0,0,1-19.2-19.28"/><path class="cls-5" d="M1685.8,630.7A19.23,19.23,0,0,0,1705,650V611.43a19.23,19.23,0,0,0-19.2,19.27"/><path class="cls-11" d="M368.92,660.16l-29.73-51.5V571.45l2.93-5.38a1,1,0,0,0-.88-1.49h-28.6a1,1,0,0,0-1.05,1v43l-29.73,51.5A7.89,7.89,0,0,0,288.69,672h73.4a7.89,7.89,0,0,0,6.83-11.84"/><path class="cls-5" d="M335.91,610v-38h0l2.26-3.72a.7.7,0,0,0-.68-1h-22a.77.77,0,0,0-.81.73v42.41l-9.74,16.87h40.94Z"/><path class="cls-3" d="M285.24,661.28a5.41,5.41,0,0,0,4.69,8.12h70.92a5.41,5.41,0,0,0,4.69-8.12l-13.3-23h-53.7Z"/><polygon class="cls-10" points="304.92 627.19 298.54 638.23 352.24 638.23 345.86 627.19 304.92 627.19"/><path class="cls-5" d="M336.06,632.71a.81.81,0,1,1-1.61,0,.81.81,0,1,1,1.61,0"/><path class="cls-5" d="M334.51,637.27a1.75,1.75,0,1,1-1.75-1.75,1.75,1.75,0,0,1,1.75,1.75"/><path class="cls-5" d="M339.84,643a2.67,2.67,0,1,1-2.66-2.67,2.67,2.67,0,0,1,2.66,2.67"/><path class="cls-5" d="M334.45,648.42A3.45,3.45,0,1,1,331,645a3.44,3.44,0,0,1,3.44,3.45"/><path class="cls-5" d="M343.12,654.64a4.34,4.34,0,1,1-4.33-4.33,4.33,4.33,0,0,1,4.33,4.33"/><polygon class="cls-5" points="1624.54 810.85 1594.47 810.85 1579.44 836.88 1594.47 862.92 1624.54 862.92 1639.57 836.88 1624.54 810.85"/><polygon class="cls-9" points="56.91 651.56 40.79 651.56 32.73 665.52 40.79 679.49 56.91 679.49 64.98 665.52 56.91 651.56"/><polygon class="cls-9" points="128.74 911.55 114.61 911.55 107.55 923.78 114.61 936.01 128.74 936.01 135.8 923.78 128.74 911.55"/><polygon class="cls-12" points="1886.41 420.23 1873.39 420.23 1866.89 431.5 1873.39 442.77 1886.41 442.77 1892.91 431.5 1886.41 420.23"/><polygon class="cls-9" points="1826.49 925.16 1826.49 911.55 1814.69 904.74 1802.9 911.55 1802.9 925.16 1814.69 931.97 1826.49 925.16"/><polygon class="cls-9" points="1747.76 184.14 1747.76 167.47 1733.33 159.14 1718.89 167.47 1718.89 184.14 1733.33 192.47 1747.76 184.14"/><polygon class="cls-5" points="501.12 50.46 485.77 50.46 478.1 63.75 485.77 77.05 501.12 77.05 508.79 63.75 501.12 50.46"/><polygon class="cls-5" points="1333.88 85.17 1318.53 85.17 1310.86 98.47 1318.53 111.76 1333.88 111.76 1341.55 98.47 1333.88 85.17"/><polygon class="cls-11" points="183.22 123.19 183.22 96.33 159.95 82.89 136.69 96.33 136.69 123.19 159.95 136.62 183.22 123.19"/><polygon class="cls-5" points="252.89 488.26 227.53 488.26 214.85 510.22 227.53 532.18 252.89 532.18 265.57 510.22 252.89 488.26"/><polygon class="cls-11" points="1819.42 649.16 1843.34 649.16 1855.3 628.45 1843.34 607.74 1819.42 607.74 1807.47 628.45 1819.42 649.16"/><polygon class="cls-18" points="1819.42 649.16 1843.34 649.16 1855.3 628.45 1843.34 607.74 1819.42 607.74 1807.47 628.45 1819.42 649.16"/><polygon class="cls-12" points="1428.45 1017.36 1412.06 1017.36 1403.86 1031.56 1412.06 1045.76 1428.45 1045.76 1436.65 1031.56 1428.45 1017.36"/><polygon class="cls-5" points="582.08 1030.65 582.08 1005.9 560.64 993.52 539.2 1005.9 539.2 1030.65 560.64 1043.03 582.08 1030.65"/><polygon class="cls-8" points="112.26 342.99 102.73 342.99 102.73 343.03 93.01 343.03 93.01 352.08 121.68 352.08 112.26 342.99"/><rect class="cls-3" x="93.01" y="342.99" width="9.72" height="0.04"/><polygon class="cls-7" points="83.21 343.03 83.21 342.99 73.38 342.99 64.27 352.08 93.01 352.08 93.01 343.03 83.21 343.03"/><rect class="cls-3" x="83.21" y="342.99" width="9.8" height="0.04"/><path class="cls-3" d="M93,220.87V343h9.72L96.07,220.26l-.35.14a8.12,8.12,0,0,1-2.71.47"/><path class="cls-8" d="M93,220.87a8.36,8.36,0,0,1-2.75-.47l-.34-.14L83.21,343H93V220.87h0"/><path class="cls-3" d="M106.66,199l-2,2a16.43,16.43,0,0,1,0,23.17l2,2a19.23,19.23,0,0,0,0-27.11"/><path class="cls-3" d="M81.25,201l-2-2a19.23,19.23,0,0,0,0,27.11l2-2a16.45,16.45,0,0,1,0-23.17"/><path class="cls-10" d="M111.24,194.4l-2,2a22.92,22.92,0,0,1,0,32.35l2,2a25.7,25.7,0,0,0,0-36.27"/><path class="cls-10" d="M76.67,196.36l-2-2a25.7,25.7,0,0,0,0,36.27l2-2a22.95,22.95,0,0,1,0-32.35"/><path class="cls-12" d="M116,189.61l-2,2a29.69,29.69,0,0,1,0,41.92l2,2a32.48,32.48,0,0,0,0-45.85"/><path class="cls-12" d="M71.88,191.57l-2-2a32.48,32.48,0,0,0,0,45.85l2-2a29.71,29.71,0,0,1,0-41.93"/><path class="cls-4" d="M98.93,206.71a8.33,8.33,0,1,0-9.05,13.55l.34.14a8.36,8.36,0,0,0,2.75.47h0a8.12,8.12,0,0,0,2.71-.47l.35-.14a8.38,8.38,0,0,0,2.86-1.9,8.32,8.32,0,0,0,0-11.65"/><rect class="cls-5" x="1529.38" y="241.95" width="116" height="70.56"/><rect class="cls-4" x="1541.5" y="287.43" width="90.7" height="14.22"/><rect class="cls-19" x="1632.49" y="301.91" width="4.8" height="4.8"/><rect class="cls-19" x="1536.54" y="301.91" width="4.8" height="4.8"/><rect class="cls-19" x="1632.49" y="250.21" width="4.8" height="4.8"/><rect class="cls-19" x="1536.54" y="250.21" width="4.8" height="4.8"/><rect class="cls-13" x="1541.6" y="279.44" width="6.04" height="6.04"/><rect class="cls-12" x="1541.6" y="271.44" width="6.04" height="6.04"/><rect class="cls-12" x="1541.6" y="263.44" width="6.04" height="6.04"/><rect class="cls-13" x="1541.6" y="255.45" width="6.04" height="6.04"/><rect class="cls-13" x="1558.51" y="279.44" width="6.04" height="6.04"/><rect class="cls-12" x="1558.51" y="271.44" width="6.04" height="6.04"/><rect class="cls-13" x="1558.51" y="263.44" width="6.04" height="6.04"/><rect class="cls-12" x="1558.51" y="255.45" width="6.04" height="6.04"/><rect class="cls-12" x="1550.06" y="279.44" width="6.04" height="6.04"/><rect class="cls-13" x="1550.06" y="271.44" width="6.04" height="6.04"/><rect class="cls-12" x="1550.06" y="263.44" width="6.04" height="6.04"/><rect class="cls-13" x="1550.06" y="255.45" width="6.04" height="6.04"/><rect class="cls-12" x="1575.43" y="279.44" width="6.04" height="6.04"/><rect class="cls-13" x="1575.43" y="271.44" width="6.04" height="6.04"/><rect class="cls-12" x="1575.43" y="263.44" width="6.04" height="6.04"/><rect class="cls-13" x="1575.43" y="255.45" width="6.04" height="6.04"/><rect class="cls-12" x="1566.97" y="279.44" width="6.04" height="6.04"/><rect class="cls-13" x="1566.97" y="271.44" width="6.04" height="6.04"/><rect class="cls-13" x="1566.97" y="263.44" width="6.04" height="6.04"/><rect class="cls-12" x="1566.97" y="255.45" width="6.04" height="6.04"/><rect class="cls-13" x="1600.79" y="279.44" width="6.04" height="6.04"/><rect class="cls-13" x="1600.79" y="271.44" width="6.04" height="6.04"/><rect class="cls-12" x="1600.79" y="263.44" width="6.04" height="6.04"/><rect class="cls-12" x="1600.79" y="255.45" width="6.04" height="6.04"/><rect class="cls-13" x="1592.34" y="279.44" width="6.04" height="6.04"/><rect class="cls-12" x="1592.34" y="271.44" width="6.04" height="6.04"/><rect class="cls-13" x="1592.34" y="263.44" width="6.04" height="6.04"/><rect class="cls-12" x="1592.34" y="255.45" width="6.04" height="6.04"/><rect class="cls-12" x="1609.25" y="279.44" width="6.04" height="6.04"/><rect class="cls-13" x="1609.25" y="271.44" width="6.04" height="6.04"/><rect class="cls-12" x="1609.25" y="263.44" width="6.04" height="6.04"/><rect class="cls-13" x="1609.25" y="255.45" width="6.04" height="6.04"/><rect class="cls-12" x="1617.7" y="279.44" width="6.04" height="6.04"/><rect class="cls-12" x="1617.7" y="271.44" width="6.04" height="6.04"/><rect class="cls-13" x="1617.7" y="263.44" width="6.04" height="6.04"/><rect class="cls-13" x="1617.7" y="255.45" width="6.04" height="6.04"/><rect class="cls-13" x="1583.88" y="279.44" width="6.04" height="6.04"/><rect class="cls-13" x="1583.88" y="271.44" width="6.04" height="6.04"/><rect class="cls-12" x="1583.88" y="263.44" width="6.04" height="6.04"/><rect class="cls-12" x="1583.88" y="255.45" width="6.04" height="6.04"/><rect class="cls-13" x="1626.16" y="279.44" width="6.04" height="6.04"/><rect class="cls-12" x="1626.16" y="271.44" width="6.04" height="6.04"/><rect class="cls-12" x="1626.16" y="263.44" width="6.04" height="6.04"/><rect class="cls-13" x="1626.16" y="255.45" width="6.04" height="6.04"/><rect class="cls-5" x="1584.78" y="260.17" width="5.46" height="70.33" transform="matrix(0.07, -1, 1, 0.07, 1184.78, 1859.05)"/><rect class="cls-7" x="1557.17" y="290.37" width="5.94" height="5.94" transform="translate(1161.35 1829.92) rotate(-86.1)"/><polygon class="cls-12" points="521.77 108.93 508.76 108.93 502.25 120.2 508.76 131.47 521.77 131.47 528.28 120.2 521.77 108.93"/></g></svg>