<svg xmlns="http://www.w3.org/2000/svg" viewBox="0 0 310.25 204.57"><defs><style>.cls-1{fill:none;}.cls-2{fill:#2c2a74;}.cls-3{fill:#020058;}.cls-4{fill:#fff;}.cls-5{fill:#ffd200;}</style></defs><title>Artboard 6 copy</title><g id="Icons"><rect class="cls-1" x="155.11" y="182.75" width="100.18" height="4.97"/><path class="cls-2" d="M265.93,187.72v-5h9.15a14.52,14.52,0,0,0,14.43-14.6V14.59A14.49,14.49,0,0,0,275.08,0h-120V182.75H255.29v5H155.11v16.85H293.62a16.73,16.73,0,0,0,16.63-16.85Z"/><path class="cls-3" d="M55,187.72v-5H155.11V0h-120A14.47,14.47,0,0,0,20.74,14.59V168.15a14.5,14.5,0,0,0,14.39,14.6h9.19v5H0a16.74,16.74,0,0,0,16.67,16.85H155.11V187.72Z"/><path class="cls-4" d="M155.12,4.53A3.18,3.18,0,1,1,152,7.7,3.17,3.17,0,0,1,155.12,4.53Z"/><rect class="cls-5" x="36.15" y="15.32" width="237.93" height="152.1"/><path class="cls-3" d="M111.18,98.13a4.39,4.39,0,0,0,.88,2.44c.8.85,2.27,1.28,4.41,1.28a6.77,6.77,0,0,0,3-.56,1.89,1.89,0,0,0,.22-3.34q-.9-.57-6.67-1.94a13.81,13.81,0,0,1-5.86-2.6,5.63,5.63,0,0,1-1.7-4.42,7.68,7.68,0,0,1,2.65-5.86c1.77-1.63,4.27-2.45,7.48-2.45a13.63,13.63,0,0,1,7.46,1.84c1.92,1.23,3,3.34,3.31,6.35H120a3.86,3.86,0,0,0-.69-2,4.4,4.4,0,0,0-3.6-1.31,5.09,5.09,0,0,0-3,.66,1.87,1.87,0,0,0-.89,1.53,1.68,1.68,0,0,0,1,1.6,40.42,40.42,0,0,0,6.66,1.79,12.14,12.14,0,0,1,5.71,2.73A6.22,6.22,0,0,1,127,98.53a7.49,7.49,0,0,1-2.7,6q-2.7,2.32-8.36,2.32t-8.51-2.45a8,8,0,0,1-2.74-6.24Z"/><path class="cls-3" d="M129.22,86.19V81.61h3.41V74.74h6.31v6.87h4v4.58h-4v13c0,1,.12,1.64.38,1.88a4.12,4.12,0,0,0,2.33.38l.61,0c.22,0,.43,0,.64,0v4.81l-3,.11q-4.53.17-6.18-1.58a4.71,4.71,0,0,1-1.07-3.41V86.19Z"/><path class="cls-3" d="M156.66,91a9.86,9.86,0,0,0,2.55-.57,1.93,1.93,0,0,0,1.37-1.82,2.17,2.17,0,0,0-1.05-2.09,6.57,6.57,0,0,0-3.1-.58,4,4,0,0,0-3.24,1.13,4.62,4.62,0,0,0-.91,2.26h-6.16a9.58,9.58,0,0,1,1.8-5.31c1.69-2.16,4.6-3.25,8.72-3.25a15.43,15.43,0,0,1,7.15,1.61c2.08,1.06,3.12,3.08,3.12,6V99.73c0,.78,0,1.73.05,2.84a3.53,3.53,0,0,0,.38,1.72,2.24,2.24,0,0,0,.94.74v1h-6.94a7,7,0,0,1-.4-1.4,13.53,13.53,0,0,1-.18-1.49,13,13,0,0,1-3.06,2.46,9.16,9.16,0,0,1-4.68,1.2,8,8,0,0,1-5.51-1.91,6.79,6.79,0,0,1-2.17-5.4,7,7,0,0,1,3.49-6.57,15.37,15.37,0,0,1,5.64-1.58Zm3.9,3a6.84,6.84,0,0,1-1.24.62,9.65,9.65,0,0,1-1.71.44l-1.45.27a9.78,9.78,0,0,0-2.94.88,3,3,0,0,0-1.5,2.73,2.83,2.83,0,0,0,.92,2.38,3.47,3.47,0,0,0,2.24.74,6.66,6.66,0,0,0,3.85-1.22c1.17-.81,1.78-2.3,1.83-4.45Z"/><path class="cls-3" d="M186,80.8l.55,0v6.59q-.6-.08-1.08-.09c-.31,0-.56,0-.76,0-2.56,0-4.29.84-5.17,2.52a10,10,0,0,0-.74,4.38V106h-6.42V81.38h6.09v4.29a13.73,13.73,0,0,1,2.57-3.37,7,7,0,0,1,4.66-1.51Z"/><path class="cls-3" d="M187.82,86.19V81.61h3.4V74.74h6.31v6.87h4v4.58h-4v13a2.94,2.94,0,0,0,.38,1.88,4.14,4.14,0,0,0,2.33.38l.62,0q.31,0,.63,0v4.81l-3,.11q-4.51.17-6.17-1.58a4.71,4.71,0,0,1-1.08-3.41V86.19Z"/></g></svg>