<?xml version="1.0" encoding="utf-8"?>
<!-- Generator: Adobe Illustrator 17.1.0, SVG Export Plug-In . SVG Version: 6.00 Build 0)  -->
<!DOCTYPE svg PUBLIC "-//W3C//DTD SVG 1.1//EN" "http://www.w3.org/Graphics/SVG/1.1/DTD/svg11.dtd">
<svg version="1.1" id="Layer_1" xmlns="http://www.w3.org/2000/svg" xmlns:xlink="http://www.w3.org/1999/xlink" x="0px" y="0px"
	 viewBox="0 0 841.9 595.3" enable-background="new 0 0 841.9 595.3" xml:space="preserve">
<path opacity="0.8" fill="#999999" d="M212.1,303.8C208.2,183,306.9,84.2,427.8,88c109.4,3.5,198.6,92.6,202.1,202
	c3.9,120.8-94.8,219.6-215.7,215.8C304.8,502.4,215.6,413.2,212.1,303.8z M397.6,399.7l75.4-57c30.4-22.9,30.4-68.6,0-91.5l-75.3-57
	c-19.7-11.8-44.6,2.4-44.6,25.4v0.7c0,9.2,4.1,17.8,11.4,23.4l38.7,29.8c15.4,11.8,15.4,35,0,46.9l-38.7,29.8
	c-7.3,5.6-11.4,14.3-11.4,23.4v0.7C353,397.3,377.9,411.5,397.6,399.7z"/>
</svg>
